{"glyphs":{"0":{"ha":804,"x_min":114,"x_max":817,"o":"m 521 917 q 752 820 688 917 q 817 581 817 724 q 767 263 817 397 q 625 56 717 128 q 411 -15 533 -15 q 188 74 263 -15 q 114 329 114 164 q 208 755 114 593 q 521 917 301 917 m 508 821 q 362 696 415 821 q 308 265 308 571 q 424 81 308 81 q 524 138 478 81 q 597 314 569 194 q 624 613 624 433 q 598 767 624 713 q 508 821 572 821 z "},"1":{"ha":553,"x_min":168,"x_max":542,"o":"m 542 903 l 415 0 l 233 0 l 340 775 l 193 701 l 168 785 l 393 903 l 542 903 z "},"2":{"ha":672,"x_min":47,"x_max":706,"o":"m 47 0 l 68 143 q 240 253 136 169 q 423 453 344 336 q 501 693 501 571 q 470 787 501 760 q 379 814 439 814 q 308 799 347 814 q 239 767 268 783 q 201 746 210 751 l 197 849 q 235 868 197 850 q 323 901 272 886 q 426 917 374 917 q 633 856 561 917 q 706 696 706 796 q 582 413 706 547 q 288 174 458 279 l 647 174 l 624 0 l 47 0 z "},"3":{"ha":683,"x_min":65,"x_max":715,"o":"m 526 728 l 193 728 l 228 903 l 715 903 l 699 786 l 439 518 l 449 518 q 610 460 547 518 q 672 299 672 401 q 622 129 672 200 q 492 22 572 58 q 322 -15 411 -15 q 178 10 235 -15 q 93 63 121 35 q 65 97 65 92 l 126 179 q 151 151 126 176 q 217 105 176 126 q 310 83 258 83 q 437 147 394 83 q 479 329 479 211 q 394 429 479 429 q 360 420 378 429 q 329 401 342 411 q 314 389 317 392 l 267 453 l 526 728 z "},"4":{"ha":740,"x_min":82,"x_max":747,"o":"m 565 903 q 416 610 511 757 q 206 317 321 464 l 469 317 l 583 767 l 722 767 l 658 317 l 747 317 l 735 238 l 644 222 l 614 0 l 425 0 l 456 221 l 82 221 l 83 303 q 251 594 161 414 q 392 925 340 775 l 565 903 z "},"5":{"ha":679,"x_min":43,"x_max":704,"o":"m 340 722 l 300 557 q 383 569 343 569 q 593 511 517 569 q 669 338 669 453 q 615 142 669 222 q 476 24 561 63 q 296 -15 390 -15 q 158 9 214 -15 q 72 62 101 33 q 43 94 43 90 l 108 172 q 132 146 108 169 q 196 103 156 122 q 289 83 236 83 q 426 153 376 83 q 475 343 475 222 q 354 481 475 481 q 290 468 319 481 q 244 438 261 456 l 236 424 l 172 433 l 290 903 l 704 903 l 669 722 l 340 722 z "},"6":{"ha":736,"x_min":106,"x_max":731,"o":"m 681 769 q 651 785 675 774 q 594 808 628 797 q 529 819 561 819 q 397 754 449 819 q 315 526 344 689 q 481 585 399 585 q 663 525 596 585 q 731 349 731 465 q 726 289 731 321 q 613 65 706 146 q 376 -15 519 -15 q 176 59 247 -15 q 106 286 106 133 q 116 406 106 344 q 136 501 126 468 q 292 817 192 717 q 524 917 393 917 q 611 905 568 917 q 682 880 654 893 q 717 863 710 867 l 681 769 m 446 497 q 322 432 382 497 q 301 304 307 365 q 296 215 296 260 q 318 108 296 140 q 389 76 340 76 q 481 124 449 76 q 528 281 513 172 q 535 369 535 336 q 513 465 535 433 q 446 497 492 497 z "},"7":{"ha":626,"x_min":131,"x_max":732,"o":"m 711 757 q 500 394 607 610 q 331 0 393 178 l 131 0 q 299 319 193 151 q 565 718 404 486 l 150 718 l 176 903 l 732 903 l 711 757 z "},"8":{"ha":744,"x_min":81,"x_max":774,"o":"m 774 708 q 715 549 774 608 q 568 458 656 489 q 685 397 638 440 q 732 274 732 353 q 369 -15 732 -15 q 81 196 81 -15 q 144 361 81 299 q 301 457 207 424 q 201 522 242 478 q 160 640 160 567 q 255 844 160 771 q 501 917 350 917 q 697 863 621 917 q 774 708 774 808 m 356 618 q 422 494 356 528 q 527 558 476 507 q 578 724 578 610 q 486 831 578 831 q 390 772 424 831 q 356 618 356 714 m 526 292 q 503 374 526 344 q 447 417 481 404 q 341 356 394 406 q 288 189 288 306 q 385 71 288 71 q 489 129 451 71 q 526 292 526 188 z "},"9":{"ha":736,"x_min":131,"x_max":757,"o":"m 193 142 q 215 124 193 140 q 271 95 238 108 q 343 82 304 82 q 544 365 493 82 q 390 310 479 310 q 202 367 274 310 q 131 543 131 424 q 174 736 131 651 q 298 869 218 821 q 482 917 378 917 q 684 842 611 917 q 757 617 757 768 q 751 517 757 568 q 738 436 744 465 q 353 -15 631 -15 q 242 1 288 -15 q 170 35 196 17 q 144 57 144 54 l 193 142 m 414 397 q 497 425 463 397 q 547 497 532 453 q 563 625 557 549 q 565 688 565 649 q 543 794 565 764 q 475 825 521 825 q 365 746 406 825 q 324 525 324 667 q 414 397 324 397 z "},"\u0000":{"ha":0,"x_min":0,"x_max":0,"o":""},"\r":{"ha":354,"x_min":0,"x_max":0,"o":""}," ":{"ha":354,"x_min":0,"x_max":0,"o":""},"A":{"ha":844,"x_min":26,"x_max":819,"o":"m 665 903 l 819 0 l 617 0 l 575 253 l 261 253 l 143 0 l 26 0 l 453 903 l 665 903 m 494 765 l 300 340 l 561 340 l 496 765 l 494 765 z "},"Á":{"ha":844,"x_min":26,"x_max":819,"o":"m 758 1158 l 565 978 l 488 990 l 614 1201 l 758 1158 m 665 903 l 819 0 l 617 0 l 575 253 l 261 253 l 143 0 l 26 0 l 453 903 l 665 903 m 494 765 l 300 340 l 561 340 l 496 765 l 494 765 z "},"Ă":{"ha":844,"x_min":26,"x_max":819,"o":"m 571 1071 q 649 1088 621 1071 q 687 1123 676 1104 q 697 1147 697 1142 l 699 1153 l 789 1140 q 772 1086 789 1126 q 703 1008 756 1046 q 556 969 651 969 q 409 1017 447 969 q 371 1118 371 1064 q 372 1133 371 1126 q 372 1140 372 1139 l 465 1153 l 465 1147 q 483 1099 465 1126 q 571 1071 501 1071 m 665 903 l 819 0 l 617 0 l 575 253 l 261 253 l 143 0 l 26 0 l 453 903 l 665 903 m 494 765 l 300 340 l 561 340 l 496 765 l 494 765 z "},"Ắ":{"ha":844,"x_min":26,"x_max":819,"o":"m 665 903 l 819 0 l 617 0 l 575 253 l 261 253 l 143 0 l 26 0 l 453 903 l 665 903 m 494 765 l 300 340 l 561 340 l 496 765 l 494 765 m 567 1092 q 644 1108 617 1092 q 683 1144 672 1125 q 693 1168 693 1163 l 694 1174 l 785 1161 q 768 1107 785 1147 q 699 1028 751 1067 q 551 990 647 990 q 405 1038 443 990 q 367 1139 367 1085 q 367 1153 367 1147 q 368 1161 368 1160 l 461 1174 l 461 1168 q 479 1119 461 1147 q 567 1092 497 1092 m 789 1358 l 596 1178 l 518 1190 l 644 1401 l 789 1358 z "},"Ặ":{"ha":844,"x_min":26,"x_max":819,"o":"m 665 903 l 819 0 l 617 0 l 575 253 l 261 253 l 143 0 l 26 0 l 453 903 l 665 903 m 494 765 l 300 340 l 561 340 l 496 765 l 494 765 m 281 -139 q 347 -114 310 -114 q 407 -139 383 -114 q 426 -192 426 -161 q 388 -275 426 -240 q 321 -299 356 -299 q 261 -275 282 -299 q 242 -221 242 -251 q 252 -177 242 -199 q 281 -139 263 -156 m 567 1092 q 644 1108 617 1092 q 683 1144 672 1125 q 693 1168 693 1163 l 694 1174 l 785 1161 q 768 1107 785 1147 q 699 1028 751 1067 q 551 990 647 990 q 405 1038 443 990 q 367 1139 367 1085 q 367 1153 367 1147 q 368 1161 368 1160 l 461 1174 l 461 1168 q 479 1119 461 1147 q 567 1092 497 1092 z "},"Ằ":{"ha":844,"x_min":26,"x_max":819,"o":"m 665 903 l 819 0 l 617 0 l 575 253 l 261 253 l 143 0 l 26 0 l 453 903 l 665 903 m 494 765 l 300 340 l 561 340 l 496 765 l 494 765 m 567 1092 q 644 1108 617 1092 q 683 1144 672 1125 q 693 1168 693 1163 l 694 1174 l 785 1161 q 768 1107 785 1147 q 699 1028 751 1067 q 551 990 647 990 q 405 1038 443 990 q 367 1139 367 1085 q 367 1153 367 1147 q 368 1161 368 1160 l 461 1174 l 461 1168 q 479 1119 461 1147 q 567 1092 497 1092 m 564 1425 l 653 1221 l 564 1197 l 410 1376 l 564 1425 z "},"Ẳ":{"ha":844,"x_min":26,"x_max":819,"o":"m 665 903 l 819 0 l 617 0 l 575 253 l 261 253 l 143 0 l 26 0 l 453 903 l 665 903 m 494 765 l 300 340 l 561 340 l 496 765 l 494 765 m 567 1092 q 644 1108 617 1092 q 683 1144 672 1125 q 693 1168 693 1163 l 694 1174 l 785 1161 q 768 1107 785 1147 q 699 1028 751 1067 q 551 990 647 990 q 405 1038 443 990 q 367 1139 367 1085 q 367 1153 367 1147 q 368 1161 368 1160 l 461 1174 l 461 1168 q 479 1119 461 1147 q 567 1092 497 1092 m 531 1178 q 535 1207 531 1182 q 542 1224 536 1217 q 556 1236 549 1231 q 567 1244 564 1242 q 592 1265 583 1256 q 604 1289 601 1274 q 606 1306 606 1296 q 560 1344 606 1344 q 528 1339 543 1344 q 505 1328 514 1333 q 494 1321 496 1322 l 464 1400 q 484 1410 468 1403 q 525 1426 500 1418 q 578 1433 550 1433 q 707 1339 707 1433 q 704 1306 707 1318 q 685 1263 699 1279 q 646 1226 671 1247 q 634 1217 643 1224 q 620 1203 625 1210 q 614 1190 615 1197 l 611 1179 l 531 1178 z "},"Ẵ":{"ha":844,"x_min":26,"x_max":863,"o":"m 665 903 l 819 0 l 617 0 l 575 253 l 261 253 l 143 0 l 26 0 l 453 903 l 665 903 m 494 765 l 300 340 l 561 340 l 496 765 l 494 765 m 567 1092 q 644 1108 617 1092 q 683 1144 672 1125 q 693 1168 693 1163 l 694 1174 l 785 1161 q 768 1107 785 1147 q 699 1028 751 1067 q 551 990 647 990 q 405 1038 443 990 q 367 1139 367 1085 q 367 1153 367 1147 q 368 1161 368 1160 l 461 1174 l 461 1168 q 479 1119 461 1147 q 567 1092 497 1092 m 863 1339 q 842 1306 863 1335 q 783 1253 821 1278 q 692 1229 746 1229 q 639 1238 661 1229 q 582 1264 617 1246 q 533 1288 554 1279 q 485 1296 511 1296 q 443 1282 463 1296 q 412 1253 424 1268 q 397 1233 400 1238 l 354 1283 q 380 1320 354 1288 q 447 1381 406 1353 q 542 1408 489 1408 q 603 1399 578 1408 q 661 1372 628 1390 q 705 1350 688 1357 q 744 1343 722 1343 q 783 1353 767 1343 q 809 1374 800 1363 q 819 1388 818 1385 l 863 1339 z "},"Â":{"ha":844,"x_min":26,"x_max":819,"o":"m 742 1064 l 694 1001 l 567 1119 l 404 1001 l 374 1064 l 533 1233 l 631 1233 l 742 1064 m 665 903 l 819 0 l 617 0 l 575 253 l 261 253 l 143 0 l 26 0 l 453 903 l 665 903 m 494 765 l 300 340 l 561 340 l 496 765 l 494 765 z "},"Ấ":{"ha":844,"x_min":26,"x_max":1007,"o":"m 665 903 l 819 0 l 617 0 l 575 253 l 261 253 l 143 0 l 26 0 l 453 903 l 665 903 m 494 765 l 300 340 l 561 340 l 496 765 l 494 765 m 751 1033 l 704 971 l 576 1089 l 414 971 l 383 1033 l 543 1203 l 640 1203 l 751 1033 m 1007 1269 l 814 1089 l 736 1101 l 863 1313 l 1007 1269 z "},"Ậ":{"ha":844,"x_min":26,"x_max":819,"o":"m 665 903 l 819 0 l 617 0 l 575 253 l 261 253 l 143 0 l 26 0 l 453 903 l 665 903 m 494 765 l 300 340 l 561 340 l 496 765 l 494 765 m 281 -139 q 347 -114 310 -114 q 407 -139 383 -114 q 426 -192 426 -161 q 388 -275 426 -240 q 321 -299 356 -299 q 261 -275 282 -299 q 242 -221 242 -251 q 252 -177 242 -199 q 281 -139 263 -156 m 751 1033 l 704 971 l 576 1089 l 414 971 l 383 1033 l 543 1203 l 640 1203 l 751 1033 z "},"Ầ":{"ha":844,"x_min":26,"x_max":836,"o":"m 665 903 l 819 0 l 617 0 l 575 253 l 261 253 l 143 0 l 26 0 l 453 903 l 665 903 m 494 765 l 300 340 l 561 340 l 496 765 l 494 765 m 751 1033 l 704 971 l 576 1089 l 414 971 l 383 1033 l 543 1203 l 640 1203 l 751 1033 m 747 1407 l 836 1203 l 747 1179 l 593 1358 l 747 1407 z "},"Ẩ":{"ha":844,"x_min":26,"x_max":926,"o":"m 665 903 l 819 0 l 617 0 l 575 253 l 261 253 l 143 0 l 26 0 l 453 903 l 665 903 m 494 765 l 300 340 l 561 340 l 496 765 l 494 765 m 751 1033 l 704 971 l 576 1089 l 414 971 l 383 1033 l 543 1203 l 640 1203 l 751 1033 m 750 1128 q 754 1157 750 1132 q 762 1174 756 1167 q 776 1186 768 1181 q 786 1194 783 1192 q 812 1215 803 1206 q 824 1239 821 1224 q 825 1256 825 1246 q 779 1294 825 1294 q 748 1289 763 1294 q 724 1278 733 1283 q 714 1271 715 1272 l 683 1350 q 703 1360 688 1353 q 744 1376 719 1368 q 797 1383 769 1383 q 926 1289 926 1383 q 924 1256 926 1268 q 904 1213 918 1229 q 865 1176 890 1197 q 853 1167 863 1174 q 840 1153 844 1160 q 833 1140 835 1147 l 831 1129 l 750 1128 z "},"Ẫ":{"ha":844,"x_min":26,"x_max":882,"o":"m 665 903 l 819 0 l 617 0 l 575 253 l 261 253 l 143 0 l 26 0 l 453 903 l 665 903 m 494 765 l 300 340 l 561 340 l 496 765 l 494 765 m 751 1033 l 704 971 l 576 1089 l 414 971 l 383 1033 l 543 1203 l 640 1203 l 751 1033 m 882 1371 q 861 1338 882 1367 q 803 1285 840 1310 q 711 1261 765 1261 q 658 1269 681 1261 q 601 1296 636 1278 q 552 1319 574 1311 q 504 1328 531 1328 q 463 1314 482 1328 q 431 1285 443 1300 q 417 1265 419 1269 l 374 1315 q 399 1352 374 1319 q 467 1413 425 1385 q 561 1440 508 1440 q 622 1431 597 1440 q 681 1404 647 1422 q 724 1382 707 1389 q 764 1375 742 1375 q 803 1385 786 1375 q 828 1406 819 1394 q 839 1419 838 1417 l 882 1371 z "},"Ä":{"ha":844,"x_min":26,"x_max":819,"o":"m 382 1165 q 450 1189 413 1189 q 510 1165 486 1189 q 529 1108 529 1139 q 489 1021 529 1057 q 422 996 458 996 q 363 1021 386 996 q 343 1078 343 1044 q 353 1124 343 1101 q 382 1165 364 1147 m 640 1165 q 707 1189 671 1189 q 768 1165 742 1189 q 788 1108 788 1139 q 747 1021 788 1057 q 679 996 717 996 q 621 1021 642 996 q 601 1078 601 1044 q 612 1124 601 1101 q 640 1165 622 1147 m 665 903 l 819 0 l 617 0 l 575 253 l 261 253 l 143 0 l 26 0 l 453 903 l 665 903 m 494 765 l 300 340 l 561 340 l 496 765 l 494 765 z "},"Ạ":{"ha":844,"x_min":26,"x_max":819,"o":"m 665 903 l 819 0 l 617 0 l 575 253 l 261 253 l 143 0 l 26 0 l 453 903 l 665 903 m 494 765 l 300 340 l 561 340 l 496 765 l 494 765 m 281 -139 q 347 -114 310 -114 q 407 -139 383 -114 q 426 -192 426 -161 q 388 -275 426 -240 q 321 -299 356 -299 q 261 -275 282 -299 q 242 -221 242 -251 q 252 -177 242 -199 q 281 -139 263 -156 z "},"À":{"ha":844,"x_min":26,"x_max":819,"o":"m 536 1213 l 625 1008 l 536 985 l 382 1164 l 536 1213 m 665 903 l 819 0 l 617 0 l 575 253 l 261 253 l 143 0 l 26 0 l 453 903 l 665 903 m 494 765 l 300 340 l 561 340 l 496 765 l 494 765 z "},"Ả":{"ha":844,"x_min":26,"x_max":819,"o":"m 665 903 l 819 0 l 617 0 l 575 253 l 261 253 l 143 0 l 26 0 l 453 903 l 665 903 m 494 765 l 300 340 l 561 340 l 496 765 l 494 765 m 522 983 q 526 1013 522 988 q 534 1029 528 1022 q 548 1042 540 1036 q 558 1050 556 1047 q 584 1070 575 1061 q 596 1094 593 1079 q 597 1111 597 1101 q 551 1150 597 1150 q 520 1144 535 1150 q 497 1133 506 1139 q 486 1126 488 1128 l 456 1206 q 476 1216 460 1208 q 517 1231 492 1224 q 569 1239 542 1239 q 699 1144 699 1239 q 696 1111 699 1124 q 676 1069 690 1085 q 638 1032 663 1053 q 626 1022 635 1029 q 612 1009 617 1015 q 606 996 607 1003 l 603 985 l 522 983 z "},"Ā":{"ha":844,"x_min":26,"x_max":819,"o":"m 713 1054 l 414 1054 l 425 1135 l 722 1135 l 713 1054 m 665 903 l 819 0 l 617 0 l 575 253 l 261 253 l 143 0 l 26 0 l 453 903 l 665 903 m 494 765 l 300 340 l 561 340 l 496 765 l 494 765 z "},"Ą":{"ha":844,"x_min":26,"x_max":819,"o":"m 819 0 l 706 0 q 622 -72 661 -22 q 582 -206 582 -122 q 606 -263 582 -247 q 678 -279 631 -279 l 668 -347 q 515 -318 571 -347 q 460 -211 460 -289 q 506 -90 460 -144 q 615 3 551 -35 l 575 253 l 261 253 l 143 0 l 26 0 l 453 903 l 665 903 l 819 0 m 494 765 l 300 340 l 561 340 l 496 765 l 494 765 z "},"Å":{"ha":844,"x_min":26,"x_max":819,"o":"m 714 1121 q 667 996 714 1043 q 549 949 621 949 q 454 982 489 949 q 419 1075 419 1015 q 466 1201 419 1154 q 585 1247 513 1247 q 678 1213 642 1247 q 714 1121 714 1179 m 651 1115 q 631 1170 651 1151 q 578 1189 610 1189 q 510 1162 536 1189 q 483 1083 483 1135 q 503 1028 483 1047 q 557 1008 524 1008 q 626 1036 600 1008 q 651 1115 651 1064 m 665 903 l 819 0 l 617 0 l 575 253 l 261 253 l 143 0 l 26 0 l 453 903 l 665 903 m 494 765 l 300 340 l 561 340 l 496 765 l 494 765 z "},"Ã":{"ha":844,"x_min":26,"x_max":826,"o":"m 826 1118 q 806 1085 826 1114 q 747 1033 785 1057 q 656 1008 710 1008 q 603 1017 625 1008 q 546 1043 581 1025 q 497 1067 518 1058 q 449 1075 475 1075 q 407 1061 426 1075 q 376 1032 388 1047 q 361 1013 364 1017 l 318 1063 q 344 1099 318 1067 q 411 1160 369 1132 q 506 1188 453 1188 q 567 1178 542 1188 q 625 1151 592 1169 q 669 1129 651 1136 q 708 1122 686 1122 q 747 1132 731 1122 q 773 1153 764 1142 q 783 1167 782 1164 l 826 1118 m 665 903 l 819 0 l 617 0 l 575 253 l 261 253 l 143 0 l 26 0 l 453 903 l 665 903 m 494 765 l 300 340 l 561 340 l 496 765 l 494 765 z "},"Æ":{"ha":1142,"x_min":-19,"x_max":1201,"o":"m 1201 903 l 1189 803 l 839 803 l 797 506 l 1106 506 l 1092 408 l 783 408 l 740 100 l 1110 100 l 1094 0 l 535 0 l 571 261 l 279 261 l 101 0 l -19 0 l 610 903 l 1201 903 m 583 350 l 647 803 l 638 803 l 339 350 l 583 350 z "},"B":{"ha":790,"x_min":107,"x_max":797,"o":"m 508 903 q 726 845 654 903 q 797 699 797 788 q 750 561 797 618 q 632 471 703 504 q 740 403 700 449 q 779 292 779 358 q 735 143 779 210 q 602 38 690 76 q 389 0 514 0 l 107 0 l 233 903 l 508 903 m 483 501 q 540 524 510 501 q 590 590 569 547 q 610 690 610 632 q 578 783 610 753 q 492 813 546 813 l 414 813 l 369 501 l 483 501 m 311 90 l 397 90 q 535 149 482 90 q 588 304 588 208 q 559 391 588 364 q 482 418 531 418 l 357 418 l 311 90 z "},"C":{"ha":800,"x_min":106,"x_max":853,"o":"m 824 739 q 779 762 814 744 q 694 796 744 779 q 599 813 644 813 q 391 699 469 813 q 313 336 313 585 q 367 149 313 210 q 521 89 422 89 q 640 117 588 89 q 724 176 692 144 q 757 213 757 208 l 807 146 q 767 98 807 139 q 655 21 728 57 q 479 -15 582 -15 q 203 83 300 -15 q 106 356 106 182 q 165 645 106 518 q 334 844 225 772 q 589 917 443 917 q 712 900 653 917 q 812 863 771 883 q 853 840 853 842 l 824 739 z "},"Ć":{"ha":800,"x_min":106,"x_max":853,"o":"m 781 1158 l 588 978 l 510 990 l 636 1201 l 781 1158 m 824 739 q 779 762 814 744 q 694 796 744 779 q 599 813 644 813 q 391 699 469 813 q 313 336 313 585 q 367 149 313 210 q 521 89 422 89 q 640 117 588 89 q 724 176 692 144 q 757 213 757 208 l 807 146 q 767 98 807 139 q 655 21 728 57 q 479 -15 582 -15 q 203 83 300 -15 q 106 356 106 182 q 165 645 106 518 q 334 844 225 772 q 589 917 443 917 q 712 900 653 917 q 812 863 771 883 q 853 840 853 842 l 824 739 z "},"Č":{"ha":800,"x_min":106,"x_max":853,"o":"m 397 1174 l 463 1222 l 594 1093 l 763 1222 l 814 1168 l 628 982 l 531 982 l 397 1174 m 824 739 q 779 762 814 744 q 694 796 744 779 q 599 813 644 813 q 391 699 469 813 q 313 336 313 585 q 367 149 313 210 q 521 89 422 89 q 640 117 588 89 q 724 176 692 144 q 757 213 757 208 l 807 146 q 767 98 807 139 q 655 21 728 57 q 479 -15 582 -15 q 203 83 300 -15 q 106 356 106 182 q 165 645 106 518 q 334 844 225 772 q 589 917 443 917 q 712 900 653 917 q 812 863 771 883 q 853 840 853 842 l 824 739 z "},"Ç":{"ha":800,"x_min":106,"x_max":853,"o":"m 824 739 q 779 762 814 744 q 694 796 744 779 q 599 813 644 813 q 391 699 469 813 q 313 336 313 585 q 367 149 313 210 q 521 89 422 89 q 640 117 588 89 q 724 176 692 144 q 757 213 757 208 l 807 146 q 767 98 807 139 q 656 21 728 57 q 481 -15 583 -15 l 467 -81 q 495 -93 467 -82 q 548 -128 524 -104 q 572 -193 572 -151 q 526 -305 572 -261 q 392 -349 479 -349 q 319 -335 346 -349 q 280 -305 292 -321 q 268 -285 268 -289 l 310 -244 q 319 -257 311 -247 q 342 -276 326 -267 q 379 -285 357 -285 q 463 -197 463 -285 q 444 -158 463 -169 q 406 -142 425 -146 q 388 -136 388 -137 l 419 -12 q 187 100 268 3 q 106 356 106 197 q 165 645 106 518 q 334 844 225 772 q 589 917 443 917 q 712 900 653 917 q 812 863 771 883 q 853 840 853 842 l 824 739 z "},"D":{"ha":899,"x_min":107,"x_max":919,"o":"m 540 903 q 822 810 725 903 q 919 538 919 718 q 790 142 919 283 q 415 0 660 0 l 107 0 l 233 903 l 540 903 m 313 99 l 431 99 q 714 574 714 99 q 668 749 714 693 q 526 804 622 804 l 411 804 l 313 99 z "},"Ð":{"ha":914,"x_min":86,"x_max":919,"o":"m 540 903 q 822 810 725 903 q 919 538 919 718 q 790 142 919 283 q 415 0 660 0 l 107 0 l 163 401 l 86 401 l 99 493 l 175 493 l 233 903 l 540 903 m 367 493 l 565 493 l 553 401 l 354 401 l 313 99 l 431 99 q 714 574 714 99 q 668 749 714 693 q 526 804 622 804 l 411 804 l 367 493 z "},"Ď":{"ha":914,"x_min":107,"x_max":919,"o":"m 363 1174 l 428 1222 l 560 1093 l 728 1222 l 779 1168 l 593 982 l 496 982 l 363 1174 m 540 903 q 822 810 725 903 q 919 538 919 718 q 790 142 919 283 q 415 0 660 0 l 107 0 l 233 903 l 540 903 m 313 99 l 431 99 q 714 574 714 99 q 668 749 714 693 q 526 804 622 804 l 411 804 l 313 99 z "},"Đ":{"ha":914,"x_min":86,"x_max":919,"o":"m 540 903 q 822 810 725 903 q 919 538 919 718 q 790 142 919 283 q 415 0 660 0 l 107 0 l 163 401 l 86 401 l 99 493 l 175 493 l 233 903 l 540 903 m 367 493 l 565 493 l 553 401 l 354 401 l 313 99 l 431 99 q 714 574 714 99 q 668 749 714 693 q 526 804 622 804 l 411 804 l 367 493 z "},"E":{"ha":728,"x_min":107,"x_max":775,"o":"m 668 0 l 107 0 l 233 903 l 775 903 l 761 803 l 411 803 l 369 506 l 679 506 l 664 408 l 357 408 l 314 100 l 682 100 l 668 0 z "},"É":{"ha":728,"x_min":107,"x_max":775,"o":"m 735 1158 l 542 978 l 464 990 l 590 1201 l 735 1158 m 668 0 l 107 0 l 233 903 l 775 903 l 761 803 l 411 803 l 369 506 l 679 506 l 664 408 l 357 408 l 314 100 l 682 100 l 668 0 z "},"Ě":{"ha":728,"x_min":107,"x_max":775,"o":"m 344 1174 l 410 1222 l 542 1093 l 710 1222 l 761 1168 l 575 982 l 478 982 l 344 1174 m 668 0 l 107 0 l 233 903 l 775 903 l 761 803 l 411 803 l 369 506 l 679 506 l 664 408 l 357 408 l 314 100 l 682 100 l 668 0 z "},"Ê":{"ha":728,"x_min":107,"x_max":775,"o":"m 719 1064 l 672 1001 l 544 1119 l 382 1001 l 351 1064 l 511 1233 l 608 1233 l 719 1064 m 668 0 l 107 0 l 233 903 l 775 903 l 761 803 l 411 803 l 369 506 l 679 506 l 664 408 l 357 408 l 314 100 l 682 100 l 668 0 z "},"Ế":{"ha":728,"x_min":107,"x_max":989,"o":"m 668 0 l 107 0 l 233 903 l 775 903 l 761 803 l 411 803 l 369 506 l 679 506 l 664 408 l 357 408 l 314 100 l 682 100 l 668 0 m 733 1033 l 686 971 l 558 1089 l 396 971 l 365 1033 l 525 1203 l 622 1203 l 733 1033 m 989 1269 l 796 1089 l 718 1101 l 844 1313 l 989 1269 z "},"Ệ":{"ha":728,"x_min":107,"x_max":775,"o":"m 668 0 l 107 0 l 233 903 l 775 903 l 761 803 l 411 803 l 369 506 l 679 506 l 664 408 l 357 408 l 314 100 l 682 100 l 668 0 m 222 -139 q 289 -114 251 -114 q 349 -139 325 -114 q 368 -192 368 -161 q 329 -275 368 -240 q 263 -299 297 -299 q 203 -275 224 -299 q 183 -221 183 -251 q 194 -177 183 -199 q 222 -139 204 -156 m 733 1033 l 686 971 l 558 1089 l 396 971 l 365 1033 l 525 1203 l 622 1203 l 733 1033 z "},"Ề":{"ha":728,"x_min":107,"x_max":818,"o":"m 668 0 l 107 0 l 233 903 l 775 903 l 761 803 l 411 803 l 369 506 l 679 506 l 664 408 l 357 408 l 314 100 l 682 100 l 668 0 m 733 1033 l 686 971 l 558 1089 l 396 971 l 365 1033 l 525 1203 l 622 1203 l 733 1033 m 729 1407 l 818 1203 l 729 1179 l 575 1358 l 729 1407 z "},"Ể":{"ha":728,"x_min":107,"x_max":908,"o":"m 668 0 l 107 0 l 233 903 l 775 903 l 761 803 l 411 803 l 369 506 l 679 506 l 664 408 l 357 408 l 314 100 l 682 100 l 668 0 m 733 1033 l 686 971 l 558 1089 l 396 971 l 365 1033 l 525 1203 l 622 1203 l 733 1033 m 732 1128 q 736 1157 732 1132 q 744 1174 738 1167 q 758 1186 750 1181 q 768 1194 765 1192 q 794 1215 785 1206 q 806 1239 803 1224 q 807 1256 807 1246 q 761 1294 807 1294 q 730 1289 744 1294 q 706 1278 715 1283 q 696 1271 697 1272 l 665 1350 q 685 1360 669 1353 q 726 1376 701 1368 q 779 1383 751 1383 q 908 1289 908 1383 q 906 1256 908 1268 q 886 1213 900 1229 q 847 1176 872 1197 q 835 1167 844 1174 q 822 1153 826 1160 q 815 1140 817 1147 l 813 1129 l 732 1128 z "},"Ễ":{"ha":728,"x_min":107,"x_max":864,"o":"m 668 0 l 107 0 l 233 903 l 775 903 l 761 803 l 411 803 l 369 506 l 679 506 l 664 408 l 357 408 l 314 100 l 682 100 l 668 0 m 733 1033 l 686 971 l 558 1089 l 396 971 l 365 1033 l 525 1203 l 622 1203 l 733 1033 m 864 1371 q 843 1338 864 1367 q 785 1285 822 1310 q 693 1261 747 1261 q 640 1269 663 1261 q 583 1296 618 1278 q 534 1319 556 1311 q 486 1328 513 1328 q 444 1314 464 1328 q 413 1285 425 1300 q 399 1265 401 1269 l 356 1315 q 381 1352 356 1319 q 449 1413 407 1385 q 543 1440 490 1440 q 604 1431 579 1440 q 663 1404 629 1422 q 706 1382 689 1389 q 746 1375 724 1375 q 785 1385 768 1375 q 810 1406 801 1394 q 821 1419 819 1417 l 864 1371 z "},"Ë":{"ha":728,"x_min":107,"x_max":775,"o":"m 338 1165 q 406 1189 368 1189 q 465 1165 442 1189 q 485 1108 485 1139 q 444 1021 485 1057 q 378 996 414 996 q 318 1021 340 996 q 299 1078 299 1044 q 309 1124 299 1101 q 338 1165 319 1147 m 596 1165 q 663 1189 626 1189 q 724 1165 697 1189 q 743 1108 743 1139 q 703 1021 743 1057 q 635 996 672 996 q 576 1021 597 996 q 557 1078 557 1044 q 567 1124 557 1101 q 596 1165 578 1147 m 668 0 l 107 0 l 233 903 l 775 903 l 761 803 l 411 803 l 369 506 l 679 506 l 664 408 l 357 408 l 314 100 l 682 100 l 668 0 z "},"Ė":{"ha":728,"x_min":107,"x_max":775,"o":"m 471 1171 q 547 1199 503 1199 q 615 1172 590 1199 q 636 1110 636 1146 q 625 1058 636 1083 q 593 1013 614 1032 q 517 986 558 986 q 449 1014 472 986 q 426 1076 426 1038 q 438 1127 426 1101 q 471 1171 450 1153 m 668 0 l 107 0 l 233 903 l 775 903 l 761 803 l 411 803 l 369 506 l 679 506 l 664 408 l 357 408 l 314 100 l 682 100 l 668 0 z "},"Ẹ":{"ha":728,"x_min":107,"x_max":775,"o":"m 668 0 l 107 0 l 233 903 l 775 903 l 761 803 l 411 803 l 369 506 l 679 506 l 664 408 l 357 408 l 314 100 l 682 100 l 668 0 m 222 -139 q 289 -114 251 -114 q 349 -139 325 -114 q 368 -192 368 -161 q 329 -275 368 -240 q 263 -299 297 -299 q 203 -275 224 -299 q 183 -221 183 -251 q 194 -177 183 -199 q 222 -139 204 -156 z "},"È":{"ha":728,"x_min":107,"x_max":775,"o":"m 513 1213 l 601 1008 l 513 985 l 358 1164 l 513 1213 m 668 0 l 107 0 l 233 903 l 775 903 l 761 803 l 411 803 l 369 506 l 679 506 l 664 408 l 357 408 l 314 100 l 682 100 l 668 0 z "},"Ẻ":{"ha":728,"x_min":107,"x_max":775,"o":"m 668 0 l 107 0 l 233 903 l 775 903 l 761 803 l 411 803 l 369 506 l 679 506 l 664 408 l 357 408 l 314 100 l 682 100 l 668 0 m 504 983 q 508 1013 504 988 q 516 1029 510 1022 q 530 1042 522 1036 q 540 1050 538 1047 q 566 1070 557 1061 q 578 1094 575 1079 q 579 1111 579 1101 q 533 1150 579 1150 q 502 1144 517 1150 q 478 1133 488 1139 q 468 1126 469 1128 l 438 1206 q 458 1216 442 1208 q 499 1231 474 1224 q 551 1239 524 1239 q 681 1144 681 1239 q 678 1111 681 1124 q 658 1069 672 1085 q 619 1032 644 1053 q 608 1022 617 1029 q 594 1009 599 1015 q 588 996 589 1003 l 585 985 l 504 983 z "},"Ē":{"ha":728,"x_min":107,"x_max":775,"o":"m 686 1054 l 388 1054 l 399 1135 l 696 1135 l 686 1054 m 668 0 l 107 0 l 233 903 l 775 903 l 761 803 l 411 803 l 369 506 l 679 506 l 664 408 l 357 408 l 314 100 l 682 100 l 668 0 z "},"Ę":{"ha":728,"x_min":107,"x_max":775,"o":"m 643 0 q 559 -72 599 -22 q 519 -206 519 -122 q 544 -263 519 -247 q 615 -279 568 -279 l 606 -347 q 453 -318 508 -347 q 397 -211 397 -289 q 441 -92 397 -146 q 547 0 485 -39 l 107 0 l 233 903 l 775 903 l 761 803 l 411 803 l 369 506 l 679 506 l 664 408 l 357 408 l 314 100 l 682 100 l 668 0 l 643 0 z "},"Ẽ":{"ha":728,"x_min":107,"x_max":818,"o":"m 668 0 l 107 0 l 233 903 l 775 903 l 761 803 l 411 803 l 369 506 l 679 506 l 664 408 l 357 408 l 314 100 l 682 100 l 668 0 m 818 1139 q 797 1106 818 1135 q 739 1053 776 1078 q 647 1029 701 1029 q 594 1038 617 1029 q 538 1064 572 1046 q 488 1088 510 1079 q 440 1096 467 1096 q 399 1082 418 1096 q 367 1053 379 1068 q 353 1033 356 1038 l 310 1083 q 335 1120 310 1088 q 403 1181 361 1153 q 497 1208 444 1208 q 558 1199 533 1208 q 617 1172 583 1190 q 660 1150 643 1157 q 700 1143 678 1143 q 739 1153 722 1143 q 765 1174 756 1163 q 775 1188 774 1185 l 818 1139 z "},"F":{"ha":678,"x_min":107,"x_max":782,"o":"m 661 372 l 351 372 l 299 0 l 107 0 l 233 903 l 782 903 l 768 803 l 411 803 l 365 469 l 675 469 l 661 372 z "},"G":{"ha":868,"x_min":106,"x_max":864,"o":"m 701 0 l 664 81 q 435 -15 576 -15 q 190 81 275 -15 q 106 353 106 176 q 165 650 106 522 q 336 847 225 778 q 596 917 447 917 q 719 900 660 917 q 822 863 779 883 q 864 840 864 842 l 831 739 q 786 762 821 744 q 701 796 751 779 q 606 813 651 813 q 313 336 313 813 q 357 149 313 210 q 483 89 401 89 q 597 128 557 89 q 651 211 636 168 l 675 382 l 535 382 l 549 476 l 851 476 l 785 0 l 701 0 z "},"Ğ":{"ha":868,"x_min":106,"x_max":864,"o":"m 611 1071 q 689 1088 661 1071 q 727 1123 717 1104 q 738 1147 738 1142 l 739 1153 l 829 1140 q 813 1086 829 1126 q 744 1008 796 1046 q 596 969 692 969 q 449 1017 488 969 q 411 1118 411 1064 q 412 1133 411 1126 q 413 1140 413 1139 l 506 1153 l 506 1147 q 524 1099 506 1126 q 611 1071 542 1071 m 701 0 l 664 81 q 435 -15 576 -15 q 190 81 275 -15 q 106 353 106 176 q 165 650 106 522 q 336 847 225 778 q 596 917 447 917 q 719 900 660 917 q 822 863 779 883 q 864 840 864 842 l 831 739 q 786 762 821 744 q 701 796 751 779 q 606 813 651 813 q 313 336 313 813 q 357 149 313 210 q 483 89 401 89 q 597 128 557 89 q 651 211 636 168 l 675 382 l 535 382 l 549 476 l 851 476 l 785 0 l 701 0 z "},"Ģ":{"ha":868,"x_min":106,"x_max":864,"o":"m 701 0 l 664 81 q 435 -15 576 -15 q 190 81 275 -15 q 106 353 106 176 q 165 650 106 522 q 336 847 225 778 q 596 917 447 917 q 719 900 660 917 q 822 863 779 883 q 864 840 864 842 l 831 739 q 786 762 821 744 q 701 796 751 779 q 606 813 651 813 q 313 336 313 813 q 357 149 313 210 q 483 89 401 89 q 597 128 557 89 q 651 211 636 168 l 675 382 l 535 382 l 549 476 l 851 476 l 785 0 l 701 0 m 401 -86 q 464 -64 428 -64 q 521 -86 499 -64 q 549 -171 549 -119 q 496 -333 549 -246 q 367 -471 443 -419 l 332 -428 q 417 -333 388 -383 q 449 -236 447 -283 l 439 -236 q 383 -214 406 -236 q 365 -164 365 -192 q 374 -122 365 -143 q 401 -86 383 -101 z "},"H":{"ha":910,"x_min":107,"x_max":929,"o":"m 803 0 l 611 0 l 668 411 l 356 411 l 299 0 l 107 0 l 233 903 l 425 903 l 369 508 l 682 508 l 738 903 l 929 903 l 803 0 z "},"I":{"ha":407,"x_min":107,"x_max":425,"o":"m 299 0 l 107 0 l 233 903 l 425 903 l 299 0 z "},"Í":{"ha":407,"x_min":107,"x_max":533,"o":"m 533 1158 l 340 978 l 263 990 l 389 1201 l 533 1158 m 299 0 l 107 0 l 233 903 l 425 903 l 299 0 z "},"Î":{"ha":407,"x_min":107,"x_max":519,"o":"m 519 1064 l 472 1001 l 344 1119 l 182 1001 l 151 1064 l 311 1233 l 408 1233 l 519 1064 m 299 0 l 107 0 l 233 903 l 425 903 l 299 0 z "},"Ï":{"ha":407,"x_min":107,"x_max":563,"o":"m 157 1165 q 225 1189 188 1189 q 285 1165 261 1189 q 304 1108 304 1139 q 264 1021 304 1057 q 197 996 233 996 q 138 1021 161 996 q 118 1078 118 1044 q 128 1124 118 1101 q 157 1165 139 1147 m 415 1165 q 482 1189 446 1189 q 543 1165 517 1189 q 563 1108 563 1139 q 522 1021 563 1057 q 454 996 492 996 q 396 1021 417 996 q 376 1078 376 1044 q 387 1124 376 1101 q 415 1165 397 1147 m 299 0 l 107 0 l 233 903 l 425 903 l 299 0 z "},"İ":{"ha":407,"x_min":107,"x_max":449,"o":"m 283 1171 q 360 1199 315 1199 q 428 1172 403 1199 q 449 1110 449 1146 q 438 1058 449 1083 q 406 1013 426 1032 q 329 986 371 986 q 261 1014 285 986 q 239 1076 239 1038 q 251 1127 239 1101 q 283 1171 263 1153 m 299 0 l 107 0 l 233 903 l 425 903 l 299 0 z "},"Ị":{"ha":407,"x_min":81,"x_max":425,"o":"m 299 0 l 107 0 l 233 903 l 425 903 l 299 0 m 119 -139 q 186 -114 149 -114 q 246 -139 222 -114 q 265 -192 265 -161 q 226 -275 265 -240 q 160 -299 194 -299 q 100 -275 121 -299 q 81 -221 81 -251 q 91 -177 81 -199 q 119 -139 101 -156 z "},"Ì":{"ha":407,"x_min":107,"x_max":425,"o":"m 311 1213 l 400 1008 l 311 985 l 157 1164 l 311 1213 m 299 0 l 107 0 l 233 903 l 425 903 l 299 0 z "},"Ỉ":{"ha":407,"x_min":107,"x_max":478,"o":"m 299 0 l 107 0 l 233 903 l 425 903 l 299 0 m 301 983 q 306 1013 301 988 q 313 1029 307 1022 q 327 1042 319 1036 q 338 1050 335 1047 q 363 1070 354 1061 q 375 1094 372 1079 q 376 1111 376 1101 q 331 1150 376 1150 q 299 1144 314 1150 q 276 1133 285 1139 q 265 1126 267 1128 l 235 1206 q 255 1216 239 1208 q 296 1231 271 1224 q 349 1239 321 1239 q 478 1144 478 1239 q 475 1111 478 1124 q 456 1069 469 1085 q 417 1032 442 1053 q 405 1022 414 1029 q 391 1009 396 1015 q 385 996 386 1003 l 382 985 l 301 983 z "},"Ī":{"ha":407,"x_min":107,"x_max":500,"o":"m 490 1054 l 192 1054 l 203 1135 l 500 1135 l 490 1054 m 299 0 l 107 0 l 233 903 l 425 903 l 299 0 z "},"Į":{"ha":407,"x_min":-53,"x_max":425,"o":"m 193 0 q 108 -72 147 -22 q 69 -206 69 -122 q 94 -263 69 -247 q 165 -279 118 -279 l 156 -347 q 3 -318 58 -347 q -53 -211 -53 -289 q -6 -88 -53 -143 q 107 6 40 -33 l 233 903 l 425 903 l 299 0 l 193 0 z "},"Ĩ":{"ha":407,"x_min":107,"x_max":615,"o":"m 299 0 l 107 0 l 233 903 l 425 903 l 299 0 m 615 1139 q 594 1106 615 1135 q 536 1053 574 1078 q 444 1029 499 1029 q 392 1038 414 1029 q 335 1064 369 1046 q 285 1088 307 1079 q 238 1096 264 1096 q 196 1082 215 1096 q 165 1053 176 1068 q 150 1033 153 1038 l 107 1083 q 133 1120 107 1088 q 200 1181 158 1153 q 294 1208 242 1208 q 356 1199 331 1208 q 414 1172 381 1190 q 458 1150 440 1157 q 497 1143 475 1143 q 536 1153 519 1143 q 562 1174 553 1163 q 572 1188 571 1185 l 615 1139 z "},"J":{"ha":533,"x_min":22,"x_max":565,"o":"m 54 121 q 69 109 57 118 q 102 92 81 100 q 150 83 124 83 q 236 129 203 83 q 288 297 269 175 l 372 903 l 565 903 l 479 297 q 385 55 456 125 q 190 -15 315 -15 q 99 -3 136 -15 q 42 24 63 10 q 22 40 22 38 l 54 121 z "},"K":{"ha":860,"x_min":107,"x_max":906,"o":"m 233 903 l 425 903 l 365 483 l 457 544 l 772 903 l 906 903 l 582 550 l 843 0 l 600 0 l 415 406 l 349 364 l 299 0 l 107 0 l 233 903 z "},"Ķ":{"ha":869,"x_min":107,"x_max":906,"o":"m 233 903 l 425 903 l 365 483 l 457 544 l 772 903 l 906 903 l 582 550 l 843 0 l 600 0 l 415 406 l 349 364 l 299 0 l 107 0 l 233 903 m 374 -86 q 436 -64 400 -64 q 493 -86 471 -64 q 521 -171 521 -119 q 468 -333 521 -246 q 339 -471 415 -419 l 304 -428 q 390 -333 360 -383 q 421 -236 419 -283 l 411 -236 q 356 -214 378 -236 q 338 -164 338 -192 q 347 -122 338 -143 q 374 -86 356 -101 z "},"L":{"ha":665,"x_min":107,"x_max":663,"o":"m 649 0 l 107 0 l 233 903 l 425 903 l 313 100 l 663 100 l 649 0 z "},"Ĺ":{"ha":682,"x_min":107,"x_max":663,"o":"m 556 1158 l 363 978 l 285 990 l 411 1201 l 556 1158 m 649 0 l 107 0 l 233 903 l 425 903 l 313 100 l 663 100 l 649 0 z "},"Ľ":{"ha":682,"x_min":107,"x_max":663,"o":"m 161 1174 l 226 1222 l 358 1093 l 526 1222 l 578 1168 l 392 982 l 294 982 l 161 1174 m 649 0 l 107 0 l 233 903 l 425 903 l 313 100 l 663 100 l 649 0 z "},"Ļ":{"ha":682,"x_min":107,"x_max":663,"o":"m 649 0 l 107 0 l 233 903 l 425 903 l 313 100 l 663 100 l 649 0 m 313 -86 q 375 -64 339 -64 q 432 -86 410 -64 q 460 -171 460 -119 q 407 -333 460 -246 q 278 -471 354 -419 l 243 -428 q 328 -333 299 -383 q 360 -236 358 -283 l 350 -236 q 294 -214 317 -236 q 276 -164 276 -192 q 285 -122 276 -143 q 313 -86 294 -101 z "},"Ł":{"ha":714,"x_min":88,"x_max":710,"o":"m 696 0 l 154 0 l 196 301 l 124 253 l 88 311 l 208 392 l 281 903 l 472 903 l 421 533 l 572 635 l 610 576 l 407 442 l 360 100 l 710 100 l 696 0 z "},"M":{"ha":1189,"x_min":107,"x_max":1199,"o":"m 1082 0 l 894 0 l 979 683 l 976 683 l 629 0 l 486 0 l 331 683 l 326 683 l 226 0 l 107 0 l 244 903 l 476 903 l 636 238 l 642 238 l 983 903 l 1199 903 l 1082 0 z "},"N":{"ha":904,"x_min":107,"x_max":924,"o":"m 797 0 l 647 0 l 313 678 l 310 678 l 310 597 l 226 0 l 107 0 l 233 903 l 432 903 l 725 290 l 729 290 l 728 353 l 804 903 l 924 903 l 797 0 z "},"Ń":{"ha":904,"x_min":107,"x_max":924,"o":"m 824 1158 l 631 978 l 553 990 l 679 1201 l 824 1158 m 797 0 l 647 0 l 313 678 l 310 678 l 310 597 l 226 0 l 107 0 l 233 903 l 432 903 l 725 290 l 729 290 l 728 353 l 804 903 l 924 903 l 797 0 z "},"Ň":{"ha":904,"x_min":107,"x_max":924,"o":"m 454 1174 l 519 1222 l 651 1093 l 819 1222 l 871 1168 l 685 982 l 588 982 l 454 1174 m 797 0 l 647 0 l 313 678 l 310 678 l 310 597 l 226 0 l 107 0 l 233 903 l 432 903 l 725 290 l 729 290 l 728 353 l 804 903 l 924 903 l 797 0 z "},"Ņ":{"ha":904,"x_min":107,"x_max":924,"o":"m 797 0 l 647 0 l 313 678 l 310 678 l 310 597 l 226 0 l 107 0 l 233 903 l 432 903 l 725 290 l 729 290 l 728 353 l 804 903 l 924 903 l 797 0 m 379 -86 q 442 -64 406 -64 q 499 -86 476 -64 q 526 -171 526 -119 q 474 -333 526 -246 q 344 -471 421 -419 l 310 -428 q 395 -333 365 -383 q 426 -236 425 -283 l 417 -236 q 361 -214 383 -236 q 343 -164 343 -192 q 352 -122 343 -143 q 379 -86 361 -101 z "},"Ñ":{"ha":904,"x_min":107,"x_max":924,"o":"m 874 1118 q 853 1085 874 1114 q 794 1033 832 1057 q 703 1008 757 1008 q 650 1017 672 1008 q 593 1043 628 1025 q 544 1067 565 1058 q 496 1075 522 1075 q 454 1061 474 1075 q 423 1032 435 1047 q 408 1013 411 1017 l 365 1063 q 391 1099 365 1067 q 458 1160 417 1132 q 553 1188 500 1188 q 614 1178 589 1188 q 672 1151 639 1169 q 716 1129 699 1136 q 756 1122 733 1122 q 794 1132 778 1122 q 820 1153 811 1142 q 831 1167 829 1164 l 874 1118 m 797 0 l 647 0 l 313 678 l 310 678 l 310 597 l 226 0 l 107 0 l 233 903 l 432 903 l 725 290 l 729 290 l 728 353 l 804 903 l 924 903 l 797 0 z "},"O":{"ha":921,"x_min":106,"x_max":940,"o":"m 940 544 q 878 251 940 378 q 707 54 815 124 q 465 -15 599 -15 q 200 85 294 -15 q 106 360 106 185 q 161 649 106 522 q 323 846 217 775 q 578 917 429 917 q 851 813 761 917 q 940 544 940 708 m 736 585 q 694 753 736 690 q 568 817 653 817 q 308 313 308 817 q 351 144 308 206 q 475 83 394 83 q 665 203 593 83 q 736 585 736 322 z "},"Ó":{"ha":921,"x_min":106,"x_max":940,"o":"m 790 1158 l 597 978 l 519 990 l 646 1201 l 790 1158 m 940 544 q 878 251 940 378 q 707 54 815 124 q 465 -15 599 -15 q 200 85 294 -15 q 106 360 106 185 q 161 649 106 522 q 323 846 217 775 q 578 917 429 917 q 851 813 761 917 q 940 544 940 708 m 736 585 q 694 753 736 690 q 568 817 653 817 q 308 313 308 817 q 351 144 308 206 q 475 83 394 83 q 665 203 593 83 q 736 585 736 322 z "},"Ô":{"ha":921,"x_min":106,"x_max":940,"o":"m 776 1064 l 729 1001 l 601 1119 l 439 1001 l 408 1064 l 568 1233 l 665 1233 l 776 1064 m 940 544 q 878 251 940 378 q 707 54 815 124 q 465 -15 599 -15 q 200 85 294 -15 q 106 360 106 185 q 161 649 106 522 q 323 846 217 775 q 578 917 429 917 q 851 813 761 917 q 940 544 940 708 m 736 585 q 694 753 736 690 q 568 817 653 817 q 308 313 308 817 q 351 144 308 206 q 475 83 394 83 q 665 203 593 83 q 736 585 736 322 z "},"Ố":{"ha":921,"x_min":106,"x_max":1040,"o":"m 940 544 q 878 251 940 378 q 707 54 815 124 q 465 -15 599 -15 q 200 85 294 -15 q 106 360 106 185 q 161 649 106 522 q 323 846 217 775 q 578 917 429 917 q 851 813 761 917 q 940 544 940 708 m 736 585 q 694 753 736 690 q 568 817 653 817 q 308 313 308 817 q 351 144 308 206 q 475 83 394 83 q 665 203 593 83 q 736 585 736 322 m 785 1033 l 738 971 l 610 1089 l 447 971 l 417 1033 l 576 1203 l 674 1203 l 785 1033 m 1040 1269 l 847 1089 l 769 1101 l 896 1313 l 1040 1269 z "},"Ộ":{"ha":921,"x_min":106,"x_max":940,"o":"m 940 544 q 878 251 940 378 q 707 54 815 124 q 465 -15 599 -15 q 200 85 294 -15 q 106 360 106 185 q 161 649 106 522 q 323 846 217 775 q 578 917 429 917 q 851 813 761 917 q 940 544 940 708 m 736 585 q 694 753 736 690 q 568 817 653 817 q 308 313 308 817 q 351 144 308 206 q 475 83 394 83 q 665 203 593 83 q 736 585 736 322 m 375 -139 q 442 -114 404 -114 q 501 -139 478 -114 q 521 -192 521 -161 q 482 -275 521 -240 q 415 -299 450 -299 q 356 -275 376 -299 q 336 -221 336 -251 q 347 -177 336 -199 q 375 -139 357 -156 m 785 1033 l 738 971 l 610 1089 l 447 971 l 417 1033 l 576 1203 l 674 1203 l 785 1033 z "},"Ồ":{"ha":921,"x_min":106,"x_max":940,"o":"m 940 544 q 878 251 940 378 q 707 54 815 124 q 465 -15 599 -15 q 200 85 294 -15 q 106 360 106 185 q 161 649 106 522 q 323 846 217 775 q 578 917 429 917 q 851 813 761 917 q 940 544 940 708 m 736 585 q 694 753 736 690 q 568 817 653 817 q 308 313 308 817 q 351 144 308 206 q 475 83 394 83 q 665 203 593 83 q 736 585 736 322 m 785 1033 l 738 971 l 610 1089 l 447 971 l 417 1033 l 576 1203 l 674 1203 l 785 1033 m 781 1407 l 869 1203 l 781 1179 l 626 1358 l 781 1407 z "},"Ổ":{"ha":921,"x_min":106,"x_max":960,"o":"m 940 544 q 878 251 940 378 q 707 54 815 124 q 465 -15 599 -15 q 200 85 294 -15 q 106 360 106 185 q 161 649 106 522 q 323 846 217 775 q 578 917 429 917 q 851 813 761 917 q 940 544 940 708 m 736 585 q 694 753 736 690 q 568 817 653 817 q 308 313 308 817 q 351 144 308 206 q 475 83 394 83 q 665 203 593 83 q 736 585 736 322 m 785 1033 l 738 971 l 610 1089 l 447 971 l 417 1033 l 576 1203 l 674 1203 l 785 1033 m 783 1128 q 788 1157 783 1132 q 795 1174 789 1167 q 809 1186 801 1181 q 819 1194 817 1192 q 845 1215 836 1206 q 857 1239 854 1224 q 858 1256 858 1246 q 813 1294 858 1294 q 781 1289 796 1294 q 758 1278 767 1283 q 747 1271 749 1272 l 717 1350 q 737 1360 721 1353 q 778 1376 753 1368 q 831 1383 803 1383 q 960 1289 960 1383 q 957 1256 960 1268 q 938 1213 951 1229 q 899 1176 924 1197 q 887 1167 896 1174 q 873 1153 878 1160 q 867 1140 868 1147 l 864 1129 l 783 1128 z "},"Ỗ":{"ha":921,"x_min":106,"x_max":940,"o":"m 940 544 q 878 251 940 378 q 707 54 815 124 q 465 -15 599 -15 q 200 85 294 -15 q 106 360 106 185 q 161 649 106 522 q 323 846 217 775 q 578 917 429 917 q 851 813 761 917 q 940 544 940 708 m 736 585 q 694 753 736 690 q 568 817 653 817 q 308 313 308 817 q 351 144 308 206 q 475 83 394 83 q 665 203 593 83 q 736 585 736 322 m 785 1033 l 738 971 l 610 1089 l 447 971 l 417 1033 l 576 1203 l 674 1203 l 785 1033 m 915 1371 q 894 1338 915 1367 q 836 1285 874 1310 q 744 1261 799 1261 q 692 1269 714 1261 q 635 1296 669 1278 q 585 1319 607 1311 q 538 1328 564 1328 q 496 1314 515 1328 q 465 1285 476 1300 q 450 1265 453 1269 l 407 1315 q 433 1352 407 1319 q 500 1413 458 1385 q 594 1440 542 1440 q 656 1431 631 1440 q 714 1404 681 1422 q 758 1382 740 1389 q 797 1375 775 1375 q 836 1385 819 1375 q 862 1406 853 1394 q 872 1419 871 1417 l 915 1371 z "},"Ö":{"ha":921,"x_min":106,"x_max":940,"o":"m 414 1165 q 482 1189 444 1189 q 542 1165 518 1189 q 561 1108 561 1139 q 521 1021 561 1057 q 454 996 490 996 q 394 1021 417 996 q 375 1078 375 1044 q 385 1124 375 1101 q 414 1165 396 1147 m 672 1165 q 739 1189 703 1189 q 800 1165 774 1189 q 819 1108 819 1139 q 779 1021 819 1057 q 711 996 749 996 q 653 1021 674 996 q 633 1078 633 1044 q 644 1124 633 1101 q 672 1165 654 1147 m 940 544 q 878 251 940 378 q 707 54 815 124 q 465 -15 599 -15 q 200 85 294 -15 q 106 360 106 185 q 161 649 106 522 q 323 846 217 775 q 578 917 429 917 q 851 813 761 917 q 940 544 940 708 m 736 585 q 694 753 736 690 q 568 817 653 817 q 308 313 308 817 q 351 144 308 206 q 475 83 394 83 q 665 203 593 83 q 736 585 736 322 z "},"Ọ":{"ha":921,"x_min":106,"x_max":940,"o":"m 940 544 q 878 251 940 378 q 707 54 815 124 q 465 -15 599 -15 q 200 85 294 -15 q 106 360 106 185 q 161 649 106 522 q 323 846 217 775 q 578 917 429 917 q 851 813 761 917 q 940 544 940 708 m 736 585 q 694 753 736 690 q 568 817 653 817 q 308 313 308 817 q 351 144 308 206 q 475 83 394 83 q 665 203 593 83 q 736 585 736 322 m 375 -139 q 442 -114 404 -114 q 501 -139 478 -114 q 521 -192 521 -161 q 482 -275 521 -240 q 415 -299 450 -299 q 356 -275 376 -299 q 336 -221 336 -251 q 347 -177 336 -199 q 375 -139 357 -156 z "},"Ò":{"ha":921,"x_min":106,"x_max":940,"o":"m 568 1213 l 657 1008 l 568 985 l 414 1164 l 568 1213 m 940 544 q 878 251 940 378 q 707 54 815 124 q 465 -15 599 -15 q 200 85 294 -15 q 106 360 106 185 q 161 649 106 522 q 323 846 217 775 q 578 917 429 917 q 851 813 761 917 q 940 544 940 708 m 736 585 q 694 753 736 690 q 568 817 653 817 q 308 313 308 817 q 351 144 308 206 q 475 83 394 83 q 665 203 593 83 q 736 585 736 322 z "},"Ỏ":{"ha":921,"x_min":106,"x_max":940,"o":"m 940 544 q 878 251 940 378 q 707 54 815 124 q 465 -15 599 -15 q 200 85 294 -15 q 106 360 106 185 q 161 649 106 522 q 323 846 217 775 q 578 917 429 917 q 851 813 761 917 q 940 544 940 708 m 736 585 q 694 753 736 690 q 568 817 653 817 q 308 313 308 817 q 351 144 308 206 q 475 83 394 83 q 665 203 593 83 q 736 585 736 322 m 556 983 q 560 1013 556 988 q 567 1029 561 1022 q 581 1042 574 1036 q 592 1050 589 1047 q 617 1070 608 1061 q 629 1094 626 1079 q 631 1111 631 1101 q 585 1150 631 1150 q 553 1144 568 1150 q 530 1133 539 1139 q 519 1126 521 1128 l 489 1206 q 509 1216 493 1208 q 550 1231 525 1224 q 603 1239 575 1239 q 732 1144 732 1239 q 729 1111 732 1124 q 710 1069 724 1085 q 671 1032 696 1053 q 659 1022 668 1029 q 645 1009 650 1015 q 639 996 640 1003 l 636 985 l 556 983 z "},"Ơ":{"ha":921,"x_min":106,"x_max":940,"o":"m 807 851 q 908 722 875 803 q 940 544 940 642 q 878 251 940 378 q 707 54 815 124 q 465 -15 599 -15 q 200 85 294 -15 q 106 360 106 185 q 161 649 106 522 q 323 846 217 775 q 578 917 429 917 q 694 903 644 917 q 769 935 739 906 q 811 1026 799 964 l 932 1026 q 888 924 921 969 q 807 851 856 878 m 475 83 q 665 203 593 83 q 736 585 736 322 q 694 753 736 690 q 568 817 653 817 q 308 313 308 817 q 351 144 308 206 q 475 83 394 83 z "},"Ớ":{"ha":921,"x_min":106,"x_max":940,"o":"m 807 851 q 908 722 875 803 q 940 544 940 642 q 878 251 940 378 q 707 54 815 124 q 465 -15 599 -15 q 200 85 294 -15 q 106 360 106 185 q 161 649 106 522 q 323 846 217 775 q 578 917 429 917 q 694 903 644 917 q 769 935 739 906 q 811 1026 799 964 l 932 1026 q 888 924 921 969 q 807 851 856 878 m 475 83 q 665 203 593 83 q 736 585 736 322 q 694 753 736 690 q 568 817 653 817 q 308 313 308 817 q 351 144 308 206 q 475 83 394 83 m 749 1179 l 556 999 l 478 1011 l 604 1222 l 749 1179 z "},"Ợ":{"ha":921,"x_min":106,"x_max":940,"o":"m 807 851 q 908 722 875 803 q 940 544 940 642 q 878 251 940 378 q 707 54 815 124 q 465 -15 599 -15 q 200 85 294 -15 q 106 360 106 185 q 161 649 106 522 q 323 846 217 775 q 578 917 429 917 q 694 903 644 917 q 769 935 739 906 q 811 1026 799 964 l 932 1026 q 888 924 921 969 q 807 851 856 878 m 475 83 q 665 203 593 83 q 736 585 736 322 q 694 753 736 690 q 568 817 653 817 q 308 313 308 817 q 351 144 308 206 q 475 83 394 83 m 375 -139 q 442 -114 404 -114 q 501 -139 478 -114 q 521 -192 521 -161 q 482 -275 521 -240 q 415 -299 450 -299 q 356 -275 376 -299 q 336 -221 336 -251 q 347 -177 336 -199 q 375 -139 357 -156 z "},"Ờ":{"ha":921,"x_min":106,"x_max":940,"o":"m 807 851 q 908 722 875 803 q 940 544 940 642 q 878 251 940 378 q 707 54 815 124 q 465 -15 599 -15 q 200 85 294 -15 q 106 360 106 185 q 161 649 106 522 q 323 846 217 775 q 578 917 429 917 q 694 903 644 917 q 769 935 739 906 q 811 1026 799 964 l 932 1026 q 888 924 921 969 q 807 851 856 878 m 475 83 q 665 203 593 83 q 736 585 736 322 q 694 753 736 690 q 568 817 653 817 q 308 313 308 817 q 351 144 308 206 q 475 83 394 83 m 647 1233 l 736 1029 l 647 1006 l 493 1185 l 647 1233 z "},"Ở":{"ha":921,"x_min":106,"x_max":940,"o":"m 807 851 q 908 722 875 803 q 940 544 940 642 q 878 251 940 378 q 707 54 815 124 q 465 -15 599 -15 q 200 85 294 -15 q 106 360 106 185 q 161 649 106 522 q 323 846 217 775 q 578 917 429 917 q 694 903 644 917 q 769 935 739 906 q 811 1026 799 964 l 932 1026 q 888 924 921 969 q 807 851 856 878 m 475 83 q 665 203 593 83 q 736 585 736 322 q 694 753 736 690 q 568 817 653 817 q 308 313 308 817 q 351 144 308 206 q 475 83 394 83 m 556 983 q 560 1013 556 988 q 567 1029 561 1022 q 581 1042 574 1036 q 592 1050 589 1047 q 617 1070 608 1061 q 629 1094 626 1079 q 631 1111 631 1101 q 585 1150 631 1150 q 553 1144 568 1150 q 530 1133 539 1139 q 519 1126 521 1128 l 489 1206 q 509 1216 493 1208 q 550 1231 525 1224 q 603 1239 575 1239 q 732 1144 732 1239 q 729 1111 732 1124 q 710 1069 724 1085 q 671 1032 696 1053 q 659 1022 668 1029 q 645 1009 650 1015 q 639 996 640 1003 l 636 985 l 556 983 z "},"Ỡ":{"ha":921,"x_min":106,"x_max":940,"o":"m 807 851 q 908 722 875 803 q 940 544 940 642 q 878 251 940 378 q 707 54 815 124 q 465 -15 599 -15 q 200 85 294 -15 q 106 360 106 185 q 161 649 106 522 q 323 846 217 775 q 578 917 429 917 q 694 903 644 917 q 769 935 739 906 q 811 1026 799 964 l 932 1026 q 888 924 921 969 q 807 851 856 878 m 475 83 q 665 203 593 83 q 736 585 736 322 q 694 753 736 690 q 568 817 653 817 q 308 313 308 817 q 351 144 308 206 q 475 83 394 83 m 869 1139 q 849 1106 869 1135 q 790 1053 828 1078 q 699 1029 753 1029 q 646 1038 668 1029 q 589 1064 624 1046 q 540 1088 561 1079 q 492 1096 518 1096 q 450 1082 469 1096 q 419 1053 431 1068 q 404 1033 407 1038 l 361 1083 q 387 1120 361 1088 q 454 1181 413 1153 q 549 1208 496 1208 q 610 1199 585 1208 q 668 1172 635 1190 q 712 1150 694 1157 q 751 1143 729 1143 q 790 1153 774 1143 q 816 1174 807 1163 q 826 1188 825 1185 l 869 1139 z "},"Ő":{"ha":921,"x_min":106,"x_max":940,"o":"m 528 1213 l 651 1176 l 490 968 l 425 1000 l 528 1213 m 744 1213 l 868 1176 l 707 968 l 640 1000 l 744 1213 m 940 544 q 878 251 940 378 q 707 54 815 124 q 465 -15 599 -15 q 200 85 294 -15 q 106 360 106 185 q 161 649 106 522 q 323 846 217 775 q 578 917 429 917 q 851 813 761 917 q 940 544 940 708 m 736 585 q 694 753 736 690 q 568 817 653 817 q 308 313 308 817 q 351 144 308 206 q 475 83 394 83 q 665 203 593 83 q 736 585 736 322 z "},"Ō":{"ha":921,"x_min":106,"x_max":940,"o":"m 742 1054 l 443 1054 l 454 1135 l 751 1135 l 742 1054 m 940 544 q 878 251 940 378 q 707 54 815 124 q 465 -15 599 -15 q 200 85 294 -15 q 106 360 106 185 q 161 649 106 522 q 323 846 217 775 q 578 917 429 917 q 851 813 761 917 q 940 544 940 708 m 736 585 q 694 753 736 690 q 568 817 653 817 q 308 313 308 817 q 351 144 308 206 q 475 83 394 83 q 665 203 593 83 q 736 585 736 322 z "},"Ø":{"ha":921,"x_min":106,"x_max":940,"o":"m 940 544 q 878 251 940 378 q 707 54 815 124 q 465 -15 599 -15 q 321 7 390 -15 l 233 -149 l 178 -133 l 269 31 q 147 159 189 75 q 106 360 106 243 q 161 649 106 522 q 323 846 217 775 q 578 917 429 917 q 751 883 674 917 l 822 1008 l 878 993 l 800 856 q 906 726 871 807 q 940 544 940 644 m 308 313 q 342 158 308 217 l 685 765 q 568 817 642 817 q 308 313 308 817 m 736 585 q 717 708 736 653 l 381 113 q 475 83 418 83 q 665 203 593 83 q 736 585 736 322 z "},"Õ":{"ha":921,"x_min":106,"x_max":940,"o":"m 858 1118 q 838 1085 858 1114 q 779 1033 817 1057 q 688 1008 742 1008 q 635 1017 657 1008 q 578 1043 613 1025 q 528 1067 550 1058 q 481 1075 507 1075 q 439 1061 458 1075 q 408 1032 419 1047 q 393 1013 396 1017 l 350 1063 q 376 1099 350 1067 q 443 1160 401 1132 q 538 1188 485 1188 q 599 1178 574 1188 q 657 1151 624 1169 q 701 1129 683 1136 q 740 1122 718 1122 q 779 1132 763 1122 q 805 1153 796 1142 q 815 1167 814 1164 l 858 1118 m 940 544 q 878 251 940 378 q 707 54 815 124 q 465 -15 599 -15 q 200 85 294 -15 q 106 360 106 185 q 161 649 106 522 q 323 846 217 775 q 578 917 429 917 q 851 813 761 917 q 940 544 940 708 m 736 585 q 694 753 736 690 q 568 817 653 817 q 308 313 308 817 q 351 144 308 206 q 475 83 394 83 q 665 203 593 83 q 736 585 736 322 z "},"Œ":{"ha":1290,"x_min":106,"x_max":1338,"o":"m 939 506 l 1240 506 l 1226 408 l 928 408 q 906 319 919 358 l 875 100 l 1244 100 l 1231 0 l 668 0 l 672 33 q 465 -15 578 -15 q 200 85 294 -15 q 106 360 106 185 q 161 649 106 522 q 323 846 217 775 q 578 917 429 917 q 789 863 704 917 l 794 903 l 1338 903 l 1324 803 l 974 803 l 940 564 l 940 544 l 939 506 m 736 585 q 694 753 736 690 q 568 817 653 817 q 308 313 308 817 q 351 144 308 206 q 475 83 394 83 q 630 154 565 83 q 721 378 694 225 l 728 429 l 728 436 q 736 585 736 503 z "},"P":{"ha":740,"x_min":107,"x_max":797,"o":"m 510 903 q 722 841 647 903 q 797 654 797 779 q 741 444 797 528 q 600 322 685 361 q 428 282 515 282 l 339 282 l 299 0 l 107 0 l 233 903 l 510 903 m 351 371 l 418 371 q 544 442 496 371 q 593 674 593 514 q 564 780 593 747 q 481 813 535 813 l 414 813 l 351 371 z "},"Þ":{"ha":781,"x_min":136,"x_max":814,"o":"m 528 778 q 740 715 665 778 q 814 522 814 653 q 757 302 814 390 q 615 172 700 214 q 442 129 529 129 l 346 129 l 328 0 l 136 0 l 263 903 l 454 903 l 436 778 l 528 778 m 358 222 l 440 222 q 570 295 521 222 q 619 538 619 368 q 591 649 619 617 q 506 682 563 682 l 424 682 l 358 222 z "},"Q":{"ha":921,"x_min":106,"x_max":940,"o":"m 940 544 q 894 287 940 401 q 764 98 847 172 q 575 -1 681 24 q 735 -183 635 -183 q 779 -175 757 -183 l 776 -260 q 692 -275 731 -275 q 509 -199 590 -275 q 396 -10 428 -122 q 181 106 256 8 q 106 360 106 203 q 161 649 106 522 q 323 846 217 775 q 578 917 429 917 q 851 813 761 917 q 940 544 940 708 m 736 585 q 694 753 736 690 q 568 817 653 817 q 308 313 308 817 q 351 144 308 206 q 475 83 394 83 q 665 203 593 83 q 736 585 736 322 z "},"R":{"ha":803,"x_min":107,"x_max":801,"o":"m 511 903 q 725 842 649 903 q 801 667 801 781 q 747 485 801 561 q 604 367 692 408 l 763 0 l 542 0 l 418 328 l 344 328 l 299 0 l 107 0 l 233 903 l 511 903 m 357 419 l 429 419 q 556 485 515 419 q 597 683 597 550 q 568 781 597 749 q 479 813 539 813 l 413 813 l 357 419 z "},"Ŕ":{"ha":803,"x_min":107,"x_max":801,"o":"m 713 1158 l 519 978 l 442 990 l 568 1201 l 713 1158 m 511 903 q 725 842 649 903 q 801 667 801 781 q 747 485 801 561 q 604 367 692 408 l 763 0 l 542 0 l 418 328 l 344 328 l 299 0 l 107 0 l 233 903 l 511 903 m 357 419 l 429 419 q 556 485 515 419 q 597 683 597 550 q 568 781 597 749 q 479 813 539 813 l 413 813 l 357 419 z "},"Ř":{"ha":803,"x_min":107,"x_max":801,"o":"m 332 1174 l 397 1222 l 529 1093 l 697 1222 l 749 1168 l 563 982 l 465 982 l 332 1174 m 511 903 q 725 842 649 903 q 801 667 801 781 q 747 485 801 561 q 604 367 692 408 l 763 0 l 542 0 l 418 328 l 344 328 l 299 0 l 107 0 l 233 903 l 511 903 m 357 419 l 429 419 q 556 485 515 419 q 597 683 597 550 q 568 781 597 749 q 479 813 539 813 l 413 813 l 357 419 z "},"Ŗ":{"ha":803,"x_min":107,"x_max":801,"o":"m 511 903 q 725 842 649 903 q 801 667 801 781 q 747 485 801 561 q 604 367 692 408 l 763 0 l 542 0 l 418 328 l 344 328 l 299 0 l 107 0 l 233 903 l 511 903 m 357 419 l 429 419 q 556 485 515 419 q 597 683 597 550 q 568 781 597 749 q 479 813 539 813 l 413 813 l 357 419 m 339 -86 q 401 -64 365 -64 q 458 -86 436 -64 q 486 -171 486 -119 q 433 -333 486 -246 q 304 -471 381 -419 l 269 -428 q 355 -333 325 -383 q 386 -236 385 -283 l 376 -236 q 321 -214 343 -236 q 303 -164 303 -192 q 312 -122 303 -143 q 339 -86 321 -101 z "},"S":{"ha":683,"x_min":61,"x_max":711,"o":"m 681 758 q 649 777 674 763 q 584 806 624 792 q 501 819 544 819 q 405 786 442 819 q 368 693 368 753 q 401 609 368 643 q 500 532 433 575 q 590 465 556 494 q 649 392 625 436 q 674 286 674 347 q 626 124 674 192 q 501 20 579 56 q 331 -15 422 -15 q 183 13 243 -15 q 92 73 124 40 q 61 111 61 106 l 125 192 q 150 160 125 188 q 219 110 175 133 q 322 88 263 88 q 435 126 397 88 q 474 225 474 165 q 443 300 474 269 q 349 371 413 331 q 256 436 292 407 q 195 511 221 465 q 169 621 169 557 q 213 778 169 711 q 333 881 257 844 q 503 917 408 917 q 604 903 558 917 q 681 872 650 889 q 711 853 711 854 l 681 758 z "},"Ś":{"ha":683,"x_min":61,"x_max":711,"o":"m 708 1158 l 515 978 l 438 990 l 564 1201 l 708 1158 m 681 758 q 649 777 674 763 q 584 806 624 792 q 501 819 544 819 q 405 786 442 819 q 368 693 368 753 q 401 609 368 643 q 500 532 433 575 q 590 465 556 494 q 649 392 625 436 q 674 286 674 347 q 626 124 674 192 q 501 20 579 56 q 331 -15 422 -15 q 183 13 243 -15 q 92 73 124 40 q 61 111 61 106 l 125 192 q 150 160 125 188 q 219 110 175 133 q 322 88 263 88 q 435 126 397 88 q 474 225 474 165 q 443 300 474 269 q 349 371 413 331 q 256 436 292 407 q 195 511 221 465 q 169 621 169 557 q 213 778 169 711 q 333 881 257 844 q 503 917 408 917 q 604 903 558 917 q 681 872 650 889 q 711 853 711 854 l 681 758 z "},"Š":{"ha":683,"x_min":61,"x_max":740,"o":"m 324 1174 l 389 1222 l 521 1093 l 689 1222 l 740 1168 l 554 982 l 457 982 l 324 1174 m 681 758 q 649 777 674 763 q 584 806 624 792 q 501 819 544 819 q 405 786 442 819 q 368 693 368 753 q 401 609 368 643 q 500 532 433 575 q 590 465 556 494 q 649 392 625 436 q 674 286 674 347 q 626 124 674 192 q 501 20 579 56 q 331 -15 422 -15 q 183 13 243 -15 q 92 73 124 40 q 61 111 61 106 l 125 192 q 150 160 125 188 q 219 110 175 133 q 322 88 263 88 q 435 126 397 88 q 474 225 474 165 q 443 300 474 269 q 349 371 413 331 q 256 436 292 407 q 195 511 221 465 q 169 621 169 557 q 213 778 169 711 q 333 881 257 844 q 503 917 408 917 q 604 903 558 917 q 681 872 650 889 q 711 853 711 854 l 681 758 z "},"Ş":{"ha":683,"x_min":61,"x_max":711,"o":"m 681 758 q 649 777 674 763 q 584 806 624 792 q 501 819 544 819 q 405 786 442 819 q 368 693 368 753 q 401 609 368 643 q 500 532 433 575 q 590 465 556 494 q 649 392 625 436 q 674 286 674 347 q 631 130 674 196 q 517 28 589 64 q 358 -14 444 -8 l 344 -81 q 373 -93 344 -82 q 426 -128 401 -104 q 450 -193 450 -151 q 403 -305 450 -261 q 269 -349 357 -349 q 197 -335 224 -349 q 158 -305 169 -321 q 146 -285 146 -289 l 188 -244 q 197 -257 189 -247 q 219 -276 204 -267 q 257 -285 235 -285 q 340 -197 340 -285 q 322 -158 340 -169 q 284 -142 303 -146 q 265 -136 265 -137 l 296 -14 q 167 19 219 -8 q 88 77 115 47 q 61 111 61 107 l 125 192 q 150 160 125 188 q 219 110 175 133 q 322 88 263 88 q 435 126 397 88 q 474 225 474 165 q 443 300 474 269 q 349 371 413 331 q 256 436 292 407 q 195 511 221 465 q 169 621 169 557 q 213 778 169 711 q 333 881 257 844 q 503 917 408 917 q 604 903 558 917 q 681 872 650 889 q 711 853 711 854 l 681 758 z "},"ẞ":{"ha":914,"x_min":110,"x_max":904,"o":"m 654 519 q 685 522 674 522 q 843 468 782 522 q 904 313 904 414 q 858 135 904 210 q 736 23 813 61 q 569 -15 660 -15 q 467 -3 508 -15 q 403 24 425 10 q 382 40 382 38 l 429 132 q 448 119 433 129 q 490 99 463 108 q 553 89 518 89 q 671 153 629 89 q 713 338 713 217 q 638 435 713 435 q 572 397 606 435 l 569 393 l 568 390 l 482 471 l 692 803 l 585 803 q 447 744 496 803 q 378 538 399 685 l 301 0 l 110 0 l 190 575 q 308 819 214 735 q 567 903 401 903 l 874 903 l 864 838 l 654 519 z "},"T":{"ha":717,"x_min":132,"x_max":825,"o":"m 810 803 l 568 803 l 456 0 l 263 0 l 375 803 l 132 803 l 147 903 l 825 903 l 810 803 z "},"Ť":{"ha":717,"x_min":132,"x_max":825,"o":"m 313 1174 l 378 1222 l 510 1093 l 678 1222 l 729 1168 l 543 982 l 446 982 l 313 1174 m 810 803 l 568 803 l 456 0 l 263 0 l 375 803 l 132 803 l 147 903 l 825 903 l 810 803 z "},"Ț":{"ha":717,"x_min":132,"x_max":825,"o":"m 810 803 l 568 803 l 456 0 l 263 0 l 375 803 l 132 803 l 147 903 l 825 903 l 810 803 m 296 -86 q 358 -64 322 -64 q 415 -86 393 -64 q 443 -171 443 -119 q 390 -333 443 -246 q 261 -471 338 -419 l 226 -428 q 312 -333 282 -383 q 343 -236 342 -283 l 333 -236 q 278 -214 300 -236 q 260 -164 260 -192 q 269 -122 260 -143 q 296 -86 278 -101 z "},"U":{"ha":853,"x_min":135,"x_max":883,"o":"m 424 -15 q 207 55 279 -15 q 135 254 135 125 q 140 328 135 293 l 221 903 l 414 903 l 339 371 q 331 267 331 313 q 365 132 331 174 q 469 90 399 90 q 617 158 563 90 q 690 371 671 226 l 765 903 l 883 903 l 803 328 q 689 74 779 164 q 424 -15 599 -15 z "},"Ú":{"ha":853,"x_min":135,"x_max":883,"o":"m 772 1158 l 579 978 l 501 990 l 628 1201 l 772 1158 m 424 -15 q 207 55 279 -15 q 135 254 135 125 q 140 328 135 293 l 221 903 l 414 903 l 339 371 q 331 267 331 313 q 365 132 331 174 q 469 90 399 90 q 617 158 563 90 q 690 371 671 226 l 765 903 l 883 903 l 803 328 q 689 74 779 164 q 424 -15 599 -15 z "},"Û":{"ha":853,"x_min":135,"x_max":883,"o":"m 778 1064 l 731 1001 l 603 1119 l 440 1001 l 410 1064 l 569 1233 l 667 1233 l 778 1064 m 424 -15 q 207 55 279 -15 q 135 254 135 125 q 140 328 135 293 l 221 903 l 414 903 l 339 371 q 331 267 331 313 q 365 132 331 174 q 469 90 399 90 q 617 158 563 90 q 690 371 671 226 l 765 903 l 883 903 l 803 328 q 689 74 779 164 q 424 -15 599 -15 z "},"Ü":{"ha":853,"x_min":135,"x_max":883,"o":"m 414 1165 q 482 1189 444 1189 q 542 1165 518 1189 q 561 1108 561 1139 q 521 1021 561 1057 q 454 996 490 996 q 394 1021 417 996 q 375 1078 375 1044 q 385 1124 375 1101 q 414 1165 396 1147 m 672 1165 q 739 1189 703 1189 q 800 1165 774 1189 q 819 1108 819 1139 q 779 1021 819 1057 q 711 996 749 996 q 653 1021 674 996 q 633 1078 633 1044 q 644 1124 633 1101 q 672 1165 654 1147 m 424 -15 q 207 55 279 -15 q 135 254 135 125 q 140 328 135 293 l 221 903 l 414 903 l 339 371 q 331 267 331 313 q 365 132 331 174 q 469 90 399 90 q 617 158 563 90 q 690 371 671 226 l 765 903 l 883 903 l 803 328 q 689 74 779 164 q 424 -15 599 -15 z "},"Ụ":{"ha":853,"x_min":135,"x_max":883,"o":"m 424 -15 q 207 55 279 -15 q 135 254 135 125 q 140 328 135 293 l 221 903 l 414 903 l 339 371 q 331 267 331 313 q 365 132 331 174 q 469 90 399 90 q 617 158 563 90 q 690 371 671 226 l 765 903 l 883 903 l 803 328 q 689 74 779 164 q 424 -15 599 -15 m 354 -139 q 421 -114 383 -114 q 481 -139 457 -114 q 500 -192 500 -161 q 461 -275 500 -240 q 394 -299 429 -299 q 335 -275 356 -299 q 315 -221 315 -251 q 326 -177 315 -199 q 354 -139 336 -156 z "},"Ù":{"ha":853,"x_min":135,"x_max":883,"o":"m 593 1213 l 682 1008 l 593 985 l 439 1164 l 593 1213 m 424 -15 q 207 55 279 -15 q 135 254 135 125 q 140 328 135 293 l 221 903 l 414 903 l 339 371 q 331 267 331 313 q 365 132 331 174 q 469 90 399 90 q 617 158 563 90 q 690 371 671 226 l 765 903 l 883 903 l 803 328 q 689 74 779 164 q 424 -15 599 -15 z "},"Ủ":{"ha":853,"x_min":135,"x_max":883,"o":"m 424 -15 q 207 55 279 -15 q 135 254 135 125 q 140 328 135 293 l 221 903 l 414 903 l 339 371 q 331 267 331 313 q 365 132 331 174 q 469 90 399 90 q 617 158 563 90 q 690 371 671 226 l 765 903 l 883 903 l 803 328 q 689 74 779 164 q 424 -15 599 -15 m 560 983 q 564 1013 560 988 q 572 1029 565 1022 q 585 1042 578 1036 q 596 1050 593 1047 q 622 1070 613 1061 q 633 1094 631 1079 q 635 1111 635 1101 q 589 1150 635 1150 q 558 1144 572 1150 q 534 1133 543 1139 q 524 1126 525 1128 l 493 1206 q 513 1216 497 1208 q 554 1231 529 1224 q 607 1239 579 1239 q 736 1144 736 1239 q 733 1111 736 1124 q 714 1069 728 1085 q 675 1032 700 1053 q 663 1022 672 1029 q 649 1009 654 1015 q 643 996 644 1003 l 640 985 l 560 983 z "},"Ư":{"ha":853,"x_min":135,"x_max":1044,"o":"m 1044 1026 q 985 904 1031 956 q 874 831 940 853 l 803 328 q 689 74 779 164 q 424 -15 599 -15 q 207 55 279 -15 q 135 254 135 125 q 140 328 135 293 l 221 903 l 414 903 l 339 371 q 331 267 331 313 q 365 132 331 174 q 469 90 399 90 q 617 158 563 90 q 690 371 671 226 l 765 903 l 800 903 q 878 932 847 903 q 924 1026 910 961 l 1044 1026 z "},"Ứ":{"ha":853,"x_min":135,"x_max":1044,"o":"m 1044 1026 q 985 904 1031 956 q 874 831 940 853 l 803 328 q 689 74 779 164 q 424 -15 599 -15 q 207 55 279 -15 q 135 254 135 125 q 140 328 135 293 l 221 903 l 414 903 l 339 371 q 331 267 331 313 q 365 132 331 174 q 469 90 399 90 q 617 158 563 90 q 690 371 671 226 l 765 903 l 800 903 q 878 932 847 903 q 924 1026 910 961 l 1044 1026 m 753 1179 l 560 999 l 482 1011 l 608 1222 l 753 1179 z "},"Ự":{"ha":853,"x_min":135,"x_max":1044,"o":"m 1044 1026 q 985 904 1031 956 q 874 831 940 853 l 803 328 q 689 74 779 164 q 424 -15 599 -15 q 207 55 279 -15 q 135 254 135 125 q 140 328 135 293 l 221 903 l 414 903 l 339 371 q 331 267 331 313 q 365 132 331 174 q 469 90 399 90 q 617 158 563 90 q 690 371 671 226 l 765 903 l 800 903 q 878 932 847 903 q 924 1026 910 961 l 1044 1026 m 354 -139 q 421 -114 383 -114 q 481 -139 457 -114 q 500 -192 500 -161 q 461 -275 500 -240 q 394 -299 429 -299 q 335 -275 356 -299 q 315 -221 315 -251 q 326 -177 315 -199 q 354 -139 336 -156 z "},"Ừ":{"ha":853,"x_min":135,"x_max":1044,"o":"m 1044 1026 q 985 904 1031 956 q 874 831 940 853 l 803 328 q 689 74 779 164 q 424 -15 599 -15 q 207 55 279 -15 q 135 254 135 125 q 140 328 135 293 l 221 903 l 414 903 l 339 371 q 331 267 331 313 q 365 132 331 174 q 469 90 399 90 q 617 158 563 90 q 690 371 671 226 l 765 903 l 800 903 q 878 932 847 903 q 924 1026 910 961 l 1044 1026 m 651 1233 l 740 1029 l 651 1006 l 497 1185 l 651 1233 z "},"Ử":{"ha":853,"x_min":135,"x_max":1044,"o":"m 1044 1026 q 985 904 1031 956 q 874 831 940 853 l 803 328 q 689 74 779 164 q 424 -15 599 -15 q 207 55 279 -15 q 135 254 135 125 q 140 328 135 293 l 221 903 l 414 903 l 339 371 q 331 267 331 313 q 365 132 331 174 q 469 90 399 90 q 617 158 563 90 q 690 371 671 226 l 765 903 l 800 903 q 878 932 847 903 q 924 1026 910 961 l 1044 1026 m 560 983 q 564 1013 560 988 q 572 1029 565 1022 q 585 1042 578 1036 q 596 1050 593 1047 q 622 1070 613 1061 q 633 1094 631 1079 q 635 1111 635 1101 q 589 1150 635 1150 q 558 1144 572 1150 q 534 1133 543 1139 q 524 1126 525 1128 l 493 1206 q 513 1216 497 1208 q 554 1231 529 1224 q 607 1239 579 1239 q 736 1144 736 1239 q 733 1111 736 1124 q 714 1069 728 1085 q 675 1032 700 1053 q 663 1022 672 1029 q 649 1009 654 1015 q 643 996 644 1003 l 640 985 l 560 983 z "},"Ữ":{"ha":853,"x_min":135,"x_max":1044,"o":"m 1044 1026 q 985 904 1031 956 q 874 831 940 853 l 803 328 q 689 74 779 164 q 424 -15 599 -15 q 207 55 279 -15 q 135 254 135 125 q 140 328 135 293 l 221 903 l 414 903 l 339 371 q 331 267 331 313 q 365 132 331 174 q 469 90 399 90 q 617 158 563 90 q 690 371 671 226 l 765 903 l 800 903 q 878 932 847 903 q 924 1026 910 961 l 1044 1026 m 874 1139 q 853 1106 874 1135 q 794 1053 832 1078 q 703 1029 757 1029 q 650 1038 672 1029 q 593 1064 628 1046 q 544 1088 565 1079 q 496 1096 522 1096 q 454 1082 474 1096 q 423 1053 435 1068 q 408 1033 411 1038 l 365 1083 q 391 1120 365 1088 q 458 1181 417 1153 q 553 1208 500 1208 q 614 1199 589 1208 q 672 1172 639 1190 q 716 1150 699 1157 q 756 1143 733 1143 q 794 1153 778 1143 q 820 1174 811 1163 q 831 1188 829 1185 l 874 1139 z "},"Ű":{"ha":853,"x_min":135,"x_max":883,"o":"m 507 1213 l 631 1176 l 469 968 l 404 1000 l 507 1213 m 724 1213 l 847 1176 l 686 968 l 619 1000 l 724 1213 m 424 -15 q 207 55 279 -15 q 135 254 135 125 q 140 328 135 293 l 221 903 l 414 903 l 339 371 q 331 267 331 313 q 365 132 331 174 q 469 90 399 90 q 617 158 563 90 q 690 371 671 226 l 765 903 l 883 903 l 803 328 q 689 74 779 164 q 424 -15 599 -15 z "},"Ū":{"ha":853,"x_min":135,"x_max":883,"o":"m 738 1054 l 439 1054 l 450 1135 l 747 1135 l 738 1054 m 424 -15 q 207 55 279 -15 q 135 254 135 125 q 140 328 135 293 l 221 903 l 414 903 l 339 371 q 331 267 331 313 q 365 132 331 174 q 469 90 399 90 q 617 158 563 90 q 690 371 671 226 l 765 903 l 883 903 l 803 328 q 689 74 779 164 q 424 -15 599 -15 z "},"Ų":{"ha":853,"x_min":135,"x_max":883,"o":"m 424 -15 q 207 55 279 -15 q 135 254 135 125 q 140 328 135 293 l 221 903 l 414 903 l 339 371 q 331 267 331 313 q 365 132 331 174 q 469 90 399 90 q 617 158 563 90 q 690 371 671 226 l 765 903 l 883 903 l 803 328 q 543 -1 764 50 q 460 -76 497 -26 q 424 -206 424 -125 q 448 -263 424 -247 q 519 -279 472 -279 l 510 -347 q 357 -318 413 -347 q 301 -211 301 -289 q 428 -15 301 -106 l 424 -15 z "},"Ů":{"ha":853,"x_min":135,"x_max":883,"o":"m 736 1121 q 690 996 736 1043 q 571 949 643 949 q 476 982 511 949 q 442 1075 442 1015 q 488 1201 442 1154 q 607 1247 535 1247 q 700 1213 664 1247 q 736 1121 736 1179 m 674 1115 q 653 1170 674 1151 q 600 1189 632 1189 q 532 1162 558 1189 q 506 1083 506 1135 q 526 1028 506 1047 q 579 1008 546 1008 q 648 1036 622 1008 q 674 1115 674 1064 m 424 -15 q 207 55 279 -15 q 135 254 135 125 q 140 328 135 293 l 221 903 l 414 903 l 339 371 q 331 267 331 313 q 365 132 331 174 q 469 90 399 90 q 617 158 563 90 q 690 371 671 226 l 765 903 l 883 903 l 803 328 q 689 74 779 164 q 424 -15 599 -15 z "},"Ũ":{"ha":853,"x_min":135,"x_max":883,"o":"m 424 -15 q 207 55 279 -15 q 135 254 135 125 q 140 328 135 293 l 221 903 l 414 903 l 339 371 q 331 267 331 313 q 365 132 331 174 q 469 90 399 90 q 617 158 563 90 q 690 371 671 226 l 765 903 l 883 903 l 803 328 q 689 74 779 164 q 424 -15 599 -15 m 874 1139 q 853 1106 874 1135 q 794 1053 832 1078 q 703 1029 757 1029 q 650 1038 672 1029 q 593 1064 628 1046 q 544 1088 565 1079 q 496 1096 522 1096 q 454 1082 474 1096 q 423 1053 435 1068 q 408 1033 411 1038 l 365 1083 q 391 1120 365 1088 q 458 1181 417 1153 q 553 1208 500 1208 q 614 1199 589 1208 q 672 1172 639 1190 q 716 1150 699 1157 q 756 1143 733 1143 q 794 1153 778 1143 q 820 1174 811 1163 q 831 1188 829 1185 l 874 1139 z "},"V":{"ha":800,"x_min":139,"x_max":913,"o":"m 283 0 l 139 903 l 342 903 l 449 140 l 453 140 l 792 903 l 913 903 l 496 0 l 283 0 z "},"W":{"ha":1213,"x_min":139,"x_max":1325,"o":"m 1325 903 l 963 0 l 799 0 l 703 667 l 699 667 l 419 0 l 253 0 l 139 903 l 343 903 l 414 219 l 417 219 l 697 903 l 851 903 l 947 224 l 950 224 l 1203 903 l 1325 903 z "},"X":{"ha":807,"x_min":11,"x_max":890,"o":"m 353 439 l 150 903 l 390 903 l 511 579 l 515 579 l 754 903 l 890 903 l 569 486 l 796 0 l 557 0 l 411 344 l 408 344 l 156 0 l 11 0 l 353 439 z "},"Y":{"ha":726,"x_min":117,"x_max":861,"o":"m 475 493 l 728 903 l 861 903 l 514 371 l 464 0 l 271 0 l 319 349 l 117 903 l 332 903 l 474 493 l 475 493 z "},"Ý":{"ha":726,"x_min":117,"x_max":861,"o":"m 726 1158 l 533 978 l 456 990 l 582 1201 l 726 1158 m 475 493 l 728 903 l 861 903 l 514 371 l 464 0 l 271 0 l 319 349 l 117 903 l 332 903 l 474 493 l 475 493 z "},"Ÿ":{"ha":726,"x_min":117,"x_max":861,"o":"m 357 1165 q 425 1189 388 1189 q 485 1165 461 1189 q 504 1108 504 1139 q 464 1021 504 1057 q 397 996 433 996 q 338 1021 360 996 q 318 1078 318 1044 q 328 1124 318 1101 q 357 1165 339 1147 m 615 1165 q 682 1189 646 1189 q 743 1165 717 1189 q 763 1108 763 1139 q 722 1021 763 1057 q 654 996 692 996 q 596 1021 617 996 q 576 1078 576 1044 q 587 1124 576 1101 q 615 1165 597 1147 m 475 493 l 728 903 l 861 903 l 514 371 l 464 0 l 271 0 l 319 349 l 117 903 l 332 903 l 474 493 l 475 493 z "},"Ỵ":{"ha":726,"x_min":117,"x_max":861,"o":"m 475 493 l 728 903 l 861 903 l 514 371 l 464 0 l 271 0 l 319 349 l 117 903 l 332 903 l 474 493 l 475 493 m 222 -139 q 289 -114 251 -114 q 349 -139 325 -114 q 368 -192 368 -161 q 329 -275 368 -240 q 263 -299 297 -299 q 203 -275 224 -299 q 183 -221 183 -251 q 194 -177 183 -199 q 222 -139 204 -156 z "},"Ỳ":{"ha":726,"x_min":117,"x_max":861,"o":"m 475 493 l 728 903 l 861 903 l 514 371 l 464 0 l 271 0 l 319 349 l 117 903 l 332 903 l 474 493 l 475 493 m 592 1233 l 681 1029 l 592 1006 l 438 1185 l 592 1233 z "},"Ỷ":{"ha":726,"x_min":117,"x_max":861,"o":"m 475 493 l 728 903 l 861 903 l 514 371 l 464 0 l 271 0 l 319 349 l 117 903 l 332 903 l 474 493 l 475 493 m 500 983 q 504 1013 500 988 q 512 1029 506 1022 q 526 1042 518 1036 q 536 1050 533 1047 q 562 1070 553 1061 q 574 1094 571 1079 q 575 1111 575 1101 q 529 1150 575 1150 q 498 1144 513 1150 q 474 1133 483 1139 q 464 1126 465 1128 l 433 1206 q 453 1216 438 1208 q 494 1231 469 1224 q 547 1239 519 1239 q 676 1144 676 1239 q 674 1111 676 1124 q 654 1069 668 1085 q 615 1032 640 1053 q 603 1022 613 1029 q 590 1009 594 1015 q 583 996 585 1003 l 581 985 l 500 983 z "},"Ỹ":{"ha":726,"x_min":117,"x_max":861,"o":"m 475 493 l 728 903 l 861 903 l 514 371 l 464 0 l 271 0 l 319 349 l 117 903 l 332 903 l 474 493 l 475 493 m 814 1139 q 793 1106 814 1135 q 735 1053 772 1078 q 643 1029 697 1029 q 590 1038 613 1029 q 533 1064 568 1046 q 484 1088 506 1079 q 436 1096 463 1096 q 394 1082 414 1096 q 363 1053 375 1068 q 349 1033 351 1038 l 306 1083 q 331 1120 306 1088 q 399 1181 357 1153 q 493 1208 440 1208 q 554 1199 529 1208 q 613 1172 579 1190 q 656 1150 639 1157 q 696 1143 674 1143 q 735 1153 718 1143 q 760 1174 751 1163 q 771 1188 769 1185 l 814 1139 z "},"Z":{"ha":788,"x_min":58,"x_max":851,"o":"m 839 819 l 304 100 l 738 100 l 724 0 l 58 0 l 71 81 l 607 803 l 196 803 l 210 903 l 851 903 l 839 819 z "},"Ź":{"ha":788,"x_min":58,"x_max":851,"o":"m 728 1158 l 535 978 l 457 990 l 583 1201 l 728 1158 m 839 819 l 304 100 l 738 100 l 724 0 l 58 0 l 71 81 l 607 803 l 196 803 l 210 903 l 851 903 l 839 819 z "},"Ž":{"ha":788,"x_min":58,"x_max":851,"o":"m 350 1174 l 415 1222 l 547 1093 l 715 1222 l 767 1168 l 581 982 l 483 982 l 350 1174 m 839 819 l 304 100 l 738 100 l 724 0 l 58 0 l 71 81 l 607 803 l 196 803 l 210 903 l 851 903 l 839 819 z "},"Ż":{"ha":788,"x_min":58,"x_max":851,"o":"m 472 1171 q 549 1199 504 1199 q 617 1172 592 1199 q 638 1110 638 1146 q 626 1058 638 1083 q 594 1013 615 1032 q 518 986 560 986 q 450 1014 474 986 q 428 1076 428 1038 q 440 1127 428 1101 q 472 1171 451 1153 m 839 819 l 304 100 l 738 100 l 724 0 l 58 0 l 71 81 l 607 803 l 196 803 l 210 903 l 851 903 l 839 819 z "},"a":{"ha":753,"x_min":82,"x_max":769,"o":"m 531 0 l 508 61 l 507 61 q 488 38 507 57 q 428 1 469 18 q 325 -15 388 -15 q 149 62 215 -15 q 82 271 82 139 q 127 494 82 394 q 254 652 172 594 q 440 710 336 710 q 531 697 497 710 q 580 670 565 685 q 594 653 594 656 l 600 653 l 633 694 l 769 694 l 672 0 l 531 0 m 385 93 q 463 115 432 93 q 507 156 494 136 l 564 549 q 465 604 536 604 q 326 514 376 604 q 276 243 276 424 q 385 93 276 93 z "},"á":{"ha":753,"x_min":82,"x_max":769,"o":"m 718 971 l 525 790 l 447 803 l 574 1014 l 718 971 m 531 0 l 508 61 l 507 61 q 488 38 507 57 q 428 1 469 18 q 325 -15 388 -15 q 149 62 215 -15 q 82 271 82 139 q 127 494 82 394 q 254 652 172 594 q 440 710 336 710 q 531 697 497 710 q 580 670 565 685 q 594 653 594 656 l 600 653 l 633 694 l 769 694 l 672 0 l 531 0 m 385 93 q 463 115 432 93 q 507 156 494 136 l 564 549 q 465 604 536 604 q 326 514 376 604 q 276 243 276 424 q 385 93 276 93 z "},"ă":{"ha":753,"x_min":82,"x_max":769,"o":"m 522 883 q 600 900 572 883 q 638 935 628 917 q 649 960 649 954 l 650 965 l 740 953 q 724 899 740 939 q 655 820 707 858 q 507 782 603 782 q 360 829 399 782 q 322 931 322 876 q 323 945 322 939 q 324 953 324 951 l 417 965 l 417 960 q 435 911 417 939 q 522 883 453 883 m 531 0 l 508 61 l 507 61 q 488 38 507 57 q 428 1 469 18 q 325 -15 388 -15 q 149 62 215 -15 q 82 271 82 139 q 127 494 82 394 q 254 652 172 594 q 440 710 336 710 q 531 697 497 710 q 580 670 565 685 q 594 653 594 656 l 600 653 l 633 694 l 769 694 l 672 0 l 531 0 m 385 93 q 463 115 432 93 q 507 156 494 136 l 564 549 q 465 604 536 604 q 326 514 376 604 q 276 243 276 424 q 385 93 276 93 z "},"ắ":{"ha":753,"x_min":82,"x_max":769,"o":"m 531 0 l 508 61 l 507 61 q 488 38 507 57 q 428 1 469 18 q 325 -15 388 -15 q 149 62 215 -15 q 82 271 82 139 q 127 494 82 394 q 254 652 172 594 q 440 710 336 710 q 531 697 497 710 q 580 670 565 685 q 594 653 594 656 l 600 653 l 633 694 l 769 694 l 672 0 l 531 0 m 385 93 q 463 115 432 93 q 507 156 494 136 l 564 549 q 465 604 536 604 q 326 514 376 604 q 276 243 276 424 q 385 93 276 93 m 518 883 q 596 900 568 883 q 634 935 624 917 q 644 960 644 954 l 646 965 l 736 953 q 719 899 736 939 q 651 820 703 858 q 503 782 599 782 q 356 829 394 782 q 318 931 318 876 q 319 945 318 939 q 319 953 319 951 l 413 965 l 413 960 q 431 911 413 939 q 518 883 449 883 m 740 1150 l 547 969 l 469 982 l 596 1193 l 740 1150 z "},"ặ":{"ha":753,"x_min":82,"x_max":769,"o":"m 531 0 l 508 61 l 507 61 q 488 38 507 57 q 428 1 469 18 q 325 -15 388 -15 q 149 62 215 -15 q 82 271 82 139 q 127 494 82 394 q 254 652 172 594 q 440 710 336 710 q 531 697 497 710 q 580 670 565 685 q 594 653 594 656 l 600 653 l 633 694 l 769 694 l 672 0 l 531 0 m 385 93 q 463 115 432 93 q 507 156 494 136 l 564 549 q 465 604 536 604 q 326 514 376 604 q 276 243 276 424 q 385 93 276 93 m 290 -139 q 357 -114 319 -114 q 417 -139 393 -114 q 436 -192 436 -161 q 397 -275 436 -240 q 331 -299 365 -299 q 271 -275 292 -299 q 251 -221 251 -251 q 262 -177 251 -199 q 290 -139 272 -156 m 518 883 q 596 900 568 883 q 634 935 624 917 q 644 960 644 954 l 646 965 l 736 953 q 719 899 736 939 q 651 820 703 858 q 503 782 599 782 q 356 829 394 782 q 318 931 318 876 q 319 945 318 939 q 319 953 319 951 l 413 965 l 413 960 q 431 911 413 939 q 518 883 449 883 z "},"ằ":{"ha":753,"x_min":82,"x_max":769,"o":"m 531 0 l 508 61 l 507 61 q 488 38 507 57 q 428 1 469 18 q 325 -15 388 -15 q 149 62 215 -15 q 82 271 82 139 q 127 494 82 394 q 254 652 172 594 q 440 710 336 710 q 531 697 497 710 q 580 670 565 685 q 594 653 594 656 l 600 653 l 633 694 l 769 694 l 672 0 l 531 0 m 385 93 q 463 115 432 93 q 507 156 494 136 l 564 549 q 465 604 536 604 q 326 514 376 604 q 276 243 276 424 q 385 93 276 93 m 518 883 q 596 900 568 883 q 634 935 624 917 q 644 960 644 954 l 646 965 l 736 953 q 719 899 736 939 q 651 820 703 858 q 503 782 599 782 q 356 829 394 782 q 318 931 318 876 q 319 945 318 939 q 319 953 319 951 l 413 965 l 413 960 q 431 911 413 939 q 518 883 449 883 m 515 1217 l 604 1013 l 515 989 l 361 1168 l 515 1217 z "},"ẳ":{"ha":753,"x_min":82,"x_max":769,"o":"m 531 0 l 508 61 l 507 61 q 488 38 507 57 q 428 1 469 18 q 325 -15 388 -15 q 149 62 215 -15 q 82 271 82 139 q 127 494 82 394 q 254 652 172 594 q 440 710 336 710 q 531 697 497 710 q 580 670 565 685 q 594 653 594 656 l 600 653 l 633 694 l 769 694 l 672 0 l 531 0 m 385 93 q 463 115 432 93 q 507 156 494 136 l 564 549 q 465 604 536 604 q 326 514 376 604 q 276 243 276 424 q 385 93 276 93 m 518 883 q 596 900 568 883 q 634 935 624 917 q 644 960 644 954 l 646 965 l 736 953 q 719 899 736 939 q 651 820 703 858 q 503 782 599 782 q 356 829 394 782 q 318 931 318 876 q 319 945 318 939 q 319 953 319 951 l 413 965 l 413 960 q 431 911 413 939 q 518 883 449 883 m 482 969 q 486 999 482 974 q 494 1015 488 1008 q 508 1028 500 1022 q 518 1036 515 1033 q 544 1056 535 1047 q 556 1081 553 1065 q 557 1097 557 1088 q 511 1136 557 1136 q 480 1131 494 1136 q 456 1119 465 1125 q 446 1113 447 1114 l 415 1192 q 435 1202 419 1194 q 476 1217 451 1210 q 529 1225 501 1225 q 658 1131 658 1225 q 656 1097 658 1110 q 636 1055 650 1071 q 597 1018 622 1039 q 585 1008 594 1015 q 572 995 576 1001 q 565 982 567 989 l 563 971 l 482 969 z "},"ẵ":{"ha":753,"x_min":82,"x_max":814,"o":"m 531 0 l 508 61 l 507 61 q 488 38 507 57 q 428 1 469 18 q 325 -15 388 -15 q 149 62 215 -15 q 82 271 82 139 q 127 494 82 394 q 254 652 172 594 q 440 710 336 710 q 531 697 497 710 q 580 670 565 685 q 594 653 594 656 l 600 653 l 633 694 l 769 694 l 672 0 l 531 0 m 385 93 q 463 115 432 93 q 507 156 494 136 l 564 549 q 465 604 536 604 q 326 514 376 604 q 276 243 276 424 q 385 93 276 93 m 518 883 q 596 900 568 883 q 634 935 624 917 q 644 960 644 954 l 646 965 l 736 953 q 719 899 736 939 q 651 820 703 858 q 503 782 599 782 q 356 829 394 782 q 318 931 318 876 q 319 945 318 939 q 319 953 319 951 l 413 965 l 413 960 q 431 911 413 939 q 518 883 449 883 m 814 1131 q 793 1098 814 1126 q 735 1045 772 1069 q 643 1021 697 1021 q 590 1029 613 1021 q 533 1056 568 1038 q 484 1079 506 1071 q 436 1088 463 1088 q 394 1074 414 1088 q 363 1044 375 1060 q 349 1025 351 1029 l 306 1075 q 331 1112 306 1079 q 399 1172 357 1144 q 493 1200 440 1200 q 554 1191 529 1200 q 613 1164 579 1182 q 656 1142 639 1149 q 696 1135 674 1135 q 735 1144 718 1135 q 760 1165 751 1154 q 771 1179 769 1176 l 814 1131 z "},"â":{"ha":753,"x_min":82,"x_max":769,"o":"m 704 876 l 657 814 l 529 932 l 367 814 l 336 876 l 496 1046 l 593 1046 l 704 876 m 531 0 l 508 61 l 507 61 q 488 38 507 57 q 428 1 469 18 q 325 -15 388 -15 q 149 62 215 -15 q 82 271 82 139 q 127 494 82 394 q 254 652 172 594 q 440 710 336 710 q 531 697 497 710 q 580 670 565 685 q 594 653 594 656 l 600 653 l 633 694 l 769 694 l 672 0 l 531 0 m 385 93 q 463 115 432 93 q 507 156 494 136 l 564 549 q 465 604 536 604 q 326 514 376 604 q 276 243 276 424 q 385 93 276 93 z "},"ấ":{"ha":753,"x_min":82,"x_max":958,"o":"m 531 0 l 508 61 l 507 61 q 488 38 507 57 q 428 1 469 18 q 325 -15 388 -15 q 149 62 215 -15 q 82 271 82 139 q 127 494 82 394 q 254 652 172 594 q 440 710 336 710 q 531 697 497 710 q 580 670 565 685 q 594 653 594 656 l 600 653 l 633 694 l 769 694 l 672 0 l 531 0 m 385 93 q 463 115 432 93 q 507 156 494 136 l 564 549 q 465 604 536 604 q 326 514 376 604 q 276 243 276 424 q 385 93 276 93 m 703 825 l 656 763 l 528 881 l 365 763 l 335 825 l 494 994 l 592 994 l 703 825 m 958 1061 l 765 881 l 688 893 l 814 1104 l 958 1061 z "},"ậ":{"ha":753,"x_min":82,"x_max":769,"o":"m 531 0 l 508 61 l 507 61 q 488 38 507 57 q 428 1 469 18 q 325 -15 388 -15 q 149 62 215 -15 q 82 271 82 139 q 127 494 82 394 q 254 652 172 594 q 440 710 336 710 q 531 697 497 710 q 580 670 565 685 q 594 653 594 656 l 600 653 l 633 694 l 769 694 l 672 0 l 531 0 m 385 93 q 463 115 432 93 q 507 156 494 136 l 564 549 q 465 604 536 604 q 326 514 376 604 q 276 243 276 424 q 385 93 276 93 m 290 -139 q 357 -114 319 -114 q 417 -139 393 -114 q 436 -192 436 -161 q 397 -275 436 -240 q 331 -299 365 -299 q 271 -275 292 -299 q 251 -221 251 -251 q 262 -177 251 -199 q 290 -139 272 -156 m 703 825 l 656 763 l 528 881 l 365 763 l 335 825 l 494 994 l 592 994 l 703 825 z "},"ầ":{"ha":753,"x_min":82,"x_max":788,"o":"m 531 0 l 508 61 l 507 61 q 488 38 507 57 q 428 1 469 18 q 325 -15 388 -15 q 149 62 215 -15 q 82 271 82 139 q 127 494 82 394 q 254 652 172 594 q 440 710 336 710 q 531 697 497 710 q 580 670 565 685 q 594 653 594 656 l 600 653 l 633 694 l 769 694 l 672 0 l 531 0 m 385 93 q 463 115 432 93 q 507 156 494 136 l 564 549 q 465 604 536 604 q 326 514 376 604 q 276 243 276 424 q 385 93 276 93 m 703 825 l 656 763 l 528 881 l 365 763 l 335 825 l 494 994 l 592 994 l 703 825 m 699 1199 l 788 994 l 699 971 l 544 1150 l 699 1199 z "},"ẩ":{"ha":753,"x_min":82,"x_max":878,"o":"m 531 0 l 508 61 l 507 61 q 488 38 507 57 q 428 1 469 18 q 325 -15 388 -15 q 149 62 215 -15 q 82 271 82 139 q 127 494 82 394 q 254 652 172 594 q 440 710 336 710 q 531 697 497 710 q 580 670 565 685 q 594 653 594 656 l 600 653 l 633 694 l 769 694 l 672 0 l 531 0 m 385 93 q 463 115 432 93 q 507 156 494 136 l 564 549 q 465 604 536 604 q 326 514 376 604 q 276 243 276 424 q 385 93 276 93 m 703 825 l 656 763 l 528 881 l 365 763 l 335 825 l 494 994 l 592 994 l 703 825 m 701 919 q 706 949 701 924 q 713 965 707 958 q 727 978 719 972 q 738 986 735 983 q 763 1006 754 997 q 775 1031 772 1015 q 776 1047 776 1038 q 731 1086 776 1086 q 699 1081 714 1086 q 676 1069 685 1075 q 665 1063 667 1064 l 635 1142 q 655 1152 639 1144 q 696 1167 671 1160 q 749 1175 721 1175 q 878 1081 878 1175 q 875 1047 878 1060 q 856 1005 869 1021 q 817 968 842 989 q 805 958 814 965 q 791 945 796 951 q 785 932 786 939 l 782 921 l 701 919 z "},"ẫ":{"ha":753,"x_min":82,"x_max":833,"o":"m 531 0 l 508 61 l 507 61 q 488 38 507 57 q 428 1 469 18 q 325 -15 388 -15 q 149 62 215 -15 q 82 271 82 139 q 127 494 82 394 q 254 652 172 594 q 440 710 336 710 q 531 697 497 710 q 580 670 565 685 q 594 653 594 656 l 600 653 l 633 694 l 769 694 l 672 0 l 531 0 m 385 93 q 463 115 432 93 q 507 156 494 136 l 564 549 q 465 604 536 604 q 326 514 376 604 q 276 243 276 424 q 385 93 276 93 m 703 825 l 656 763 l 528 881 l 365 763 l 335 825 l 494 994 l 592 994 l 703 825 m 833 1163 q 813 1130 833 1158 q 754 1077 792 1101 q 663 1053 717 1053 q 610 1061 632 1053 q 553 1088 588 1069 q 503 1111 525 1103 q 456 1119 482 1119 q 414 1106 433 1119 q 383 1076 394 1092 q 368 1057 371 1061 l 325 1107 q 351 1144 325 1111 q 418 1204 376 1176 q 513 1232 460 1232 q 574 1223 549 1232 q 632 1196 599 1214 q 676 1174 658 1181 q 715 1167 693 1167 q 754 1176 738 1167 q 780 1197 771 1186 q 790 1211 789 1208 l 833 1163 z "},"ä":{"ha":753,"x_min":82,"x_max":769,"o":"m 339 978 q 407 1001 369 1001 q 467 978 443 1001 q 486 921 486 951 q 446 833 486 869 q 379 808 415 808 q 319 833 343 808 q 300 890 300 857 q 310 937 300 914 q 339 978 321 960 m 597 978 q 664 1001 628 1001 q 725 978 699 1001 q 744 921 744 951 q 704 833 744 869 q 636 808 674 808 q 578 833 599 808 q 558 890 558 857 q 569 937 558 914 q 597 978 579 960 m 531 0 l 508 61 l 507 61 q 488 38 507 57 q 428 1 469 18 q 325 -15 388 -15 q 149 62 215 -15 q 82 271 82 139 q 127 494 82 394 q 254 652 172 594 q 440 710 336 710 q 531 697 497 710 q 580 670 565 685 q 594 653 594 656 l 600 653 l 633 694 l 769 694 l 672 0 l 531 0 m 385 93 q 463 115 432 93 q 507 156 494 136 l 564 549 q 465 604 536 604 q 326 514 376 604 q 276 243 276 424 q 385 93 276 93 z "},"ạ":{"ha":753,"x_min":82,"x_max":769,"o":"m 531 0 l 508 61 l 507 61 q 488 38 507 57 q 428 1 469 18 q 325 -15 388 -15 q 149 62 215 -15 q 82 271 82 139 q 127 494 82 394 q 254 652 172 594 q 440 710 336 710 q 531 697 497 710 q 580 670 565 685 q 594 653 594 656 l 600 653 l 633 694 l 769 694 l 672 0 l 531 0 m 385 93 q 463 115 432 93 q 507 156 494 136 l 564 549 q 465 604 536 604 q 326 514 376 604 q 276 243 276 424 q 385 93 276 93 m 290 -139 q 357 -114 319 -114 q 417 -139 393 -114 q 436 -192 436 -161 q 397 -275 436 -240 q 331 -299 365 -299 q 271 -275 292 -299 q 251 -221 251 -251 q 262 -177 251 -199 q 290 -139 272 -156 z "},"à":{"ha":753,"x_min":82,"x_max":769,"o":"m 494 1025 l 583 821 l 494 797 l 340 976 l 494 1025 m 531 0 l 508 61 l 507 61 q 488 38 507 57 q 428 1 469 18 q 325 -15 388 -15 q 149 62 215 -15 q 82 271 82 139 q 127 494 82 394 q 254 652 172 594 q 440 710 336 710 q 531 697 497 710 q 580 670 565 685 q 594 653 594 656 l 600 653 l 633 694 l 769 694 l 672 0 l 531 0 m 385 93 q 463 115 432 93 q 507 156 494 136 l 564 549 q 465 604 536 604 q 326 514 376 604 q 276 243 276 424 q 385 93 276 93 z "},"ả":{"ha":753,"x_min":82,"x_max":769,"o":"m 531 0 l 508 61 l 507 61 q 488 38 507 57 q 428 1 469 18 q 325 -15 388 -15 q 149 62 215 -15 q 82 271 82 139 q 127 494 82 394 q 254 652 172 594 q 440 710 336 710 q 531 697 497 710 q 580 670 565 685 q 594 653 594 656 l 600 653 l 633 694 l 769 694 l 672 0 l 531 0 m 385 93 q 463 115 432 93 q 507 156 494 136 l 564 549 q 465 604 536 604 q 326 514 376 604 q 276 243 276 424 q 385 93 276 93 m 474 775 q 478 804 474 779 q 485 821 479 814 q 499 833 492 828 q 510 842 507 839 q 535 862 526 853 q 547 886 544 871 q 549 903 549 893 q 503 942 549 942 q 472 936 486 942 q 448 925 457 931 q 438 918 439 919 l 407 997 q 427 1008 411 1000 q 468 1023 443 1015 q 521 1031 493 1031 q 650 936 650 1031 q 647 903 650 915 q 628 860 642 876 q 589 824 614 844 q 577 814 586 821 q 563 801 568 807 q 557 788 558 794 l 554 776 l 474 775 z "},"ā":{"ha":753,"x_min":82,"x_max":769,"o":"m 672 867 l 374 867 l 385 947 l 682 947 l 672 867 m 531 0 l 508 61 l 507 61 q 488 38 507 57 q 428 1 469 18 q 325 -15 388 -15 q 149 62 215 -15 q 82 271 82 139 q 127 494 82 394 q 254 652 172 594 q 440 710 336 710 q 531 697 497 710 q 580 670 565 685 q 594 653 594 656 l 600 653 l 633 694 l 769 694 l 672 0 l 531 0 m 385 93 q 463 115 432 93 q 507 156 494 136 l 564 549 q 465 604 536 604 q 326 514 376 604 q 276 243 276 424 q 385 93 276 93 z "},"ą":{"ha":753,"x_min":82,"x_max":769,"o":"m 624 0 q 539 -72 578 -22 q 500 -206 500 -122 q 524 -263 500 -247 q 596 -279 549 -279 l 586 -347 q 433 -318 489 -347 q 378 -211 378 -289 q 422 -92 378 -144 q 531 0 465 -39 l 508 61 l 507 61 q 488 38 507 57 q 428 1 469 18 q 325 -15 388 -15 q 149 62 215 -15 q 82 271 82 139 q 127 494 82 394 q 254 652 172 594 q 440 710 336 710 q 531 697 497 710 q 580 670 565 685 q 594 653 594 656 l 600 653 l 633 694 l 769 694 l 672 0 l 624 0 m 385 93 q 463 115 432 93 q 507 156 494 136 l 564 549 q 465 604 536 604 q 326 514 376 604 q 276 243 276 424 q 385 93 276 93 z "},"å":{"ha":753,"x_min":82,"x_max":769,"o":"m 674 933 q 627 808 674 856 q 508 761 581 761 q 414 794 449 761 q 379 888 379 828 q 426 1013 379 967 q 544 1060 472 1060 q 638 1026 601 1060 q 674 933 674 992 m 611 928 q 590 983 611 964 q 538 1001 569 1001 q 469 974 496 1001 q 443 896 443 947 q 464 840 443 860 q 517 821 485 821 q 585 849 560 821 q 611 928 611 876 m 531 0 l 508 61 l 507 61 q 488 38 507 57 q 428 1 469 18 q 325 -15 388 -15 q 149 62 215 -15 q 82 271 82 139 q 127 494 82 394 q 254 652 172 594 q 440 710 336 710 q 531 697 497 710 q 580 670 565 685 q 594 653 594 656 l 600 653 l 633 694 l 769 694 l 672 0 l 531 0 m 385 93 q 463 115 432 93 q 507 156 494 136 l 564 549 q 465 604 536 604 q 326 514 376 604 q 276 243 276 424 q 385 93 276 93 z "},"ã":{"ha":753,"x_min":82,"x_max":783,"o":"m 783 931 q 763 898 783 926 q 704 845 742 869 q 613 821 667 821 q 560 829 582 821 q 503 856 538 838 q 453 879 475 871 q 406 888 432 888 q 364 874 383 888 q 333 844 344 860 q 318 825 321 829 l 275 875 q 301 912 275 879 q 368 972 326 944 q 463 1000 410 1000 q 524 991 499 1000 q 582 964 549 982 q 626 942 608 949 q 665 935 643 935 q 704 944 688 935 q 730 965 721 954 q 740 979 739 976 l 783 931 m 531 0 l 508 61 l 507 61 q 488 38 507 57 q 428 1 469 18 q 325 -15 388 -15 q 149 62 215 -15 q 82 271 82 139 q 127 494 82 394 q 254 652 172 594 q 440 710 336 710 q 531 697 497 710 q 580 670 565 685 q 594 653 594 656 l 600 653 l 633 694 l 769 694 l 672 0 l 531 0 m 385 93 q 463 115 432 93 q 507 156 494 136 l 564 549 q 465 604 536 604 q 326 514 376 604 q 276 243 276 424 q 385 93 276 93 z "},"æ":{"ha":1051,"x_min":82,"x_max":1079,"o":"m 1031 104 q 1000 68 1031 99 q 913 11 969 38 q 774 -15 856 -15 q 535 78 614 -15 l 529 78 q 510 50 529 74 q 449 6 490 26 q 343 -15 407 -15 q 151 61 221 -15 q 82 271 82 138 q 128 496 82 396 q 262 653 175 596 q 465 710 349 710 q 559 696 522 710 q 613 665 596 682 q 631 646 631 649 l 638 646 q 846 708 728 708 q 1017 653 954 708 q 1079 514 1079 597 q 957 335 1079 376 q 665 293 835 293 q 664 232 664 274 q 702 113 664 149 q 810 78 740 78 q 894 94 857 78 q 953 131 931 111 q 975 154 975 151 l 1031 104 m 824 619 q 725 557 765 619 q 671 372 685 494 q 794 383 743 372 q 880 428 846 393 q 914 532 914 463 q 824 619 914 619 m 392 93 q 453 107 426 93 q 497 140 481 121 q 474 271 474 196 q 557 565 474 449 q 465 604 525 604 q 326 514 376 604 q 276 243 276 424 q 392 93 276 93 z "},"b":{"ha":754,"x_min":81,"x_max":771,"o":"m 413 1047 l 356 643 l 363 643 q 381 663 363 646 q 438 694 400 679 q 532 708 476 708 q 706 632 640 708 q 771 426 771 556 q 728 202 771 303 q 606 43 685 101 q 421 -15 526 -15 q 326 -1 364 -15 q 267 28 288 13 q 247 47 247 44 l 244 47 l 207 0 l 81 0 l 226 1036 l 413 1047 m 285 133 q 315 106 292 121 q 386 90 338 90 q 526 181 475 90 q 576 460 576 271 q 467 601 576 601 q 402 585 431 601 q 357 551 374 569 q 340 529 340 532 l 285 133 z "},"c":{"ha":619,"x_min":83,"x_max":671,"o":"m 644 556 q 612 574 638 560 q 551 603 586 589 q 489 617 517 617 q 333 521 385 617 q 281 239 281 425 q 319 116 281 154 q 415 78 357 78 q 499 97 464 78 q 554 139 535 117 q 574 164 574 161 l 633 122 q 606 81 633 115 q 524 15 579 46 q 382 -15 468 -15 q 163 62 242 -15 q 83 281 83 139 q 130 506 83 408 q 263 656 176 603 q 468 710 350 710 q 559 695 514 710 q 633 665 604 681 q 671 644 663 650 l 644 556 z "},"ć":{"ha":619,"x_min":83,"x_max":674,"o":"m 674 971 l 481 790 l 403 803 l 529 1014 l 674 971 m 644 556 q 612 574 638 560 q 551 603 586 589 q 489 617 517 617 q 333 521 385 617 q 281 239 281 425 q 319 116 281 154 q 415 78 357 78 q 499 97 464 78 q 554 139 535 117 q 574 164 574 161 l 633 122 q 606 81 633 115 q 524 15 579 46 q 382 -15 468 -15 q 163 62 242 -15 q 83 281 83 139 q 130 506 83 408 q 263 656 176 603 q 468 710 350 710 q 559 695 514 710 q 633 665 604 681 q 671 644 663 650 l 644 556 z "},"č":{"ha":619,"x_min":83,"x_max":706,"o":"m 289 986 l 354 1035 l 486 906 l 654 1035 l 706 981 l 519 794 l 422 794 l 289 986 m 644 556 q 612 574 638 560 q 551 603 586 589 q 489 617 517 617 q 333 521 385 617 q 281 239 281 425 q 319 116 281 154 q 415 78 357 78 q 499 97 464 78 q 554 139 535 117 q 574 164 574 161 l 633 122 q 606 81 633 115 q 524 15 579 46 q 382 -15 468 -15 q 163 62 242 -15 q 83 281 83 139 q 130 506 83 408 q 263 656 176 603 q 468 710 350 710 q 559 695 514 710 q 633 665 604 681 q 671 644 663 650 l 644 556 z "},"ç":{"ha":619,"x_min":83,"x_max":671,"o":"m 644 556 q 612 574 638 560 q 551 603 586 589 q 489 617 517 617 q 333 521 385 617 q 281 239 281 425 q 319 116 281 154 q 415 78 357 78 q 499 97 464 78 q 554 139 535 117 q 574 164 574 161 l 633 122 q 606 81 633 115 q 524 15 579 46 q 382 -15 468 -15 l 374 -15 l 360 -81 q 388 -93 360 -82 q 441 -128 417 -104 q 465 -193 465 -151 q 419 -305 465 -261 q 285 -349 372 -349 q 212 -335 239 -349 q 173 -305 185 -321 q 161 -285 161 -289 l 203 -244 q 212 -257 204 -247 q 235 -276 219 -267 q 272 -285 250 -285 q 356 -197 356 -285 q 337 -158 356 -169 q 299 -142 318 -146 q 281 -136 281 -137 l 313 -10 q 144 83 204 8 q 83 281 83 158 q 130 506 83 408 q 263 656 176 603 q 468 710 350 710 q 559 695 514 710 q 633 665 604 681 q 671 644 663 650 l 644 556 z "},"d":{"ha":754,"x_min":82,"x_max":821,"o":"m 519 0 l 507 63 l 506 63 q 486 39 506 58 q 427 2 467 19 q 328 -15 388 -15 q 148 65 214 -15 q 82 278 82 146 q 125 498 82 400 q 246 652 168 596 q 421 708 324 708 q 510 697 475 708 q 560 672 544 685 q 576 656 576 658 l 581 656 l 633 1036 l 821 1047 l 674 0 l 519 0 m 385 93 q 466 117 432 93 q 510 156 500 140 l 567 557 q 553 572 564 561 q 519 592 542 582 q 464 603 496 603 q 323 513 371 603 q 275 246 275 424 q 302 128 275 164 q 385 93 329 93 z "},"ð":{"ha":739,"x_min":83,"x_max":747,"o":"m 83 272 q 131 515 83 417 q 260 660 179 613 q 444 708 342 708 q 563 679 508 708 q 479 869 540 781 l 336 794 l 318 853 l 440 917 q 363 985 408 950 l 451 1036 q 546 972 506 1007 l 663 1033 l 681 975 l 592 928 q 706 733 665 846 q 747 486 747 621 q 743 401 747 446 q 624 92 722 200 q 363 -15 526 -15 q 154 66 225 -15 q 83 272 83 147 m 446 618 q 319 525 364 618 q 274 229 274 432 q 381 74 274 74 q 553 464 553 74 q 526 578 553 539 q 446 618 499 618 z "},"ď":{"ha":754,"x_min":82,"x_max":1044,"o":"m 1044 1092 l 904 767 l 839 772 l 921 1111 l 1044 1092 m 519 0 l 507 63 l 506 63 q 486 39 506 58 q 427 2 467 19 q 328 -15 388 -15 q 148 65 214 -15 q 82 278 82 146 q 125 498 82 400 q 246 652 168 596 q 421 708 324 708 q 510 697 475 708 q 560 672 544 685 q 576 656 576 658 l 581 656 l 633 1036 l 821 1047 l 674 0 l 519 0 m 385 93 q 466 117 432 93 q 510 156 500 140 l 567 557 q 553 572 564 561 q 519 592 542 582 q 464 603 496 603 q 323 513 371 603 q 275 246 275 424 q 302 128 275 164 q 385 93 329 93 z "},"đ":{"ha":761,"x_min":72,"x_max":886,"o":"m 886 943 l 876 867 l 789 850 l 782 850 l 663 0 l 500 0 l 493 58 q 422 1 469 29 q 299 -26 375 -26 q 133 54 193 -26 q 72 267 72 135 q 114 494 72 390 q 231 658 156 597 q 404 719 306 719 q 494 706 458 719 q 549 675 531 692 q 567 656 567 658 l 571 656 l 599 850 l 468 850 l 481 943 l 613 943 l 626 1042 l 810 1042 l 796 943 l 886 943 m 375 82 q 501 160 453 82 l 557 551 q 542 577 549 567 q 513 601 535 588 q 457 614 492 614 q 315 522 364 614 q 267 236 267 431 q 294 118 267 154 q 375 82 321 82 z "},"e":{"ha":658,"x_min":82,"x_max":688,"o":"m 639 104 q 608 68 639 99 q 521 11 578 38 q 382 -15 464 -15 q 165 56 247 -15 q 82 271 82 128 q 130 507 82 408 q 263 657 178 606 q 454 708 347 708 q 625 653 563 708 q 688 514 688 597 q 565 335 688 376 q 274 293 443 293 q 272 232 272 274 q 310 113 272 149 q 418 78 349 78 q 502 94 465 78 q 561 131 539 111 q 583 154 583 151 l 639 104 m 432 619 q 333 557 374 619 q 279 372 293 494 q 403 383 351 372 q 488 428 454 393 q 522 532 522 463 q 432 619 522 619 z "},"é":{"ha":658,"x_min":82,"x_max":688,"o":"m 668 971 l 475 790 l 397 803 l 524 1014 l 668 971 m 639 104 q 608 68 639 99 q 521 11 578 38 q 382 -15 464 -15 q 165 56 247 -15 q 82 271 82 128 q 130 507 82 408 q 263 657 178 606 q 454 708 347 708 q 625 653 563 708 q 688 514 688 597 q 565 335 688 376 q 274 293 443 293 q 272 232 272 274 q 310 113 272 149 q 418 78 349 78 q 502 94 465 78 q 561 131 539 111 q 583 154 583 151 l 639 104 m 432 619 q 333 557 374 619 q 279 372 293 494 q 403 383 351 372 q 488 428 454 393 q 522 532 522 463 q 432 619 522 619 z "},"ě":{"ha":658,"x_min":82,"x_max":696,"o":"m 279 986 l 344 1035 l 476 906 l 644 1035 l 696 981 l 510 794 l 413 794 l 279 986 m 639 104 q 608 68 639 99 q 521 11 578 38 q 382 -15 464 -15 q 165 56 247 -15 q 82 271 82 128 q 130 507 82 408 q 263 657 178 606 q 454 708 347 708 q 625 653 563 708 q 688 514 688 597 q 565 335 688 376 q 274 293 443 293 q 272 232 272 274 q 310 113 272 149 q 418 78 349 78 q 502 94 465 78 q 561 131 539 111 q 583 154 583 151 l 639 104 m 432 619 q 333 557 374 619 q 279 372 293 494 q 403 383 351 372 q 488 428 454 393 q 522 532 522 463 q 432 619 522 619 z "},"ê":{"ha":658,"x_min":82,"x_max":688,"o":"m 656 876 l 608 814 l 481 932 l 318 814 l 288 876 l 447 1046 l 544 1046 l 656 876 m 639 104 q 608 68 639 99 q 521 11 578 38 q 382 -15 464 -15 q 165 56 247 -15 q 82 271 82 128 q 130 507 82 408 q 263 657 178 606 q 454 708 347 708 q 625 653 563 708 q 688 514 688 597 q 565 335 688 376 q 274 293 443 293 q 272 232 272 274 q 310 113 272 149 q 418 78 349 78 q 502 94 465 78 q 561 131 539 111 q 583 154 583 151 l 639 104 m 432 619 q 333 557 374 619 q 279 372 293 494 q 403 383 351 372 q 488 428 454 393 q 522 532 522 463 q 432 619 522 619 z "},"ế":{"ha":658,"x_min":82,"x_max":917,"o":"m 639 104 q 608 68 639 99 q 521 11 578 38 q 382 -15 464 -15 q 165 56 247 -15 q 82 271 82 128 q 130 507 82 408 q 263 657 178 606 q 454 708 347 708 q 625 653 563 708 q 688 514 688 597 q 565 335 688 376 q 274 293 443 293 q 272 232 272 274 q 310 113 272 149 q 418 78 349 78 q 502 94 465 78 q 561 131 539 111 q 583 154 583 151 l 639 104 m 432 619 q 333 557 374 619 q 279 372 293 494 q 403 383 351 372 q 488 428 454 393 q 522 532 522 463 q 432 619 522 619 m 661 825 l 614 763 l 486 881 l 324 763 l 293 825 l 453 994 l 550 994 l 661 825 m 917 1061 l 724 881 l 646 893 l 772 1104 l 917 1061 z "},"ệ":{"ha":658,"x_min":82,"x_max":688,"o":"m 639 104 q 608 68 639 99 q 521 11 578 38 q 382 -15 464 -15 q 165 56 247 -15 q 82 271 82 128 q 130 507 82 408 q 263 657 178 606 q 454 708 347 708 q 625 653 563 708 q 688 514 688 597 q 565 335 688 376 q 274 293 443 293 q 272 232 272 274 q 310 113 272 149 q 418 78 349 78 q 502 94 465 78 q 561 131 539 111 q 583 154 583 151 l 639 104 m 432 619 q 333 557 374 619 q 279 372 293 494 q 403 383 351 372 q 488 428 454 393 q 522 532 522 463 q 432 619 522 619 m 296 -139 q 363 -114 325 -114 q 422 -139 399 -114 q 442 -192 442 -161 q 403 -275 442 -240 q 336 -299 371 -299 q 276 -275 297 -299 q 257 -221 257 -251 q 267 -177 257 -199 q 296 -139 278 -156 m 661 825 l 614 763 l 486 881 l 324 763 l 293 825 l 453 994 l 550 994 l 661 825 z "},"ề":{"ha":658,"x_min":82,"x_max":746,"o":"m 639 104 q 608 68 639 99 q 521 11 578 38 q 382 -15 464 -15 q 165 56 247 -15 q 82 271 82 128 q 130 507 82 408 q 263 657 178 606 q 454 708 347 708 q 625 653 563 708 q 688 514 688 597 q 565 335 688 376 q 274 293 443 293 q 272 232 272 274 q 310 113 272 149 q 418 78 349 78 q 502 94 465 78 q 561 131 539 111 q 583 154 583 151 l 639 104 m 432 619 q 333 557 374 619 q 279 372 293 494 q 403 383 351 372 q 488 428 454 393 q 522 532 522 463 q 432 619 522 619 m 661 825 l 614 763 l 486 881 l 324 763 l 293 825 l 453 994 l 550 994 l 661 825 m 657 1199 l 746 994 l 657 971 l 503 1150 l 657 1199 z "},"ể":{"ha":658,"x_min":82,"x_max":836,"o":"m 639 104 q 608 68 639 99 q 521 11 578 38 q 382 -15 464 -15 q 165 56 247 -15 q 82 271 82 128 q 130 507 82 408 q 263 657 178 606 q 454 708 347 708 q 625 653 563 708 q 688 514 688 597 q 565 335 688 376 q 274 293 443 293 q 272 232 272 274 q 310 113 272 149 q 418 78 349 78 q 502 94 465 78 q 561 131 539 111 q 583 154 583 151 l 639 104 m 432 619 q 333 557 374 619 q 279 372 293 494 q 403 383 351 372 q 488 428 454 393 q 522 532 522 463 q 432 619 522 619 m 661 825 l 614 763 l 486 881 l 324 763 l 293 825 l 453 994 l 550 994 l 661 825 m 660 919 q 664 949 660 924 q 672 965 665 958 q 685 978 678 972 q 696 986 693 983 q 722 1006 713 997 q 733 1031 731 1015 q 735 1047 735 1038 q 689 1086 735 1086 q 658 1081 672 1086 q 634 1069 643 1075 q 624 1063 625 1064 l 593 1142 q 613 1152 597 1144 q 654 1167 629 1160 q 707 1175 679 1175 q 836 1081 836 1175 q 833 1047 836 1060 q 814 1005 828 1021 q 775 968 800 989 q 763 958 772 965 q 749 945 754 951 q 743 932 744 939 l 740 921 l 660 919 z "},"ễ":{"ha":658,"x_min":82,"x_max":792,"o":"m 639 104 q 608 68 639 99 q 521 11 578 38 q 382 -15 464 -15 q 165 56 247 -15 q 82 271 82 128 q 130 507 82 408 q 263 657 178 606 q 454 708 347 708 q 625 653 563 708 q 688 514 688 597 q 565 335 688 376 q 274 293 443 293 q 272 232 272 274 q 310 113 272 149 q 418 78 349 78 q 502 94 465 78 q 561 131 539 111 q 583 154 583 151 l 639 104 m 432 619 q 333 557 374 619 q 279 372 293 494 q 403 383 351 372 q 488 428 454 393 q 522 532 522 463 q 432 619 522 619 m 661 825 l 614 763 l 486 881 l 324 763 l 293 825 l 453 994 l 550 994 l 661 825 m 792 1163 q 771 1130 792 1158 q 713 1077 750 1101 q 621 1053 675 1053 q 568 1061 590 1053 q 511 1088 546 1069 q 462 1111 483 1103 q 414 1119 440 1119 q 372 1106 392 1119 q 341 1076 353 1092 q 326 1057 329 1061 l 283 1107 q 309 1144 283 1111 q 376 1204 335 1176 q 471 1232 418 1232 q 532 1223 507 1232 q 590 1196 557 1214 q 634 1174 617 1181 q 674 1167 651 1167 q 713 1176 696 1167 q 738 1197 729 1186 q 749 1211 747 1208 l 792 1163 z "},"ë":{"ha":658,"x_min":82,"x_max":694,"o":"m 289 978 q 357 1001 319 1001 q 417 978 393 1001 q 436 921 436 951 q 396 833 436 869 q 329 808 365 808 q 269 833 293 808 q 250 890 250 857 q 260 937 250 914 q 289 978 271 960 m 547 978 q 614 1001 578 1001 q 675 978 649 1001 q 694 921 694 951 q 654 833 694 869 q 586 808 624 808 q 528 833 549 808 q 508 890 508 857 q 519 937 508 914 q 547 978 529 960 m 639 104 q 608 68 639 99 q 521 11 578 38 q 382 -15 464 -15 q 165 56 247 -15 q 82 271 82 128 q 130 507 82 408 q 263 657 178 606 q 454 708 347 708 q 625 653 563 708 q 688 514 688 597 q 565 335 688 376 q 274 293 443 293 q 272 232 272 274 q 310 113 272 149 q 418 78 349 78 q 502 94 465 78 q 561 131 539 111 q 583 154 583 151 l 639 104 m 432 619 q 333 557 374 619 q 279 372 293 494 q 403 383 351 372 q 488 428 454 393 q 522 532 522 463 q 432 619 522 619 z "},"ė":{"ha":658,"x_min":82,"x_max":688,"o":"m 415 983 q 492 1011 447 1011 q 560 985 535 1011 q 581 922 581 958 q 569 870 581 896 q 538 825 558 844 q 461 799 503 799 q 393 826 417 799 q 371 889 371 850 q 383 940 371 914 q 415 983 394 965 m 639 104 q 608 68 639 99 q 521 11 578 38 q 382 -15 464 -15 q 165 56 247 -15 q 82 271 82 128 q 130 507 82 408 q 263 657 178 606 q 454 708 347 708 q 625 653 563 708 q 688 514 688 597 q 565 335 688 376 q 274 293 443 293 q 272 232 272 274 q 310 113 272 149 q 418 78 349 78 q 502 94 465 78 q 561 131 539 111 q 583 154 583 151 l 639 104 m 432 619 q 333 557 374 619 q 279 372 293 494 q 403 383 351 372 q 488 428 454 393 q 522 532 522 463 q 432 619 522 619 z "},"ẹ":{"ha":658,"x_min":82,"x_max":688,"o":"m 639 104 q 608 68 639 99 q 521 11 578 38 q 382 -15 464 -15 q 165 56 247 -15 q 82 271 82 128 q 130 507 82 408 q 263 657 178 606 q 454 708 347 708 q 625 653 563 708 q 688 514 688 597 q 565 335 688 376 q 274 293 443 293 q 272 232 272 274 q 310 113 272 149 q 418 78 349 78 q 502 94 465 78 q 561 131 539 111 q 583 154 583 151 l 639 104 m 432 619 q 333 557 374 619 q 279 372 293 494 q 403 383 351 372 q 488 428 454 393 q 522 532 522 463 q 432 619 522 619 m 296 -139 q 363 -114 325 -114 q 422 -139 399 -114 q 442 -192 442 -161 q 403 -275 442 -240 q 336 -299 371 -299 q 276 -275 297 -299 q 257 -221 257 -251 q 267 -177 257 -199 q 296 -139 278 -156 z "},"è":{"ha":658,"x_min":82,"x_max":688,"o":"m 444 1025 l 533 821 l 444 797 l 290 976 l 444 1025 m 639 104 q 608 68 639 99 q 521 11 578 38 q 382 -15 464 -15 q 165 56 247 -15 q 82 271 82 128 q 130 507 82 408 q 263 657 178 606 q 454 708 347 708 q 625 653 563 708 q 688 514 688 597 q 565 335 688 376 q 274 293 443 293 q 272 232 272 274 q 310 113 272 149 q 418 78 349 78 q 502 94 465 78 q 561 131 539 111 q 583 154 583 151 l 639 104 m 432 619 q 333 557 374 619 q 279 372 293 494 q 403 383 351 372 q 488 428 454 393 q 522 532 522 463 q 432 619 522 619 z "},"ẻ":{"ha":658,"x_min":82,"x_max":688,"o":"m 639 104 q 608 68 639 99 q 521 11 578 38 q 382 -15 464 -15 q 165 56 247 -15 q 82 271 82 128 q 130 507 82 408 q 263 657 178 606 q 454 708 347 708 q 625 653 563 708 q 688 514 688 597 q 565 335 688 376 q 274 293 443 293 q 272 232 272 274 q 310 113 272 149 q 418 78 349 78 q 502 94 465 78 q 561 131 539 111 q 583 154 583 151 l 639 104 m 432 619 q 333 557 374 619 q 279 372 293 494 q 403 383 351 372 q 488 428 454 393 q 522 532 522 463 q 432 619 522 619 m 432 775 q 436 804 432 779 q 444 821 438 814 q 458 833 450 828 q 468 842 465 839 q 494 862 485 853 q 506 886 503 871 q 507 903 507 893 q 461 942 507 942 q 430 936 444 942 q 406 925 415 931 q 396 918 397 919 l 365 997 q 385 1008 369 1000 q 426 1023 401 1015 q 479 1031 451 1031 q 608 936 608 1031 q 606 903 608 915 q 586 860 600 876 q 547 824 572 844 q 535 814 544 821 q 522 801 526 807 q 515 788 517 794 l 513 776 l 432 775 z "},"ē":{"ha":658,"x_min":82,"x_max":688,"o":"m 622 867 l 324 867 l 335 947 l 632 947 l 622 867 m 639 104 q 608 68 639 99 q 521 11 578 38 q 382 -15 464 -15 q 165 56 247 -15 q 82 271 82 128 q 130 507 82 408 q 263 657 178 606 q 454 708 347 708 q 625 653 563 708 q 688 514 688 597 q 565 335 688 376 q 274 293 443 293 q 272 232 272 274 q 310 113 272 149 q 418 78 349 78 q 502 94 465 78 q 561 131 539 111 q 583 154 583 151 l 639 104 m 432 619 q 333 557 374 619 q 279 372 293 494 q 403 383 351 372 q 488 428 454 393 q 522 532 522 463 q 432 619 522 619 z "},"ę":{"ha":658,"x_min":82,"x_max":688,"o":"m 639 104 q 615 75 639 100 q 547 24 590 50 q 440 -11 503 -1 q 367 -84 399 -36 q 336 -206 336 -132 q 360 -263 336 -247 q 432 -279 385 -279 l 422 -347 q 269 -318 325 -347 q 214 -211 214 -289 q 343 -14 214 -104 q 153 67 224 -4 q 82 271 82 139 q 130 507 82 408 q 263 657 178 606 q 454 708 347 708 q 625 653 563 708 q 688 514 688 597 q 565 335 688 376 q 274 293 443 293 q 272 232 272 274 q 310 113 272 149 q 418 78 349 78 q 502 94 465 78 q 561 131 539 111 q 583 154 583 151 l 639 104 m 432 619 q 333 557 374 619 q 279 372 293 494 q 403 383 351 372 q 488 428 454 393 q 522 532 522 463 q 432 619 522 619 z "},"ẽ":{"ha":658,"x_min":82,"x_max":746,"o":"m 639 104 q 608 68 639 99 q 521 11 578 38 q 382 -15 464 -15 q 165 56 247 -15 q 82 271 82 128 q 130 507 82 408 q 263 657 178 606 q 454 708 347 708 q 625 653 563 708 q 688 514 688 597 q 565 335 688 376 q 274 293 443 293 q 272 232 272 274 q 310 113 272 149 q 418 78 349 78 q 502 94 465 78 q 561 131 539 111 q 583 154 583 151 l 639 104 m 432 619 q 333 557 374 619 q 279 372 293 494 q 403 383 351 372 q 488 428 454 393 q 522 532 522 463 q 432 619 522 619 m 746 931 q 725 898 746 926 q 667 845 704 869 q 575 821 629 821 q 522 829 544 821 q 465 856 500 838 q 416 879 438 871 q 368 888 394 888 q 326 874 346 888 q 295 844 307 860 q 281 825 283 829 l 238 875 q 263 912 238 879 q 331 972 289 944 q 425 1000 372 1000 q 486 991 461 1000 q 544 964 511 982 q 588 942 571 949 q 628 935 606 935 q 667 944 650 935 q 692 965 683 954 q 703 979 701 976 l 746 931 z "},"f":{"ha":478,"x_min":-121,"x_max":631,"o":"m 128 588 l 140 671 l 210 690 l 225 793 q 305 988 244 919 q 482 1056 365 1056 q 549 1045 517 1056 q 603 1024 582 1035 q 631 1008 625 1013 l 596 929 q 576 940 592 932 q 540 955 561 947 q 503 963 519 963 q 460 949 476 963 q 431 894 444 935 q 407 772 418 853 l 396 694 l 569 694 l 554 588 l 381 588 l 292 -40 q 192 -286 268 -210 q 1 -362 115 -362 q -65 -353 -37 -362 q -107 -333 -93 -344 q -121 -321 -121 -322 l -79 -237 q -67 -246 -76 -239 q -41 -258 -57 -253 q -8 -264 -25 -264 q 63 -215 36 -264 q 107 -40 90 -165 l 196 588 l 128 588 z "},"g":{"ha":640,"x_min":-1,"x_max":713,"o":"m 421 708 q 522 693 474 708 l 713 692 l 706 610 l 635 606 q 660 499 660 558 q 574 282 660 360 q 350 204 489 204 q 256 217 297 204 q 224 163 224 193 q 251 125 224 138 q 340 113 278 113 q 562 61 494 113 q 629 -86 629 10 q 543 -287 629 -211 q 289 -364 457 -364 q 73 -306 147 -364 q -1 -150 -1 -249 q 31 -28 -1 -75 q 111 42 63 18 q 101 100 101 71 q 183 251 101 193 q 123 322 144 279 q 101 422 101 365 q 145 582 101 518 q 261 677 189 646 q 421 708 333 708 m 485 521 q 464 597 485 575 q 404 619 443 619 q 313 569 349 619 q 278 399 278 519 q 358 289 278 289 q 449 344 414 289 q 485 521 485 400 m 310 -50 q 171 -22 221 -50 q 125 -137 125 -62 q 172 -235 125 -201 q 303 -269 218 -269 q 429 -238 390 -269 q 468 -144 468 -207 q 432 -72 468 -94 q 310 -50 396 -50 z "},"ğ":{"ha":640,"x_min":-1,"x_max":713,"o":"m 442 883 q 519 900 492 883 q 558 935 547 917 q 568 960 568 954 l 569 965 l 660 953 q 643 899 660 939 q 574 820 626 858 q 426 782 522 782 q 280 829 318 782 q 242 931 242 876 q 242 945 242 939 q 243 953 243 951 l 336 965 l 336 960 q 354 911 336 939 q 442 883 372 883 m 421 708 q 522 693 474 708 l 713 692 l 706 610 l 635 606 q 660 499 660 558 q 574 282 660 360 q 350 204 489 204 q 256 217 297 204 q 224 163 224 193 q 251 125 224 138 q 340 113 278 113 q 562 61 494 113 q 629 -86 629 10 q 543 -287 629 -211 q 289 -364 457 -364 q 73 -306 147 -364 q -1 -150 -1 -249 q 31 -28 -1 -75 q 111 42 63 18 q 101 100 101 71 q 183 251 101 193 q 123 322 144 279 q 101 422 101 365 q 145 582 101 518 q 261 677 189 646 q 421 708 333 708 m 485 521 q 464 597 485 575 q 404 619 443 619 q 313 569 349 619 q 278 399 278 519 q 358 289 278 289 q 449 344 414 289 q 485 521 485 400 m 310 -50 q 171 -22 221 -50 q 125 -137 125 -62 q 172 -235 125 -201 q 303 -269 218 -269 q 429 -238 390 -269 q 468 -144 468 -207 q 432 -72 468 -94 q 310 -50 396 -50 z "},"ģ":{"ha":640,"x_min":-1,"x_max":713,"o":"m 489 796 q 426 774 463 774 q 369 796 392 774 q 342 881 342 829 q 394 1042 342 956 q 524 1181 447 1129 l 558 1138 q 473 1043 503 1093 q 442 946 443 993 l 451 946 q 507 924 485 946 q 525 874 525 901 q 516 832 525 853 q 489 796 507 811 m 421 708 q 522 693 474 708 l 713 692 l 706 610 l 635 606 q 660 499 660 558 q 574 282 660 360 q 350 204 489 204 q 256 217 297 204 q 224 163 224 193 q 251 125 224 138 q 340 113 278 113 q 562 61 494 113 q 629 -86 629 10 q 543 -287 629 -211 q 289 -364 457 -364 q 73 -306 147 -364 q -1 -150 -1 -249 q 31 -28 -1 -75 q 111 42 63 18 q 101 100 101 71 q 183 251 101 193 q 123 322 144 279 q 101 422 101 365 q 145 582 101 518 q 261 677 189 646 q 421 708 333 708 m 485 521 q 464 597 485 575 q 404 619 443 619 q 313 569 349 619 q 278 399 278 519 q 358 289 278 289 q 449 344 414 289 q 485 521 485 400 m 310 -50 q 171 -22 221 -50 q 125 -137 125 -62 q 172 -235 125 -201 q 303 -269 218 -269 q 429 -238 390 -269 q 468 -144 468 -207 q 432 -72 468 -94 q 310 -50 396 -50 z "},"h":{"ha":740,"x_min":81,"x_max":736,"o":"m 413 1047 l 356 647 l 361 647 q 379 662 361 647 q 444 692 397 676 q 546 708 492 708 q 736 531 736 708 q 732 471 736 503 l 667 0 l 482 0 l 546 456 q 550 513 550 489 q 532 576 550 558 q 471 593 514 593 q 407 582 436 593 q 362 559 378 571 q 342 543 346 547 l 265 0 l 81 0 l 226 1036 l 413 1047 z "},"i":{"ha":346,"x_min":81,"x_max":404,"o":"m 239 983 q 315 1011 271 1011 q 383 985 358 1011 q 404 922 404 958 q 393 870 404 896 q 361 825 382 844 q 285 799 326 799 q 217 826 240 799 q 194 889 194 850 q 206 940 194 914 q 239 983 218 965 m 265 0 l 81 0 l 178 694 l 363 694 l 265 0 z "},"ı":{"ha":346,"x_min":81,"x_max":363,"o":"m 265 0 l 81 0 l 178 694 l 363 694 l 265 0 z "},"í":{"ha":346,"x_min":81,"x_max":489,"o":"m 489 971 l 296 790 l 218 803 l 344 1014 l 489 971 m 265 0 l 81 0 l 178 694 l 363 694 l 265 0 z "},"î":{"ha":346,"x_min":81,"x_max":482,"o":"m 482 876 l 435 814 l 307 932 l 144 814 l 114 876 l 274 1046 l 371 1046 l 482 876 m 265 0 l 81 0 l 178 694 l 363 694 l 265 0 z "},"ï":{"ha":346,"x_min":76,"x_max":521,"o":"m 115 978 q 183 1001 146 1001 q 243 978 219 1001 q 263 921 263 951 q 222 833 263 869 q 156 808 192 808 q 96 833 118 808 q 76 890 76 857 q 87 937 76 914 q 115 978 97 960 m 374 978 q 440 1001 404 1001 q 501 978 475 1001 q 521 921 521 951 q 481 833 521 869 q 413 808 450 808 q 354 833 375 808 q 335 890 335 857 q 345 937 335 914 q 374 978 356 960 m 265 0 l 81 0 l 178 694 l 363 694 l 265 0 z "},"ị":{"ha":346,"x_min":47,"x_max":404,"o":"m 239 983 q 315 1011 271 1011 q 383 985 358 1011 q 404 922 404 958 q 393 870 404 896 q 361 825 382 844 q 285 799 326 799 q 217 826 240 799 q 194 889 194 850 q 206 940 194 914 q 239 983 218 965 m 265 0 l 81 0 l 178 694 l 363 694 l 265 0 m 86 -139 q 153 -114 115 -114 q 213 -139 189 -114 q 232 -192 232 -161 q 193 -275 232 -240 q 126 -299 161 -299 q 67 -275 88 -299 q 47 -221 47 -251 q 58 -177 47 -199 q 86 -139 68 -156 z "},"ì":{"ha":346,"x_min":81,"x_max":363,"o":"m 265 1025 l 354 821 l 265 797 l 111 976 l 265 1025 m 265 0 l 81 0 l 178 694 l 363 694 l 265 0 z "},"ỉ":{"ha":346,"x_min":81,"x_max":422,"o":"m 265 0 l 81 0 l 178 694 l 363 694 l 265 0 m 246 775 q 250 804 246 779 q 258 821 251 814 q 272 833 264 828 q 282 842 279 839 q 308 862 299 853 q 319 886 317 871 q 321 903 321 893 q 275 942 321 942 q 244 936 258 942 q 220 925 229 931 q 210 918 211 919 l 179 997 q 199 1008 183 1000 q 240 1023 215 1015 q 293 1031 265 1031 q 422 936 422 1031 q 419 903 422 915 q 400 860 414 876 q 361 824 386 844 q 349 814 358 821 q 335 801 340 807 q 329 788 331 794 l 326 776 l 246 775 z "},"ī":{"ha":346,"x_min":81,"x_max":454,"o":"m 444 867 l 146 867 l 157 947 l 454 947 l 444 867 m 265 0 l 81 0 l 178 694 l 363 694 l 265 0 z "},"į":{"ha":346,"x_min":-87,"x_max":399,"o":"m 233 983 q 310 1011 265 1011 q 378 985 353 1011 q 399 922 399 957 q 388 870 399 896 q 356 825 376 844 q 279 799 321 799 q 211 826 235 799 q 189 889 189 850 q 201 940 189 914 q 233 983 213 965 m 158 0 q 74 -72 114 -22 q 35 -206 35 -122 q 59 -263 35 -247 q 131 -279 83 -279 l 121 -347 q -32 -318 24 -347 q -87 -211 -87 -289 q -37 -84 -87 -140 q 82 11 13 -28 l 178 694 l 363 694 l 265 0 l 158 0 z "},"ĩ":{"ha":346,"x_min":51,"x_max":560,"o":"m 265 0 l 81 0 l 178 694 l 363 694 l 265 0 m 560 931 q 539 898 560 926 q 481 845 518 869 q 389 821 443 821 q 336 829 358 821 q 279 856 314 838 q 230 879 251 871 q 182 888 208 888 q 140 874 160 888 q 109 844 121 860 q 94 825 97 829 l 51 875 q 77 912 51 879 q 144 972 103 944 q 239 1000 186 1000 q 300 991 275 1000 q 358 964 325 982 q 402 942 385 949 q 442 935 419 935 q 481 944 464 935 q 506 965 497 954 q 517 979 515 976 l 560 931 z "},"j":{"ha":383,"x_min":-117,"x_max":442,"o":"m 276 983 q 353 1011 308 1011 q 421 985 396 1011 q 442 922 442 958 q 431 870 442 896 q 399 825 419 844 q 322 799 364 799 q 254 826 278 799 q 232 889 232 850 q 244 940 232 914 q 276 983 256 965 m 399 694 l 296 -40 q 195 -285 272 -208 q 6 -362 118 -362 q -62 -353 -35 -362 q -103 -333 -89 -344 q -117 -321 -117 -322 l -75 -237 q -63 -246 -72 -239 q -38 -258 -54 -253 q -6 -264 -22 -264 q 67 -215 40 -264 q 111 -40 94 -165 l 214 694 l 399 694 z "},"ȷ":{"ha":383,"x_min":-117,"x_max":399,"o":"m 399 694 l 296 -40 q 195 -285 272 -208 q 6 -362 118 -362 q -62 -353 -35 -362 q -103 -333 -89 -344 q -117 -321 -117 -322 l -75 -237 q -63 -246 -72 -239 q -38 -258 -54 -253 q -6 -264 -22 -264 q 67 -215 40 -264 q 111 -40 94 -165 l 214 694 l 399 694 z "},"k":{"ha":681,"x_min":81,"x_max":719,"o":"m 226 1036 l 413 1047 l 321 400 l 426 465 l 606 694 l 719 694 l 504 438 l 667 0 l 456 0 l 346 325 l 307 303 l 265 0 l 81 0 l 226 1036 z "},"ķ":{"ha":681,"x_min":81,"x_max":719,"o":"m 226 1036 l 413 1047 l 321 400 l 426 465 l 606 694 l 719 694 l 504 438 l 667 0 l 456 0 l 346 325 l 307 303 l 265 0 l 81 0 l 226 1036 m 288 -86 q 350 -64 314 -64 q 407 -86 385 -64 q 435 -171 435 -119 q 382 -333 435 -246 q 253 -471 329 -419 l 218 -428 q 303 -333 274 -383 q 335 -236 333 -283 l 325 -236 q 269 -214 292 -236 q 251 -164 251 -192 q 260 -122 251 -143 q 288 -86 269 -101 z "},"l":{"ha":347,"x_min":81,"x_max":413,"o":"m 265 0 l 81 0 l 226 1036 l 413 1047 l 265 0 z "},"ĺ":{"ha":347,"x_min":81,"x_max":560,"o":"m 560 1283 l 367 1103 l 289 1115 l 415 1326 l 560 1283 m 265 0 l 81 0 l 226 1036 l 413 1047 l 265 0 z "},"ľ":{"ha":347,"x_min":81,"x_max":640,"o":"m 640 1092 l 500 767 l 435 772 l 517 1111 l 640 1092 m 265 0 l 81 0 l 226 1036 l 413 1047 l 265 0 z "},"ļ":{"ha":347,"x_min":35,"x_max":413,"o":"m 265 0 l 81 0 l 226 1036 l 413 1047 l 265 0 m 104 -86 q 167 -64 131 -64 q 224 -86 201 -64 q 251 -171 251 -119 q 199 -333 251 -246 q 69 -471 146 -419 l 35 -428 q 120 -333 90 -383 q 151 -236 150 -283 l 142 -236 q 86 -214 108 -236 q 68 -164 68 -192 q 77 -122 68 -143 q 104 -86 86 -101 z "},"ł":{"ha":407,"x_min":60,"x_max":531,"o":"m 388 653 l 497 729 l 531 676 l 375 569 l 296 0 l 111 0 l 171 428 l 92 374 l 60 428 l 183 513 l 257 1036 l 443 1047 l 388 653 z "},"m":{"ha":1050,"x_min":81,"x_max":1049,"o":"m 326 694 l 342 632 l 346 632 q 372 655 346 635 q 440 692 399 675 q 533 708 482 708 q 682 629 653 708 q 756 681 706 653 q 885 708 806 708 q 1009 671 969 708 q 1049 551 1049 633 q 1043 485 1049 532 l 975 0 l 790 0 l 857 471 q 861 524 861 503 q 846 580 861 565 q 800 594 831 594 q 737 575 764 594 q 693 535 710 556 l 689 488 l 621 0 l 436 0 l 501 471 q 506 525 506 504 q 491 580 506 565 q 447 594 476 594 q 342 544 392 594 l 265 0 l 81 0 l 178 694 l 326 694 z "},"n":{"ha":742,"x_min":81,"x_max":738,"o":"m 326 694 l 343 639 l 347 639 q 372 660 347 642 q 440 693 396 678 q 547 708 485 708 q 690 665 642 708 q 738 529 738 621 q 733 471 738 503 l 668 0 l 483 0 q 513 216 492 65 q 547 456 533 367 q 551 507 551 485 q 531 574 551 556 q 467 593 511 593 q 389 575 422 593 q 342 543 356 557 l 265 0 l 81 0 l 178 694 l 326 694 z "},"ń":{"ha":742,"x_min":81,"x_max":738,"o":"m 674 971 l 481 790 l 403 803 l 529 1014 l 674 971 m 326 694 l 343 639 l 347 639 q 372 660 347 642 q 440 693 396 678 q 547 708 485 708 q 690 665 642 708 q 738 529 738 621 q 733 471 738 503 l 668 0 l 483 0 q 513 216 492 65 q 547 456 533 367 q 551 507 551 485 q 531 574 551 556 q 467 593 511 593 q 389 575 422 593 q 342 543 356 557 l 265 0 l 81 0 l 178 694 l 326 694 z "},"ň":{"ha":742,"x_min":81,"x_max":738,"o":"m 307 986 l 372 1035 l 504 906 l 672 1035 l 724 981 l 538 794 l 440 794 l 307 986 m 326 694 l 343 639 l 347 639 q 372 660 347 642 q 440 693 396 678 q 547 708 485 708 q 690 665 642 708 q 738 529 738 621 q 733 471 738 503 l 668 0 l 483 0 q 513 216 492 65 q 547 456 533 367 q 551 507 551 485 q 531 574 551 556 q 467 593 511 593 q 389 575 422 593 q 342 543 356 557 l 265 0 l 81 0 l 178 694 l 326 694 z "},"ņ":{"ha":742,"x_min":81,"x_max":738,"o":"m 326 694 l 343 639 l 347 639 q 372 660 347 642 q 440 693 396 678 q 547 708 485 708 q 690 665 642 708 q 738 529 738 621 q 733 471 738 503 l 668 0 l 483 0 q 513 216 492 65 q 547 456 533 367 q 551 507 551 485 q 531 574 551 556 q 467 593 511 593 q 389 575 422 593 q 342 543 356 557 l 265 0 l 81 0 l 178 694 l 326 694 m 297 -86 q 360 -64 324 -64 q 417 -86 394 -64 q 444 -171 444 -119 q 392 -333 444 -246 q 263 -471 339 -419 l 228 -428 q 313 -333 283 -383 q 344 -236 343 -283 l 335 -236 q 279 -214 301 -236 q 261 -164 261 -192 q 270 -122 261 -143 q 297 -86 279 -101 z "},"ñ":{"ha":742,"x_min":81,"x_max":740,"o":"m 740 931 q 719 898 740 926 q 661 845 699 869 q 569 821 624 821 q 517 829 539 821 q 460 856 494 838 q 410 879 432 871 q 363 888 389 888 q 321 874 340 888 q 290 844 301 860 q 275 825 278 829 l 232 875 q 258 912 232 879 q 325 972 283 944 q 419 1000 367 1000 q 481 991 456 1000 q 539 964 506 982 q 583 942 565 949 q 622 935 600 935 q 661 944 644 935 q 687 965 678 954 q 697 979 696 976 l 740 931 m 326 694 l 343 639 l 347 639 q 372 660 347 642 q 440 693 396 678 q 547 708 485 708 q 690 665 642 708 q 738 529 738 621 q 733 471 738 503 l 668 0 l 483 0 q 513 216 492 65 q 547 456 533 367 q 551 507 551 485 q 531 574 551 556 q 467 593 511 593 q 389 575 422 593 q 342 543 356 557 l 265 0 l 81 0 l 178 694 l 326 694 z "},"o":{"ha":729,"x_min":83,"x_max":743,"o":"m 743 424 q 696 192 743 292 q 562 39 649 93 q 361 -15 475 -15 q 158 59 232 -15 q 83 271 83 133 q 128 502 83 403 q 259 656 174 601 q 464 710 344 710 q 669 635 594 710 q 743 424 743 561 m 446 617 q 319 519 364 617 q 275 221 275 421 q 381 76 275 76 q 507 175 463 76 q 551 474 551 274 q 526 581 551 544 q 446 617 501 617 z "},"ó":{"ha":729,"x_min":83,"x_max":743,"o":"m 667 971 l 474 790 l 396 803 l 522 1014 l 667 971 m 743 424 q 696 192 743 292 q 562 39 649 93 q 361 -15 475 -15 q 158 59 232 -15 q 83 271 83 133 q 128 502 83 403 q 259 656 174 601 q 464 710 344 710 q 669 635 594 710 q 743 424 743 561 m 446 617 q 319 519 364 617 q 275 221 275 421 q 381 76 275 76 q 507 175 463 76 q 551 474 551 274 q 526 581 551 544 q 446 617 501 617 z "},"ô":{"ha":729,"x_min":83,"x_max":743,"o":"m 653 876 l 606 814 l 478 932 l 315 814 l 285 876 l 444 1046 l 542 1046 l 653 876 m 743 424 q 696 192 743 292 q 562 39 649 93 q 361 -15 475 -15 q 158 59 232 -15 q 83 271 83 133 q 128 502 83 403 q 259 656 174 601 q 464 710 344 710 q 669 635 594 710 q 743 424 743 561 m 446 617 q 319 519 364 617 q 275 221 275 421 q 381 76 275 76 q 507 175 463 76 q 551 474 551 274 q 526 581 551 544 q 446 617 501 617 z "},"ố":{"ha":729,"x_min":83,"x_max":925,"o":"m 743 424 q 696 192 743 292 q 562 39 649 93 q 361 -15 475 -15 q 158 59 232 -15 q 83 271 83 133 q 128 502 83 403 q 259 656 174 601 q 464 710 344 710 q 669 635 594 710 q 743 424 743 561 m 446 617 q 319 519 364 617 q 275 221 275 421 q 381 76 275 76 q 507 175 463 76 q 551 474 551 274 q 526 581 551 544 q 446 617 501 617 m 669 825 l 622 763 l 494 881 l 332 763 l 301 825 l 461 994 l 558 994 l 669 825 m 925 1061 l 732 881 l 654 893 l 781 1104 l 925 1061 z "},"ộ":{"ha":729,"x_min":83,"x_max":743,"o":"m 743 424 q 696 192 743 292 q 562 39 649 93 q 361 -15 475 -15 q 158 59 232 -15 q 83 271 83 133 q 128 502 83 403 q 259 656 174 601 q 464 710 344 710 q 669 635 594 710 q 743 424 743 561 m 446 617 q 319 519 364 617 q 275 221 275 421 q 381 76 275 76 q 507 175 463 76 q 551 474 551 274 q 526 581 551 544 q 446 617 501 617 m 275 -139 q 342 -114 304 -114 q 401 -139 378 -114 q 421 -192 421 -161 q 382 -275 421 -240 q 315 -299 350 -299 q 256 -275 276 -299 q 236 -221 236 -251 q 247 -177 236 -199 q 275 -139 257 -156 m 669 825 l 622 763 l 494 881 l 332 763 l 301 825 l 461 994 l 558 994 l 669 825 z "},"ồ":{"ha":729,"x_min":83,"x_max":754,"o":"m 743 424 q 696 192 743 292 q 562 39 649 93 q 361 -15 475 -15 q 158 59 232 -15 q 83 271 83 133 q 128 502 83 403 q 259 656 174 601 q 464 710 344 710 q 669 635 594 710 q 743 424 743 561 m 446 617 q 319 519 364 617 q 275 221 275 421 q 381 76 275 76 q 507 175 463 76 q 551 474 551 274 q 526 581 551 544 q 446 617 501 617 m 669 825 l 622 763 l 494 881 l 332 763 l 301 825 l 461 994 l 558 994 l 669 825 m 665 1199 l 754 994 l 665 971 l 511 1150 l 665 1199 z "},"ổ":{"ha":729,"x_min":83,"x_max":844,"o":"m 743 424 q 696 192 743 292 q 562 39 649 93 q 361 -15 475 -15 q 158 59 232 -15 q 83 271 83 133 q 128 502 83 403 q 259 656 174 601 q 464 710 344 710 q 669 635 594 710 q 743 424 743 561 m 446 617 q 319 519 364 617 q 275 221 275 421 q 381 76 275 76 q 507 175 463 76 q 551 474 551 274 q 526 581 551 544 q 446 617 501 617 m 669 825 l 622 763 l 494 881 l 332 763 l 301 825 l 461 994 l 558 994 l 669 825 m 668 919 q 672 949 668 924 q 680 965 674 958 q 694 978 686 972 q 704 986 701 983 q 730 1006 721 997 q 742 1031 739 1015 q 743 1047 743 1038 q 697 1086 743 1086 q 666 1081 681 1086 q 642 1069 651 1075 q 632 1063 633 1064 l 601 1142 q 622 1152 606 1144 q 663 1167 638 1160 q 715 1175 688 1175 q 844 1081 844 1175 q 842 1047 844 1060 q 822 1005 836 1021 q 783 968 808 989 q 772 958 781 965 q 758 945 763 951 q 751 932 753 939 l 749 921 l 668 919 z "},"ỗ":{"ha":729,"x_min":83,"x_max":800,"o":"m 743 424 q 696 192 743 292 q 562 39 649 93 q 361 -15 475 -15 q 158 59 232 -15 q 83 271 83 133 q 128 502 83 403 q 259 656 174 601 q 464 710 344 710 q 669 635 594 710 q 743 424 743 561 m 446 617 q 319 519 364 617 q 275 221 275 421 q 381 76 275 76 q 507 175 463 76 q 551 474 551 274 q 526 581 551 544 q 446 617 501 617 m 669 825 l 622 763 l 494 881 l 332 763 l 301 825 l 461 994 l 558 994 l 669 825 m 800 1163 q 779 1130 800 1158 q 721 1077 758 1101 q 629 1053 683 1053 q 576 1061 599 1053 q 519 1088 554 1069 q 470 1111 492 1103 q 422 1119 449 1119 q 381 1106 400 1119 q 349 1076 361 1092 q 335 1057 338 1061 l 292 1107 q 317 1144 292 1111 q 385 1204 343 1176 q 479 1232 426 1232 q 540 1223 515 1232 q 599 1196 565 1214 q 642 1174 625 1181 q 682 1167 660 1167 q 721 1176 704 1167 q 747 1197 738 1186 q 757 1211 756 1208 l 800 1163 z "},"ö":{"ha":729,"x_min":83,"x_max":743,"o":"m 288 978 q 356 1001 318 1001 q 415 978 392 1001 q 435 921 435 951 q 394 833 435 869 q 328 808 364 808 q 268 833 290 808 q 249 890 249 857 q 259 937 249 914 q 288 978 269 960 m 546 978 q 613 1001 576 1001 q 674 978 647 1001 q 693 921 693 951 q 653 833 693 869 q 585 808 622 808 q 526 833 547 808 q 507 890 507 857 q 517 937 507 914 q 546 978 528 960 m 743 424 q 696 192 743 292 q 562 39 649 93 q 361 -15 475 -15 q 158 59 232 -15 q 83 271 83 133 q 128 502 83 403 q 259 656 174 601 q 464 710 344 710 q 669 635 594 710 q 743 424 743 561 m 446 617 q 319 519 364 617 q 275 221 275 421 q 381 76 275 76 q 507 175 463 76 q 551 474 551 274 q 526 581 551 544 q 446 617 501 617 z "},"ọ":{"ha":729,"x_min":83,"x_max":743,"o":"m 743 424 q 696 192 743 292 q 562 39 649 93 q 361 -15 475 -15 q 158 59 232 -15 q 83 271 83 133 q 128 502 83 403 q 259 656 174 601 q 464 710 344 710 q 669 635 594 710 q 743 424 743 561 m 446 617 q 319 519 364 617 q 275 221 275 421 q 381 76 275 76 q 507 175 463 76 q 551 474 551 274 q 526 581 551 544 q 446 617 501 617 m 275 -139 q 342 -114 304 -114 q 401 -139 378 -114 q 421 -192 421 -161 q 382 -275 421 -240 q 315 -299 350 -299 q 256 -275 276 -299 q 236 -221 236 -251 q 247 -177 236 -199 q 275 -139 257 -156 z "},"ò":{"ha":729,"x_min":83,"x_max":743,"o":"m 443 1025 l 532 821 l 443 797 l 289 976 l 443 1025 m 743 424 q 696 192 743 292 q 562 39 649 93 q 361 -15 475 -15 q 158 59 232 -15 q 83 271 83 133 q 128 502 83 403 q 259 656 174 601 q 464 710 344 710 q 669 635 594 710 q 743 424 743 561 m 446 617 q 319 519 364 617 q 275 221 275 421 q 381 76 275 76 q 507 175 463 76 q 551 474 551 274 q 526 581 551 544 q 446 617 501 617 z "},"ỏ":{"ha":729,"x_min":83,"x_max":743,"o":"m 743 424 q 696 192 743 292 q 562 39 649 93 q 361 -15 475 -15 q 158 59 232 -15 q 83 271 83 133 q 128 502 83 403 q 259 656 174 601 q 464 710 344 710 q 669 635 594 710 q 743 424 743 561 m 446 617 q 319 519 364 617 q 275 221 275 421 q 381 76 275 76 q 507 175 463 76 q 551 474 551 274 q 526 581 551 544 q 446 617 501 617 m 440 775 q 444 804 440 779 q 452 821 446 814 q 466 833 458 828 q 476 842 474 839 q 502 862 493 853 q 514 886 511 871 q 515 903 515 893 q 469 942 515 942 q 438 936 453 942 q 415 925 424 931 q 404 918 406 919 l 374 997 q 394 1008 378 1000 q 435 1023 410 1015 q 488 1031 460 1031 q 617 936 617 1031 q 614 903 617 915 q 594 860 608 876 q 556 824 581 844 q 544 814 553 821 q 530 801 535 807 q 524 788 525 794 l 521 776 l 440 775 z "},"ơ":{"ha":729,"x_min":83,"x_max":794,"o":"m 664 639 q 743 424 743 564 q 696 192 743 292 q 562 39 649 93 q 361 -15 475 -15 q 158 59 232 -15 q 83 271 83 133 q 128 502 83 403 q 259 656 174 601 q 464 710 344 710 q 567 696 524 710 q 634 729 607 700 q 674 818 661 758 l 794 818 q 749 713 783 760 q 664 639 715 665 m 381 76 q 507 175 463 76 q 551 474 551 274 q 526 581 551 544 q 446 617 501 617 q 319 519 364 617 q 275 221 275 421 q 381 76 275 76 z "},"ớ":{"ha":729,"x_min":83,"x_max":794,"o":"m 664 639 q 743 424 743 564 q 696 192 743 292 q 562 39 649 93 q 361 -15 475 -15 q 158 59 232 -15 q 83 271 83 133 q 128 502 83 403 q 259 656 174 601 q 464 710 344 710 q 567 696 524 710 q 634 729 607 700 q 674 818 661 758 l 794 818 q 749 713 783 760 q 664 639 715 665 m 381 76 q 507 175 463 76 q 551 474 551 274 q 526 581 551 544 q 446 617 501 617 q 319 519 364 617 q 275 221 275 421 q 381 76 275 76 m 633 971 l 440 790 l 363 803 l 489 1014 l 633 971 z "},"ợ":{"ha":729,"x_min":83,"x_max":794,"o":"m 664 639 q 743 424 743 564 q 696 192 743 292 q 562 39 649 93 q 361 -15 475 -15 q 158 59 232 -15 q 83 271 83 133 q 128 502 83 403 q 259 656 174 601 q 464 710 344 710 q 567 696 524 710 q 634 729 607 700 q 674 818 661 758 l 794 818 q 749 713 783 760 q 664 639 715 665 m 381 76 q 507 175 463 76 q 551 474 551 274 q 526 581 551 544 q 446 617 501 617 q 319 519 364 617 q 275 221 275 421 q 381 76 275 76 m 275 -139 q 342 -114 304 -114 q 401 -139 378 -114 q 421 -192 421 -161 q 382 -275 421 -240 q 315 -299 350 -299 q 256 -275 276 -299 q 236 -221 236 -251 q 247 -177 236 -199 q 275 -139 257 -156 z "},"ờ":{"ha":729,"x_min":83,"x_max":794,"o":"m 664 639 q 743 424 743 564 q 696 192 743 292 q 562 39 649 93 q 361 -15 475 -15 q 158 59 232 -15 q 83 271 83 133 q 128 502 83 403 q 259 656 174 601 q 464 710 344 710 q 567 696 524 710 q 634 729 607 700 q 674 818 661 758 l 794 818 q 749 713 783 760 q 664 639 715 665 m 381 76 q 507 175 463 76 q 551 474 551 274 q 526 581 551 544 q 446 617 501 617 q 319 519 364 617 q 275 221 275 421 q 381 76 275 76 m 532 1025 l 621 821 l 532 797 l 378 976 l 532 1025 z "},"ở":{"ha":729,"x_min":83,"x_max":794,"o":"m 664 639 q 743 424 743 564 q 696 192 743 292 q 562 39 649 93 q 361 -15 475 -15 q 158 59 232 -15 q 83 271 83 133 q 128 502 83 403 q 259 656 174 601 q 464 710 344 710 q 567 696 524 710 q 634 729 607 700 q 674 818 661 758 l 794 818 q 749 713 783 760 q 664 639 715 665 m 381 76 q 507 175 463 76 q 551 474 551 274 q 526 581 551 544 q 446 617 501 617 q 319 519 364 617 q 275 221 275 421 q 381 76 275 76 m 440 775 q 444 804 440 779 q 452 821 446 814 q 466 833 458 828 q 476 842 474 839 q 502 862 493 853 q 514 886 511 871 q 515 903 515 893 q 469 942 515 942 q 438 936 453 942 q 415 925 424 931 q 404 918 406 919 l 374 997 q 394 1008 378 1000 q 435 1023 410 1015 q 488 1031 460 1031 q 617 936 617 1031 q 614 903 617 915 q 594 860 608 876 q 556 824 581 844 q 544 814 553 821 q 530 801 535 807 q 524 788 525 794 l 521 776 l 440 775 z "},"ỡ":{"ha":729,"x_min":83,"x_max":794,"o":"m 664 639 q 743 424 743 564 q 696 192 743 292 q 562 39 649 93 q 361 -15 475 -15 q 158 59 232 -15 q 83 271 83 133 q 128 502 83 403 q 259 656 174 601 q 464 710 344 710 q 567 696 524 710 q 634 729 607 700 q 674 818 661 758 l 794 818 q 749 713 783 760 q 664 639 715 665 m 381 76 q 507 175 463 76 q 551 474 551 274 q 526 581 551 544 q 446 617 501 617 q 319 519 364 617 q 275 221 275 421 q 381 76 275 76 m 754 931 q 733 898 754 926 q 675 845 713 869 q 583 821 638 821 q 531 829 553 821 q 474 856 508 838 q 424 879 446 871 q 376 888 403 888 q 335 874 354 888 q 303 844 315 860 q 289 825 292 829 l 246 875 q 272 912 246 879 q 339 972 297 944 q 433 1000 381 1000 q 494 991 469 1000 q 553 964 519 982 q 597 942 579 949 q 636 935 614 935 q 675 944 658 935 q 701 965 692 954 q 711 979 710 976 l 754 931 z "},"ő":{"ha":729,"x_min":83,"x_max":751,"o":"m 411 1025 l 535 989 l 374 781 l 308 813 l 411 1025 m 628 1025 l 751 989 l 590 781 l 524 813 l 628 1025 m 743 424 q 696 192 743 292 q 562 39 649 93 q 361 -15 475 -15 q 158 59 232 -15 q 83 271 83 133 q 128 502 83 403 q 259 656 174 601 q 464 710 344 710 q 669 635 594 710 q 743 424 743 561 m 446 617 q 319 519 364 617 q 275 221 275 421 q 381 76 275 76 q 507 175 463 76 q 551 474 551 274 q 526 581 551 544 q 446 617 501 617 z "},"ō":{"ha":729,"x_min":83,"x_max":743,"o":"m 635 867 l 336 867 l 347 947 l 644 947 l 635 867 m 743 424 q 696 192 743 292 q 562 39 649 93 q 361 -15 475 -15 q 158 59 232 -15 q 83 271 83 133 q 128 502 83 403 q 259 656 174 601 q 464 710 344 710 q 669 635 594 710 q 743 424 743 561 m 446 617 q 319 519 364 617 q 275 221 275 421 q 381 76 275 76 q 507 175 463 76 q 551 474 551 274 q 526 581 551 544 q 446 617 501 617 z "},"ø":{"ha":735,"x_min":65,"x_max":746,"o":"m 743 424 q 696 192 743 292 q 562 39 649 93 q 361 -15 475 -15 q 274 -4 315 -15 l 142 -254 l 65 -239 l 203 22 q 114 120 144 57 q 83 271 83 183 q 128 502 83 403 q 259 656 174 601 q 464 710 344 710 q 560 697 515 710 l 668 903 l 746 888 l 629 667 q 714 569 685 631 q 743 424 743 508 m 446 617 q 319 519 364 617 q 275 221 275 421 q 279 167 275 190 l 507 599 q 446 617 482 617 m 551 474 q 549 515 551 490 l 324 90 q 381 76 346 76 q 507 175 463 76 q 551 474 551 274 z "},"õ":{"ha":729,"x_min":83,"x_max":743,"o":"m 731 931 q 710 898 731 926 q 651 845 689 869 q 560 821 614 821 q 507 829 529 821 q 450 856 485 838 q 401 879 422 871 q 353 888 379 888 q 311 874 331 888 q 280 844 292 860 q 265 825 268 829 l 222 875 q 248 912 222 879 q 315 972 274 944 q 410 1000 357 1000 q 471 991 446 1000 q 529 964 496 982 q 573 942 556 949 q 613 935 590 935 q 651 944 635 935 q 677 965 668 954 q 688 979 686 976 l 731 931 m 743 424 q 696 192 743 292 q 562 39 649 93 q 361 -15 475 -15 q 158 59 232 -15 q 83 271 83 133 q 128 502 83 403 q 259 656 174 601 q 464 710 344 710 q 669 635 594 710 q 743 424 743 561 m 446 617 q 319 519 364 617 q 275 221 275 421 q 381 76 275 76 q 507 175 463 76 q 551 474 551 274 q 526 581 551 544 q 446 617 501 617 z "},"œ":{"ha":1121,"x_min":83,"x_max":1150,"o":"m 1101 104 q 1071 68 1101 99 q 983 11 1040 38 q 844 -15 926 -15 q 709 7 769 -15 q 608 74 649 29 q 361 -15 508 -15 q 158 59 232 -15 q 83 271 83 133 q 128 502 83 403 q 259 656 174 601 q 464 710 344 710 q 679 622 604 710 q 786 687 725 665 q 917 708 847 708 q 1088 653 1025 708 q 1150 514 1150 597 q 1028 335 1150 376 q 736 293 906 293 q 735 232 735 274 q 773 113 735 149 q 881 78 811 78 q 965 94 928 78 q 1024 131 1001 111 q 1046 154 1046 151 l 1101 104 m 894 619 q 796 557 836 619 q 742 372 756 494 q 865 383 814 372 q 951 428 917 393 q 985 532 985 463 q 894 619 985 619 m 446 617 q 319 519 364 617 q 275 221 275 421 q 381 76 275 76 q 507 175 463 76 q 551 474 551 274 q 526 581 551 544 q 446 617 501 617 z "},"p":{"ha":754,"x_min":32,"x_max":769,"o":"m 326 694 l 343 632 l 346 632 q 369 655 346 635 q 435 692 393 675 q 535 710 476 710 q 706 634 642 710 q 769 431 769 558 q 727 203 769 304 q 609 43 685 101 q 435 -15 533 -15 q 345 -3 381 -15 q 292 22 310 8 q 275 38 275 35 l 271 38 l 217 -347 l 32 -353 l 178 694 l 326 694 m 283 133 q 316 105 293 119 q 381 90 339 90 q 522 175 471 90 q 574 446 574 260 q 544 565 574 529 q 460 601 515 601 q 400 588 426 601 q 358 560 374 575 q 342 542 342 544 l 340 543 l 283 133 z "},"þ":{"ha":751,"x_min":29,"x_max":768,"o":"m 410 1047 l 353 643 l 360 643 q 378 663 360 646 q 435 694 397 679 q 529 708 474 708 q 703 632 638 708 q 768 426 768 556 q 725 202 768 303 q 603 43 682 101 q 418 -15 524 -15 q 267 26 325 -15 l 214 -347 l 29 -353 l 78 0 l 224 1036 l 410 1047 m 464 601 q 382 575 415 601 q 338 529 349 549 l 282 133 q 312 106 289 121 q 383 90 335 90 q 523 181 472 90 q 574 460 574 271 q 464 601 574 601 z "},"q":{"ha":754,"x_min":82,"x_max":771,"o":"m 438 -353 l 494 50 l 489 50 q 470 31 489 47 q 414 -1 451 14 q 321 -15 376 -15 q 147 62 211 -15 q 82 268 82 139 q 128 494 82 393 q 253 652 174 594 q 431 710 333 710 q 519 697 482 710 q 577 669 557 683 q 597 651 597 654 l 599 651 l 646 694 l 771 694 l 624 -347 l 438 -353 m 392 93 q 508 150 461 93 l 565 558 q 536 588 560 571 q 469 604 513 604 q 278 253 278 604 q 306 128 278 164 q 392 93 335 93 z "},"r":{"ha":490,"x_min":81,"x_max":582,"o":"m 551 561 q 500 572 539 564 q 431 581 461 581 q 336 500 372 581 l 265 0 l 81 0 l 178 694 l 308 694 l 324 578 l 328 578 q 343 618 328 585 q 388 681 358 651 q 464 710 418 710 q 531 701 493 710 q 582 690 569 693 l 551 561 z "},"ŕ":{"ha":490,"x_min":81,"x_max":596,"o":"m 596 971 l 403 790 l 325 803 l 451 1014 l 596 971 m 551 561 q 500 572 539 564 q 431 581 461 581 q 336 500 372 581 l 265 0 l 81 0 l 178 694 l 308 694 l 324 578 l 328 578 q 343 618 328 585 q 388 681 358 651 q 464 710 418 710 q 531 701 493 710 q 582 690 569 693 l 551 561 z "},"ř":{"ha":490,"x_min":81,"x_max":629,"o":"m 213 986 l 278 1035 l 410 906 l 578 1035 l 629 981 l 443 794 l 346 794 l 213 986 m 551 561 q 500 572 539 564 q 431 581 461 581 q 336 500 372 581 l 265 0 l 81 0 l 178 694 l 308 694 l 324 578 l 328 578 q 343 618 328 585 q 388 681 358 651 q 464 710 418 710 q 531 701 493 710 q 582 690 569 693 l 551 561 z "},"ŗ":{"ha":490,"x_min":28,"x_max":582,"o":"m 551 561 q 500 572 539 564 q 431 581 461 581 q 336 500 372 581 l 265 0 l 81 0 l 178 694 l 308 694 l 324 578 l 328 578 q 343 618 328 585 q 388 681 358 651 q 464 710 418 710 q 531 701 493 710 q 582 690 569 693 l 551 561 m 97 -86 q 160 -64 124 -64 q 217 -86 194 -64 q 244 -171 244 -119 q 192 -333 244 -246 q 63 -471 139 -419 l 28 -428 q 113 -333 83 -383 q 144 -236 143 -283 l 135 -236 q 79 -214 101 -236 q 61 -164 61 -192 q 70 -122 61 -143 q 97 -86 79 -101 z "},"s":{"ha":579,"x_min":50,"x_max":596,"o":"m 113 156 q 131 132 113 153 q 181 94 150 111 q 254 76 213 76 q 341 107 311 76 q 371 183 371 138 q 347 241 371 219 q 271 293 324 263 q 199 339 226 318 q 151 394 171 360 q 131 476 131 428 q 169 606 131 553 q 272 684 208 658 q 408 710 335 710 q 494 697 453 710 q 563 669 536 683 q 596 651 589 656 l 567 558 q 535 577 560 563 q 477 606 511 592 q 413 619 443 619 q 338 595 365 619 q 311 532 311 571 q 338 470 311 494 q 421 415 365 446 q 499 366 469 388 q 550 310 529 344 q 571 226 571 275 q 496 51 571 118 q 276 -15 421 -15 q 147 7 197 -15 q 74 53 97 29 q 50 83 50 78 l 113 156 z "},"ś":{"ha":579,"x_min":50,"x_max":633,"o":"m 633 971 l 440 790 l 363 803 l 489 1014 l 633 971 m 113 156 q 131 132 113 153 q 181 94 150 111 q 254 76 213 76 q 341 107 311 76 q 371 183 371 138 q 347 241 371 219 q 271 293 324 263 q 199 339 226 318 q 151 394 171 360 q 131 476 131 428 q 169 606 131 553 q 272 684 208 658 q 408 710 335 710 q 494 697 453 710 q 563 669 536 683 q 596 651 589 656 l 567 558 q 535 577 560 563 q 477 606 511 592 q 413 619 443 619 q 338 595 365 619 q 311 532 311 571 q 338 470 311 494 q 421 415 365 446 q 499 366 469 388 q 550 310 529 344 q 571 226 571 275 q 496 51 571 118 q 276 -15 421 -15 q 147 7 197 -15 q 74 53 97 29 q 50 83 50 78 l 113 156 z "},"š":{"ha":579,"x_min":50,"x_max":639,"o":"m 222 986 l 288 1035 l 419 906 l 588 1035 l 639 981 l 453 794 l 356 794 l 222 986 m 113 156 q 131 132 113 153 q 181 94 150 111 q 254 76 213 76 q 341 107 311 76 q 371 183 371 138 q 347 241 371 219 q 271 293 324 263 q 199 339 226 318 q 151 394 171 360 q 131 476 131 428 q 169 606 131 553 q 272 684 208 658 q 408 710 335 710 q 494 697 453 710 q 563 669 536 683 q 596 651 589 656 l 567 558 q 535 577 560 563 q 477 606 511 592 q 413 619 443 619 q 338 595 365 619 q 311 532 311 571 q 338 470 311 494 q 421 415 365 446 q 499 366 469 388 q 550 310 529 344 q 571 226 571 275 q 496 51 571 118 q 276 -15 421 -15 q 147 7 197 -15 q 74 53 97 29 q 50 83 50 78 l 113 156 z "},"ş":{"ha":579,"x_min":50,"x_max":596,"o":"m 113 156 q 131 132 113 153 q 181 94 150 111 q 254 76 213 76 q 341 107 311 76 q 371 183 371 138 q 347 241 371 219 q 271 293 324 263 q 199 339 226 318 q 151 394 171 360 q 131 476 131 428 q 169 606 131 553 q 272 684 208 658 q 408 710 335 710 q 494 697 453 710 q 563 669 536 683 q 596 651 589 656 l 567 558 q 535 577 560 563 q 477 606 511 592 q 413 619 443 619 q 338 595 365 619 q 311 532 311 571 q 338 470 311 494 q 421 415 365 446 q 499 366 469 388 q 550 310 529 344 q 571 226 571 275 q 503 58 571 124 q 304 -14 435 -8 l 290 -81 q 319 -93 290 -82 q 372 -128 347 -104 q 396 -193 396 -151 q 349 -305 396 -261 q 215 -349 303 -349 q 142 -335 169 -349 q 103 -305 115 -321 q 92 -285 92 -289 l 133 -244 q 142 -257 135 -247 q 165 -276 150 -267 q 203 -285 181 -285 q 286 -197 286 -285 q 267 -158 286 -169 q 230 -142 249 -146 q 211 -136 211 -137 l 242 -14 q 133 13 175 -8 q 70 57 90 35 q 50 83 50 79 l 113 156 z "},"ß":{"ha":811,"x_min":-117,"x_max":825,"o":"m 219 728 q 333 976 243 897 q 564 1056 422 1056 q 742 1008 678 1056 q 806 876 806 961 q 760 743 806 794 q 647 663 715 692 q 780 572 735 636 q 825 401 825 508 q 735 88 825 190 q 489 -15 646 -15 q 409 -8 440 -15 q 363 6 378 -1 q 349 15 349 14 l 382 103 q 392 97 383 101 q 419 88 401 92 q 460 83 436 83 q 543 120 504 83 q 606 235 582 157 q 631 431 631 313 q 594 558 631 522 q 472 594 557 594 l 486 694 q 524 708 486 690 q 591 767 561 726 q 621 874 621 807 q 540 963 621 963 q 453 910 483 963 q 404 728 422 858 l 297 -40 q 197 -285 274 -208 q 6 -362 119 -362 q -61 -353 -33 -362 q -103 -333 -89 -344 q -117 -321 -117 -322 l -75 -237 q -62 -246 -72 -239 q -37 -258 -53 -253 q -4 -264 -21 -264 q 67 -215 40 -264 q 113 -40 94 -165 l 219 728 z "},"ſ":{"ha":440,"x_min":-117,"x_max":633,"o":"m 228 793 q 308 987 247 918 q 485 1056 368 1056 q 553 1045 519 1056 q 607 1024 586 1035 q 633 1008 628 1013 l 599 929 q 579 940 594 932 q 542 955 564 947 q 503 963 521 963 q 463 947 479 963 q 433 891 446 932 q 410 772 421 850 l 294 -40 q 194 -285 271 -208 q 6 -362 118 -362 q -62 -353 -35 -362 q -103 -333 -89 -344 q -117 -321 -117 -322 l -75 -237 q -63 -246 -72 -239 q -38 -258 -54 -253 q -6 -264 -22 -264 q 67 -215 40 -264 q 111 -40 94 -165 l 228 793 z "},"t":{"ha":490,"x_min":124,"x_max":543,"o":"m 375 588 l 326 244 q 319 157 319 200 q 331 100 319 115 q 371 85 343 85 q 419 90 399 85 q 444 97 439 94 l 443 18 q 426 8 443 17 q 378 -8 410 0 q 299 -15 346 -15 q 173 20 214 -15 q 132 136 132 56 q 136 197 132 164 l 190 588 l 124 588 l 136 671 l 207 689 l 329 925 l 422 925 l 390 694 l 543 694 l 528 588 l 375 588 z "},"ť":{"ha":490,"x_min":124,"x_max":713,"o":"m 713 1092 l 572 767 l 507 772 l 589 1111 l 713 1092 m 375 588 l 326 244 q 319 157 319 200 q 331 100 319 115 q 371 85 343 85 q 419 90 399 85 q 444 97 439 94 l 443 18 q 426 8 443 17 q 378 -8 410 0 q 299 -15 346 -15 q 173 20 214 -15 q 132 136 132 56 q 136 197 132 164 l 190 588 l 124 588 l 136 671 l 207 689 l 329 925 l 422 925 l 390 694 l 543 694 l 528 588 l 375 588 z "},"ț":{"ha":490,"x_min":113,"x_max":543,"o":"m 375 588 l 326 244 q 319 157 319 200 q 331 100 319 115 q 371 85 343 85 q 419 90 399 85 q 444 97 439 94 l 443 18 q 426 8 443 17 q 378 -8 410 0 q 299 -15 346 -15 q 173 20 214 -15 q 132 136 132 56 q 136 197 132 164 l 190 588 l 124 588 l 136 671 l 207 689 l 329 925 l 422 925 l 390 694 l 543 694 l 528 588 l 375 588 m 182 -86 q 244 -64 208 -64 q 301 -86 279 -64 q 329 -171 329 -119 q 276 -333 329 -246 q 147 -471 224 -419 l 113 -428 q 198 -333 168 -383 q 229 -236 228 -283 l 219 -236 q 164 -214 186 -236 q 146 -164 146 -192 q 155 -122 146 -143 q 182 -86 164 -101 z "},"u":{"ha":742,"x_min":101,"x_max":757,"o":"m 511 0 l 493 61 l 490 61 q 467 38 490 58 q 399 1 443 18 q 292 -15 354 -15 q 101 164 101 -15 q 106 222 101 192 l 172 694 l 357 694 l 296 261 q 290 193 290 226 q 310 121 290 142 q 369 100 329 100 q 431 112 403 100 q 476 136 458 124 q 497 153 493 149 l 572 694 l 757 694 l 660 0 l 511 0 z "},"ú":{"ha":742,"x_min":101,"x_max":757,"o":"m 692 971 l 499 790 l 421 803 l 547 1014 l 692 971 m 511 0 l 493 61 l 490 61 q 467 38 490 58 q 399 1 443 18 q 292 -15 354 -15 q 101 164 101 -15 q 106 222 101 192 l 172 694 l 357 694 l 296 261 q 290 193 290 226 q 310 121 290 142 q 369 100 329 100 q 431 112 403 100 q 476 136 458 124 q 497 153 493 149 l 572 694 l 757 694 l 660 0 l 511 0 z "},"û":{"ha":742,"x_min":101,"x_max":757,"o":"m 678 876 l 631 814 l 503 932 l 340 814 l 310 876 l 469 1046 l 567 1046 l 678 876 m 511 0 l 493 61 l 490 61 q 467 38 490 58 q 399 1 443 18 q 292 -15 354 -15 q 101 164 101 -15 q 106 222 101 192 l 172 694 l 357 694 l 296 261 q 290 193 290 226 q 310 121 290 142 q 369 100 329 100 q 431 112 403 100 q 476 136 458 124 q 497 153 493 149 l 572 694 l 757 694 l 660 0 l 511 0 z "},"ü":{"ha":742,"x_min":101,"x_max":757,"o":"m 313 978 q 381 1001 343 1001 q 440 978 417 1001 q 460 921 460 951 q 419 833 460 869 q 353 808 389 808 q 293 833 315 808 q 274 890 274 857 q 284 937 274 914 q 313 978 294 960 m 571 978 q 638 1001 601 1001 q 699 978 672 1001 q 718 921 718 951 q 678 833 718 869 q 610 808 647 808 q 551 833 572 808 q 532 890 532 857 q 542 937 532 914 q 571 978 553 960 m 511 0 l 493 61 l 490 61 q 467 38 490 58 q 399 1 443 18 q 292 -15 354 -15 q 101 164 101 -15 q 106 222 101 192 l 172 694 l 357 694 l 296 261 q 290 193 290 226 q 310 121 290 142 q 369 100 329 100 q 431 112 403 100 q 476 136 458 124 q 497 153 493 149 l 572 694 l 757 694 l 660 0 l 511 0 z "},"ụ":{"ha":742,"x_min":101,"x_max":757,"o":"m 511 0 l 493 61 l 490 61 q 467 38 490 58 q 399 1 443 18 q 292 -15 354 -15 q 101 164 101 -15 q 106 222 101 192 l 172 694 l 357 694 l 296 261 q 290 193 290 226 q 310 121 290 142 q 369 100 329 100 q 431 112 403 100 q 476 136 458 124 q 497 153 493 149 l 572 694 l 757 694 l 660 0 l 511 0 m 285 -139 q 351 -114 314 -114 q 411 -139 388 -114 q 431 -192 431 -161 q 392 -275 431 -240 q 325 -299 360 -299 q 265 -275 286 -299 q 246 -221 246 -251 q 256 -177 246 -199 q 285 -139 267 -156 z "},"ù":{"ha":742,"x_min":101,"x_max":757,"o":"m 468 1025 l 557 821 l 468 797 l 314 976 l 468 1025 m 511 0 l 493 61 l 490 61 q 467 38 490 58 q 399 1 443 18 q 292 -15 354 -15 q 101 164 101 -15 q 106 222 101 192 l 172 694 l 357 694 l 296 261 q 290 193 290 226 q 310 121 290 142 q 369 100 329 100 q 431 112 403 100 q 476 136 458 124 q 497 153 493 149 l 572 694 l 757 694 l 660 0 l 511 0 z "},"ủ":{"ha":742,"x_min":101,"x_max":757,"o":"m 511 0 l 493 61 l 490 61 q 467 38 490 58 q 399 1 443 18 q 292 -15 354 -15 q 101 164 101 -15 q 106 222 101 192 l 172 694 l 357 694 l 296 261 q 290 193 290 226 q 310 121 290 142 q 369 100 329 100 q 431 112 403 100 q 476 136 458 124 q 497 153 493 149 l 572 694 l 757 694 l 660 0 l 511 0 m 439 775 q 443 804 439 779 q 451 821 444 814 q 465 833 457 828 q 475 842 472 839 q 501 862 492 853 q 513 886 510 871 q 514 903 514 893 q 468 942 514 942 q 437 936 451 942 q 413 925 422 931 q 403 918 404 919 l 372 997 q 392 1008 376 1000 q 433 1023 408 1015 q 486 1031 458 1031 q 615 936 615 1031 q 613 903 615 915 q 593 860 607 876 q 554 824 579 844 q 542 814 551 821 q 528 801 533 807 q 522 788 524 794 l 519 776 l 439 775 z "},"ư":{"ha":742,"x_min":101,"x_max":900,"o":"m 900 818 q 847 703 888 753 q 747 629 807 654 l 660 0 l 511 0 l 493 61 l 490 61 q 467 38 490 58 q 399 1 443 18 q 292 -15 354 -15 q 101 164 101 -15 q 106 222 101 192 l 172 694 l 357 694 l 296 261 q 290 193 290 226 q 310 121 290 142 q 369 100 329 100 q 431 112 403 100 q 476 136 458 124 q 497 153 493 149 l 572 694 l 656 694 q 734 724 703 694 q 779 818 765 753 l 900 818 z "},"ứ":{"ha":742,"x_min":101,"x_max":900,"o":"m 900 818 q 847 703 888 753 q 747 629 807 654 l 660 0 l 511 0 l 493 61 l 490 61 q 467 38 490 58 q 399 1 443 18 q 292 -15 354 -15 q 101 164 101 -15 q 106 222 101 192 l 172 694 l 357 694 l 296 261 q 290 193 290 226 q 310 121 290 142 q 369 100 329 100 q 431 112 403 100 q 476 136 458 124 q 497 153 493 149 l 572 694 l 656 694 q 734 724 703 694 q 779 818 765 753 l 900 818 m 636 971 l 443 790 l 365 803 l 492 1014 l 636 971 z "},"ự":{"ha":742,"x_min":101,"x_max":900,"o":"m 900 818 q 847 703 888 753 q 747 629 807 654 l 660 0 l 511 0 l 493 61 l 490 61 q 467 38 490 58 q 399 1 443 18 q 292 -15 354 -15 q 101 164 101 -15 q 106 222 101 192 l 172 694 l 357 694 l 296 261 q 290 193 290 226 q 310 121 290 142 q 369 100 329 100 q 431 112 403 100 q 476 136 458 124 q 497 153 493 149 l 572 694 l 656 694 q 734 724 703 694 q 779 818 765 753 l 900 818 m 229 -139 q 296 -114 258 -114 q 356 -139 332 -114 q 375 -192 375 -161 q 336 -275 375 -240 q 269 -299 304 -299 q 210 -275 231 -299 q 190 -221 190 -251 q 201 -177 190 -199 q 229 -139 211 -156 z "},"ừ":{"ha":742,"x_min":101,"x_max":900,"o":"m 900 818 q 847 703 888 753 q 747 629 807 654 l 660 0 l 511 0 l 493 61 l 490 61 q 467 38 490 58 q 399 1 443 18 q 292 -15 354 -15 q 101 164 101 -15 q 106 222 101 192 l 172 694 l 357 694 l 296 261 q 290 193 290 226 q 310 121 290 142 q 369 100 329 100 q 431 112 403 100 q 476 136 458 124 q 497 153 493 149 l 572 694 l 656 694 q 734 724 703 694 q 779 818 765 753 l 900 818 m 535 1025 l 624 821 l 535 797 l 381 976 l 535 1025 z "},"ử":{"ha":742,"x_min":101,"x_max":900,"o":"m 900 818 q 847 703 888 753 q 747 629 807 654 l 660 0 l 511 0 l 493 61 l 490 61 q 467 38 490 58 q 399 1 443 18 q 292 -15 354 -15 q 101 164 101 -15 q 106 222 101 192 l 172 694 l 357 694 l 296 261 q 290 193 290 226 q 310 121 290 142 q 369 100 329 100 q 431 112 403 100 q 476 136 458 124 q 497 153 493 149 l 572 694 l 656 694 q 734 724 703 694 q 779 818 765 753 l 900 818 m 443 775 q 447 804 443 779 q 455 821 449 814 q 469 833 461 828 q 479 842 476 839 q 505 862 496 853 q 517 886 514 871 q 518 903 518 893 q 472 942 518 942 q 441 936 456 942 q 417 925 426 931 q 407 918 408 919 l 376 997 q 397 1008 381 1000 q 438 1023 413 1015 q 490 1031 463 1031 q 619 936 619 1031 q 617 903 619 915 q 597 860 611 876 q 558 824 583 844 q 547 814 556 821 q 533 801 538 807 q 526 788 528 794 l 524 776 l 443 775 z "},"ữ":{"ha":742,"x_min":101,"x_max":900,"o":"m 900 818 q 847 703 888 753 q 747 629 807 654 l 660 0 l 511 0 l 493 61 l 490 61 q 467 38 490 58 q 399 1 443 18 q 292 -15 354 -15 q 101 164 101 -15 q 106 222 101 192 l 172 694 l 357 694 l 296 261 q 290 193 290 226 q 310 121 290 142 q 369 100 329 100 q 431 112 403 100 q 476 136 458 124 q 497 153 493 149 l 572 694 l 656 694 q 734 724 703 694 q 779 818 765 753 l 900 818 m 757 931 q 736 898 757 926 q 678 845 715 869 q 586 821 640 821 q 533 829 556 821 q 476 856 511 838 q 427 879 449 871 q 379 888 406 888 q 338 874 357 888 q 306 844 318 860 q 292 825 294 829 l 249 875 q 274 912 249 879 q 342 972 300 944 q 436 1000 383 1000 q 497 991 472 1000 q 556 964 522 982 q 599 942 582 949 q 639 935 617 935 q 678 944 661 935 q 703 965 694 954 q 714 979 713 976 l 757 931 z "},"ű":{"ha":742,"x_min":101,"x_max":772,"o":"m 432 1025 l 556 989 l 394 781 l 329 813 l 432 1025 m 649 1025 l 772 989 l 611 781 l 544 813 l 649 1025 m 511 0 l 493 61 l 490 61 q 467 38 490 58 q 399 1 443 18 q 292 -15 354 -15 q 101 164 101 -15 q 106 222 101 192 l 172 694 l 357 694 l 296 261 q 290 193 290 226 q 310 121 290 142 q 369 100 329 100 q 431 112 403 100 q 476 136 458 124 q 497 153 493 149 l 572 694 l 757 694 l 660 0 l 511 0 z "},"ū":{"ha":742,"x_min":101,"x_max":757,"o":"m 651 867 l 353 867 l 364 947 l 661 947 l 651 867 m 511 0 l 493 61 l 490 61 q 467 38 490 58 q 399 1 443 18 q 292 -15 354 -15 q 101 164 101 -15 q 106 222 101 192 l 172 694 l 357 694 l 296 261 q 290 193 290 226 q 310 121 290 142 q 369 100 329 100 q 431 112 403 100 q 476 136 458 124 q 497 153 493 149 l 572 694 l 757 694 l 660 0 l 511 0 z "},"ų":{"ha":742,"x_min":101,"x_max":757,"o":"m 601 0 q 517 -72 557 -22 q 478 -206 478 -122 q 502 -263 478 -247 q 574 -279 526 -279 l 564 -347 q 411 -318 467 -347 q 356 -211 356 -289 q 510 1 356 -94 l 493 61 l 490 61 q 467 38 490 58 q 399 1 443 18 q 292 -15 354 -15 q 101 164 101 -15 q 106 222 101 192 l 172 694 l 357 694 l 296 261 q 290 193 290 226 q 310 121 290 142 q 369 100 329 100 q 431 112 403 100 q 476 136 458 124 q 497 153 493 149 l 572 694 l 757 694 l 660 0 l 601 0 z "},"ů":{"ha":742,"x_min":101,"x_max":757,"o":"m 646 933 q 599 808 646 856 q 481 761 553 761 q 386 794 421 761 q 351 888 351 828 q 398 1013 351 967 q 517 1060 444 1060 q 610 1026 574 1060 q 646 933 646 992 m 583 928 q 563 983 583 964 q 510 1001 542 1001 q 442 974 468 1001 q 415 896 415 947 q 436 840 415 860 q 489 821 457 821 q 558 849 532 821 q 583 928 583 876 m 511 0 l 493 61 l 490 61 q 467 38 490 58 q 399 1 443 18 q 292 -15 354 -15 q 101 164 101 -15 q 106 222 101 192 l 172 694 l 357 694 l 296 261 q 290 193 290 226 q 310 121 290 142 q 369 100 329 100 q 431 112 403 100 q 476 136 458 124 q 497 153 493 149 l 572 694 l 757 694 l 660 0 l 511 0 z "},"ũ":{"ha":742,"x_min":101,"x_max":757,"o":"m 511 0 l 493 61 l 490 61 q 467 38 490 58 q 399 1 443 18 q 292 -15 354 -15 q 101 164 101 -15 q 106 222 101 192 l 172 694 l 357 694 l 296 261 q 290 193 290 226 q 310 121 290 142 q 369 100 329 100 q 431 112 403 100 q 476 136 458 124 q 497 153 493 149 l 572 694 l 757 694 l 660 0 l 511 0 m 753 931 q 732 898 753 926 q 674 845 711 869 q 582 821 636 821 q 529 829 551 821 q 472 856 507 838 q 423 879 444 871 q 375 888 401 888 q 333 874 353 888 q 302 844 314 860 q 288 825 290 829 l 244 875 q 270 912 244 879 q 338 972 296 944 q 432 1000 379 1000 q 493 991 468 1000 q 551 964 518 982 q 595 942 578 949 q 635 935 613 935 q 674 944 657 935 q 699 965 690 954 q 710 979 708 976 l 753 931 z "},"v":{"ha":664,"x_min":108,"x_max":750,"o":"m 108 694 l 332 694 l 399 200 l 404 200 l 629 694 l 750 694 l 407 0 l 253 0 l 108 694 z "},"w":{"ha":985,"x_min":111,"x_max":1067,"o":"m 1067 694 l 767 0 l 618 0 l 557 453 l 557 454 l 553 454 l 361 0 l 213 0 l 111 694 l 321 694 l 358 232 l 363 232 l 558 694 l 686 694 l 767 232 l 771 232 l 947 694 l 1067 694 z "},"x":{"ha":657,"x_min":13,"x_max":714,"o":"m 476 378 l 644 0 l 424 0 l 329 260 l 142 0 l 13 0 l 274 335 l 121 694 l 342 694 l 422 449 l 588 694 l 714 694 l 476 378 z "},"y":{"ha":678,"x_min":-12,"x_max":763,"o":"m 17 -233 q 42 -242 22 -236 q 85 -249 63 -249 q 195 -199 149 -249 q 306 -28 242 -149 l 113 694 l 335 694 l 436 203 l 649 694 l 763 694 l 421 -15 q 262 -276 336 -190 q 92 -362 188 -362 q 37 -358 60 -362 q 2 -348 14 -353 q -12 -342 -10 -343 l 17 -233 z "},"ý":{"ha":678,"x_min":-12,"x_max":763,"o":"m 674 971 l 481 790 l 403 803 l 529 1014 l 674 971 m 17 -233 q 42 -242 22 -236 q 85 -249 63 -249 q 195 -199 149 -249 q 306 -28 242 -149 l 113 694 l 335 694 l 436 203 l 649 694 l 763 694 l 421 -15 q 262 -276 336 -190 q 92 -362 188 -362 q 37 -358 60 -362 q 2 -348 14 -353 q -12 -342 -10 -343 l 17 -233 z "},"ÿ":{"ha":678,"x_min":-12,"x_max":763,"o":"m 294 978 q 363 1001 325 1001 q 422 978 399 1001 q 442 921 442 951 q 401 833 442 869 q 335 808 371 808 q 275 833 299 808 q 256 890 256 857 q 266 937 256 914 q 294 978 276 960 m 553 978 q 619 1001 583 1001 q 681 978 654 1001 q 700 921 700 951 q 660 833 700 869 q 592 808 629 808 q 533 833 554 808 q 514 890 514 857 q 524 937 514 914 q 553 978 535 960 m 17 -233 q 42 -242 22 -236 q 85 -249 63 -249 q 195 -199 149 -249 q 306 -28 242 -149 l 113 694 l 335 694 l 436 203 l 649 694 l 763 694 l 421 -15 q 262 -276 336 -190 q 92 -362 188 -362 q 37 -358 60 -362 q 2 -348 14 -353 q -12 -342 -10 -343 l 17 -233 z "},"ỵ":{"ha":678,"x_min":-12,"x_max":763,"o":"m 17 -233 q 42 -242 22 -236 q 85 -249 63 -249 q 195 -199 149 -249 q 306 -28 242 -149 l 113 694 l 335 694 l 436 203 l 649 694 l 763 694 l 421 -15 q 262 -276 336 -190 q 92 -362 188 -362 q 37 -358 60 -362 q 2 -348 14 -353 q -12 -342 -10 -343 l 17 -233 m 406 -139 q 472 -114 435 -114 q 532 -139 508 -114 q 551 -192 551 -161 q 513 -275 551 -240 q 446 -299 481 -299 q 386 -275 407 -299 q 367 -221 367 -251 q 377 -177 367 -199 q 406 -139 388 -156 z "},"ỳ":{"ha":678,"x_min":-12,"x_max":763,"o":"m 17 -233 q 42 -242 22 -236 q 85 -249 63 -249 q 195 -199 149 -249 q 306 -28 242 -149 l 113 694 l 335 694 l 436 203 l 649 694 l 763 694 l 421 -15 q 262 -276 336 -190 q 92 -362 188 -362 q 37 -358 60 -362 q 2 -348 14 -353 q -12 -342 -10 -343 l 17 -233 m 461 1025 l 550 821 l 461 797 l 307 976 l 461 1025 z "},"ỷ":{"ha":678,"x_min":-12,"x_max":763,"o":"m 17 -233 q 42 -242 22 -236 q 85 -249 63 -249 q 195 -199 149 -249 q 306 -28 242 -149 l 113 694 l 335 694 l 436 203 l 649 694 l 763 694 l 421 -15 q 262 -276 336 -190 q 92 -362 188 -362 q 37 -358 60 -362 q 2 -348 14 -353 q -12 -342 -10 -343 l 17 -233 m 369 775 q 374 804 369 779 q 381 821 375 814 q 395 833 388 828 q 406 842 403 839 q 431 862 422 853 q 443 886 440 871 q 444 903 444 893 q 399 942 444 942 q 367 936 382 942 q 344 925 353 931 q 333 918 335 919 l 303 997 q 323 1008 307 1000 q 364 1023 339 1015 q 417 1031 389 1031 q 546 936 546 1031 q 543 903 546 915 q 524 860 538 876 q 485 824 510 844 q 473 814 482 821 q 459 801 464 807 q 453 788 454 794 l 450 776 l 369 775 z "},"ỹ":{"ha":678,"x_min":-12,"x_max":763,"o":"m 17 -233 q 42 -242 22 -236 q 85 -249 63 -249 q 195 -199 149 -249 q 306 -28 242 -149 l 113 694 l 335 694 l 436 203 l 649 694 l 763 694 l 421 -15 q 262 -276 336 -190 q 92 -362 188 -362 q 37 -358 60 -362 q 2 -348 14 -353 q -12 -342 -10 -343 l 17 -233 m 683 931 q 663 898 683 926 q 604 845 642 869 q 513 821 567 821 q 460 829 482 821 q 403 856 438 838 q 353 879 375 871 q 306 888 332 888 q 264 874 283 888 q 233 844 244 860 q 218 825 221 829 l 175 875 q 201 912 175 879 q 268 972 226 944 q 363 1000 310 1000 q 424 991 399 1000 q 482 964 449 982 q 526 942 508 949 q 565 935 543 935 q 604 944 588 935 q 630 965 621 954 q 640 979 639 976 l 683 931 z "},"z":{"ha":603,"x_min":36,"x_max":663,"o":"m 650 611 l 264 94 l 567 94 l 556 0 l 36 0 l 47 83 l 439 600 l 147 600 l 156 694 l 663 694 l 650 611 z "},"ź":{"ha":603,"x_min":36,"x_max":663,"o":"m 636 971 l 443 790 l 365 803 l 492 1014 l 636 971 m 650 611 l 264 94 l 567 94 l 556 0 l 36 0 l 47 83 l 439 600 l 147 600 l 156 694 l 663 694 l 650 611 z "},"ž":{"ha":603,"x_min":36,"x_max":664,"o":"m 247 986 l 313 1035 l 444 906 l 613 1035 l 664 981 l 478 794 l 381 794 l 247 986 m 650 611 l 264 94 l 567 94 l 556 0 l 36 0 l 47 83 l 439 600 l 147 600 l 156 694 l 663 694 l 650 611 z "},"ż":{"ha":603,"x_min":36,"x_max":663,"o":"m 382 983 q 458 1011 414 1011 q 526 985 501 1011 q 547 922 547 958 q 536 870 547 896 q 504 825 525 844 q 428 799 469 799 q 360 826 383 799 q 338 889 338 850 q 349 940 338 914 q 382 983 361 965 m 650 611 l 264 94 l 567 94 l 556 0 l 36 0 l 47 83 l 439 600 l 147 600 l 156 694 l 663 694 l 650 611 z "},"ﬁ":{"ha":793,"x_min":-121,"x_max":850,"o":"m 511 1056 q 686 985 597 1056 q 761 1011 718 1011 q 829 985 804 1011 q 850 922 850 957 q 839 870 850 896 q 807 825 828 844 q 731 799 772 799 q 663 826 686 799 q 640 889 640 850 q 643 915 640 899 q 535 960 586 960 q 471 944 494 960 q 433 890 447 929 q 407 772 418 850 l 396 694 l 572 694 l 557 588 l 381 588 l 292 -40 q 192 -286 268 -210 q 1 -362 115 -362 q -65 -353 -37 -362 q -107 -333 -93 -344 q -121 -321 -121 -322 l -79 -237 q -67 -246 -76 -239 q -41 -258 -57 -253 q -8 -264 -25 -264 q 63 -215 36 -264 q 107 -40 90 -165 l 196 588 l 131 588 l 143 671 l 210 690 l 225 793 q 310 988 244 919 q 511 1056 376 1056 m 711 0 l 526 0 l 624 694 l 808 694 l 711 0 z "},"ﬂ":{"ha":806,"x_min":-121,"x_max":871,"o":"m 539 0 l 667 914 q 511 963 563 963 q 463 947 482 963 q 431 890 444 931 q 407 772 418 849 l 396 694 l 569 694 l 554 588 l 381 588 l 292 -40 q 192 -286 268 -210 q 1 -362 115 -362 q -65 -353 -37 -362 q -107 -333 -93 -344 q -121 -321 -121 -322 l -79 -237 q -67 -246 -76 -239 q -41 -258 -57 -253 q -8 -264 -25 -264 q 63 -215 36 -264 q 107 -40 90 -165 l 196 588 l 128 588 l 140 671 l 210 690 l 225 793 q 308 985 243 914 q 472 1056 372 1056 q 681 1008 565 1056 l 685 1036 l 871 1047 l 724 0 l 539 0 z "},"ª":{"ha":574,"x_min":118,"x_max":611,"o":"m 413 499 q 369 451 403 476 q 264 426 335 426 q 156 460 193 426 q 118 551 118 493 q 219 707 118 658 q 444 764 319 756 l 446 771 q 449 806 449 796 q 431 862 449 844 q 372 879 413 879 q 308 866 339 879 q 257 839 276 853 q 233 821 238 825 l 206 869 q 231 893 206 872 q 301 931 256 914 q 414 949 347 949 q 561 913 511 949 q 611 799 611 876 q 608 758 611 786 l 564 444 l 438 444 l 413 499 m 340 510 q 391 525 374 510 q 415 557 408 540 l 436 704 q 319 664 358 694 q 281 569 281 633 q 340 510 281 510 z "},"º":{"ha":610,"x_min":133,"x_max":669,"o":"m 669 732 q 588 509 669 592 q 364 426 507 426 q 192 483 250 426 q 133 642 133 539 q 211 866 133 783 q 438 949 289 949 q 611 892 553 949 q 669 732 669 835 m 428 876 q 303 606 303 876 q 374 496 303 496 q 499 768 499 496 q 428 876 499 876 z "},"Ԯ":{"ha":910,"x_min":33,"x_max":894,"o":"m 703 0 l 574 0 l 688 803 l 496 803 q 337 190 436 393 q 107 -14 238 -14 q 53 -9 74 -14 q 33 -3 33 -4 l 57 119 q 74 115 61 118 q 99 113 86 113 q 268 297 196 113 q 401 903 340 482 l 894 903 l 779 100 l 892 100 l 804 -243 l 700 -243 l 703 0 z "},"Ԩ":{"ha":928,"x_min":-150,"x_max":950,"o":"m 21 -299 q -80 -286 -42 -299 q -134 -259 -118 -274 q -150 -242 -150 -244 l -96 -161 q -84 -174 -94 -164 q -53 -192 -74 -183 q -6 -200 -33 -200 q 78 -155 47 -200 q 126 14 110 -110 l 254 903 l 446 903 l 389 508 l 701 508 l 758 903 l 950 903 l 821 0 l 629 0 l 688 411 l 375 411 l 318 14 q 222 -228 294 -158 q 21 -299 150 -299 z "},"А":{"ha":844,"x_min":26,"x_max":819,"o":"m 665 903 l 819 0 l 617 0 l 575 253 l 261 253 l 143 0 l 26 0 l 453 903 l 665 903 m 494 765 l 300 340 l 561 340 l 496 765 l 494 765 z "},"Б":{"ha":768,"x_min":107,"x_max":763,"o":"m 413 803 l 378 557 l 436 557 q 678 501 593 557 q 763 333 763 446 q 717 158 763 233 q 581 42 671 83 q 364 0 492 0 l 107 0 l 233 903 l 740 903 l 726 803 l 413 803 m 311 90 l 374 90 q 515 153 464 90 q 565 344 565 215 q 531 442 565 414 q 425 469 496 469 l 365 469 l 311 90 z "},"В":{"ha":790,"x_min":107,"x_max":797,"o":"m 508 903 q 726 845 654 903 q 797 699 797 788 q 750 561 797 618 q 632 471 703 504 q 740 403 700 449 q 779 292 779 358 q 735 143 779 210 q 602 38 690 76 q 389 0 514 0 l 107 0 l 233 903 l 508 903 m 483 501 q 540 524 510 501 q 590 590 569 547 q 610 690 610 632 q 578 783 610 753 q 492 813 546 813 l 414 813 l 369 501 l 483 501 m 311 90 l 397 90 q 535 149 482 90 q 588 304 588 208 q 559 391 588 364 q 482 418 531 418 l 357 418 l 311 90 z "},"Г":{"ha":608,"x_min":107,"x_max":719,"o":"m 410 803 l 299 0 l 107 0 l 235 903 l 719 903 l 711 803 l 410 803 z "},"Ѓ":{"ha":608,"x_min":107,"x_max":719,"o":"m 672 1158 l 479 978 l 401 990 l 528 1201 l 672 1158 m 410 803 l 299 0 l 107 0 l 235 903 l 719 903 l 711 803 l 410 803 z "},"Ґ":{"ha":583,"x_min":107,"x_max":718,"o":"m 718 1042 l 694 797 l 411 797 l 299 0 l 107 0 l 233 903 l 567 903 l 625 1042 l 718 1042 z "},"Д":{"ha":897,"x_min":13,"x_max":879,"o":"m 765 100 l 879 100 l 797 -243 l 690 -243 l 693 0 l 199 0 l 108 -243 l 13 -243 l 46 100 l 140 100 q 265 399 215 222 q 358 903 314 576 l 879 903 l 765 100 m 457 803 q 368 374 415 533 q 253 100 321 215 l 575 100 l 674 803 l 457 803 z "},"Е":{"ha":728,"x_min":107,"x_max":775,"o":"m 668 0 l 107 0 l 233 903 l 775 903 l 761 803 l 411 803 l 369 506 l 679 506 l 664 408 l 357 408 l 314 100 l 682 100 l 668 0 z "},"Ѐ":{"ha":728,"x_min":107,"x_max":775,"o":"m 513 1213 l 601 1008 l 513 985 l 358 1164 l 513 1213 m 668 0 l 107 0 l 233 903 l 775 903 l 761 803 l 411 803 l 369 506 l 679 506 l 664 408 l 357 408 l 314 100 l 682 100 l 668 0 z "},"Ё":{"ha":728,"x_min":107,"x_max":775,"o":"m 338 1165 q 406 1189 368 1189 q 465 1165 442 1189 q 485 1108 485 1139 q 444 1021 485 1057 q 378 996 414 996 q 318 1021 340 996 q 299 1078 299 1044 q 309 1124 299 1101 q 338 1165 319 1147 m 596 1165 q 663 1189 626 1189 q 724 1165 697 1189 q 743 1108 743 1139 q 703 1021 743 1057 q 635 996 672 996 q 576 1021 597 996 q 557 1078 557 1044 q 567 1124 557 1101 q 596 1165 578 1147 m 668 0 l 107 0 l 233 903 l 775 903 l 761 803 l 411 803 l 369 506 l 679 506 l 664 408 l 357 408 l 314 100 l 682 100 l 668 0 z "},"Ж":{"ha":1243,"x_min":29,"x_max":1296,"o":"m 785 561 l 894 561 l 1158 903 l 1296 903 l 1004 558 l 1214 0 l 990 0 l 843 461 l 771 461 l 707 0 l 515 0 l 579 460 l 500 460 l 254 0 l 29 0 l 364 528 l 196 903 l 333 903 l 471 561 l 593 561 l 642 903 l 833 903 l 785 561 z "},"З":{"ha":710,"x_min":35,"x_max":731,"o":"m 204 854 q 245 872 204 856 q 343 903 286 889 q 458 917 400 917 q 659 863 588 917 q 731 717 731 810 q 680 564 731 625 q 554 467 629 503 q 700 293 700 433 q 653 134 700 204 q 522 24 607 64 q 322 -15 436 -15 q 150 17 214 -15 q 60 84 86 49 q 35 129 35 119 l 104 201 q 128 167 104 196 q 199 113 153 138 q 313 88 246 88 q 440 145 393 88 q 488 307 488 203 q 461 391 488 367 q 383 415 435 415 l 249 404 l 264 511 l 407 499 q 461 525 433 500 q 508 598 489 550 q 528 711 528 646 q 407 819 528 819 q 324 806 368 819 q 249 778 281 793 q 210 760 218 764 l 204 854 z "},"И":{"ha":939,"x_min":107,"x_max":958,"o":"m 832 0 l 640 0 l 721 583 l 744 683 l 743 683 l 303 31 l 288 0 l 107 0 l 233 903 l 425 903 l 342 304 l 318 214 l 321 214 l 764 872 l 781 903 l 958 903 l 832 0 z "},"Й":{"ha":939,"x_min":107,"x_max":958,"o":"m 618 1054 q 689 1074 669 1054 q 708 1118 708 1093 q 707 1130 708 1125 q 706 1136 706 1135 l 708 1153 l 850 1140 q 833 1085 850 1125 q 763 1008 817 1046 q 606 969 708 969 q 450 1015 490 969 q 410 1115 410 1061 q 410 1132 410 1125 q 411 1140 411 1139 l 556 1153 l 553 1136 q 547 1123 551 1133 q 543 1101 543 1113 q 618 1054 543 1054 m 832 0 l 640 0 l 721 583 l 744 683 l 743 683 l 303 31 l 288 0 l 107 0 l 233 903 l 425 903 l 342 304 l 318 214 l 321 214 l 764 872 l 781 903 l 958 903 l 832 0 z "},"Ѝ":{"ha":939,"x_min":107,"x_max":958,"o":"m 589 1213 l 678 1008 l 589 985 l 435 1164 l 589 1213 m 832 0 l 640 0 l 721 583 l 744 683 l 743 683 l 303 31 l 288 0 l 107 0 l 233 903 l 425 903 l 342 304 l 318 214 l 321 214 l 764 872 l 781 903 l 958 903 l 832 0 z "},"Ҋ":{"ha":982,"x_min":104,"x_max":963,"o":"m 675 -243 l 754 0 l 638 0 l 721 583 l 743 683 l 742 683 l 300 31 l 285 0 l 104 0 l 233 903 l 425 903 l 339 304 l 317 214 l 319 214 l 764 872 l 781 903 l 958 903 l 843 100 l 963 100 l 958 69 l 778 -243 l 675 -243 z "},"К":{"ha":860,"x_min":107,"x_max":906,"o":"m 233 903 l 425 903 l 365 483 l 457 544 l 772 903 l 906 903 l 582 550 l 843 0 l 600 0 l 415 406 l 349 364 l 299 0 l 107 0 l 233 903 z "},"Ќ":{"ha":869,"x_min":107,"x_max":906,"o":"m 763 1158 l 569 978 l 492 990 l 618 1201 l 763 1158 m 233 903 l 425 903 l 365 483 l 457 544 l 772 903 l 906 903 l 582 550 l 843 0 l 600 0 l 415 406 l 349 364 l 299 0 l 107 0 l 233 903 z "},"Л":{"ha":872,"x_min":33,"x_max":892,"o":"m 765 0 l 574 0 l 686 803 l 494 803 q 336 190 436 393 q 106 -14 236 -14 q 53 -9 72 -14 q 33 -3 33 -4 l 56 119 q 70 115 58 118 q 96 113 82 113 q 266 299 193 113 q 399 903 339 485 l 892 903 l 765 0 z "},"М":{"ha":1189,"x_min":107,"x_max":1199,"o":"m 1082 0 l 894 0 l 979 683 l 976 683 l 629 0 l 486 0 l 331 683 l 326 683 l 226 0 l 107 0 l 244 903 l 476 903 l 636 238 l 642 238 l 983 903 l 1199 903 l 1082 0 z "},"Н":{"ha":910,"x_min":107,"x_max":929,"o":"m 803 0 l 611 0 l 668 411 l 356 411 l 299 0 l 107 0 l 233 903 l 425 903 l 369 508 l 682 508 l 738 903 l 929 903 l 803 0 z "},"О":{"ha":921,"x_min":106,"x_max":940,"o":"m 940 544 q 878 251 940 378 q 707 54 815 124 q 465 -15 599 -15 q 200 85 294 -15 q 106 360 106 185 q 161 649 106 522 q 323 846 217 775 q 578 917 429 917 q 851 813 761 917 q 940 544 940 708 m 736 585 q 694 753 736 690 q 568 817 653 817 q 308 313 308 817 q 351 144 308 206 q 475 83 394 83 q 665 203 593 83 q 736 585 736 322 z "},"П":{"ha":889,"x_min":107,"x_max":908,"o":"m 782 0 l 590 0 l 703 803 l 413 803 l 299 0 l 107 0 l 233 903 l 908 903 l 782 0 z "},"Р":{"ha":740,"x_min":107,"x_max":797,"o":"m 510 903 q 722 841 647 903 q 797 654 797 779 q 741 444 797 528 q 600 322 685 361 q 428 282 515 282 l 339 282 l 299 0 l 107 0 l 233 903 l 510 903 m 351 371 l 418 371 q 544 442 496 371 q 593 674 593 514 q 564 780 593 747 q 481 813 535 813 l 414 813 l 351 371 z "},"С":{"ha":800,"x_min":106,"x_max":853,"o":"m 824 739 q 779 762 814 744 q 694 796 744 779 q 599 813 644 813 q 391 699 469 813 q 313 336 313 585 q 367 149 313 210 q 521 89 422 89 q 640 117 588 89 q 724 176 692 144 q 757 213 757 208 l 807 146 q 767 98 807 139 q 655 21 728 57 q 479 -15 582 -15 q 203 83 300 -15 q 106 356 106 182 q 165 645 106 518 q 334 844 225 772 q 589 917 443 917 q 712 900 653 917 q 812 863 771 883 q 853 840 853 842 l 824 739 z "},"Т":{"ha":717,"x_min":132,"x_max":825,"o":"m 810 803 l 568 803 l 456 0 l 263 0 l 375 803 l 132 803 l 147 903 l 825 903 l 810 803 z "},"У":{"ha":828,"x_min":111,"x_max":925,"o":"m 796 903 l 925 903 l 594 278 q 429 53 513 122 q 244 -15 346 -15 q 174 -8 204 -15 q 129 8 144 0 q 111 19 114 17 l 150 136 q 166 126 153 133 q 203 113 179 119 q 257 107 228 107 q 351 127 310 107 q 433 203 392 147 l 160 903 l 385 903 l 558 400 l 561 400 l 796 903 z "},"Ў":{"ha":828,"x_min":111,"x_max":925,"o":"m 604 1054 q 675 1074 656 1054 q 694 1118 694 1093 q 693 1130 694 1125 q 692 1136 692 1135 l 694 1153 l 836 1140 q 819 1085 836 1125 q 749 1008 803 1046 q 592 969 694 969 q 436 1015 476 969 q 396 1115 396 1061 q 397 1132 396 1125 q 397 1140 397 1139 l 542 1153 l 539 1136 q 533 1123 538 1133 q 529 1101 529 1113 q 604 1054 529 1054 m 796 903 l 925 903 l 594 278 q 429 53 513 122 q 244 -15 346 -15 q 174 -8 204 -15 q 129 8 144 0 q 111 19 114 17 l 150 136 q 166 126 153 133 q 203 113 179 119 q 257 107 228 107 q 351 127 310 107 q 433 203 392 147 l 160 903 l 385 903 l 558 400 l 561 400 l 796 903 z "},"Ф":{"ha":1067,"x_min":93,"x_max":1101,"o":"m 743 813 q 1006 731 911 808 q 1101 510 1101 654 q 1042 288 1101 382 q 879 142 983 193 q 642 89 775 92 l 629 0 l 438 0 l 450 89 q 189 172 285 92 q 93 396 93 251 q 151 617 93 524 q 313 759 210 710 q 551 813 417 808 l 564 903 l 756 903 l 743 813 m 293 372 q 334 230 293 279 q 461 175 375 181 l 539 726 q 355 627 417 719 q 293 372 293 535 m 903 532 q 731 725 903 719 l 653 175 q 840 274 776 181 q 903 532 903 368 z "},"Х":{"ha":807,"x_min":11,"x_max":890,"o":"m 353 439 l 150 903 l 390 903 l 511 579 l 515 579 l 754 903 l 890 903 l 569 486 l 796 0 l 557 0 l 411 344 l 408 344 l 156 0 l 11 0 l 353 439 z "},"Ч":{"ha":814,"x_min":149,"x_max":833,"o":"m 514 0 l 565 369 q 538 352 565 367 q 462 325 510 338 q 350 313 414 313 q 197 367 244 313 q 149 517 149 421 q 153 582 149 549 l 199 903 l 390 903 l 349 606 q 342 528 342 554 q 365 447 342 469 q 436 424 388 424 q 578 458 508 424 l 640 903 l 833 903 l 707 0 l 514 0 z "},"Ц":{"ha":926,"x_min":107,"x_max":908,"o":"m 314 100 l 604 100 l 717 903 l 908 903 l 796 100 l 908 100 l 821 -243 l 717 -243 l 719 0 l 107 0 l 233 903 l 425 903 l 314 100 z "},"Ш":{"ha":1208,"x_min":107,"x_max":1228,"o":"m 714 100 l 922 100 l 1035 903 l 1228 903 l 1101 0 l 107 0 l 233 903 l 425 903 l 314 100 l 522 100 l 635 903 l 826 903 l 714 100 z "},"Щ":{"ha":1242,"x_min":107,"x_max":1228,"o":"m 1115 100 l 1221 100 l 1138 -243 l 1033 -243 l 1038 0 l 107 0 l 233 903 l 425 903 l 314 100 l 522 100 l 635 903 l 826 903 l 714 100 l 922 100 l 1035 903 l 1228 903 l 1115 100 z "},"Џ":{"ha":889,"x_min":107,"x_max":908,"o":"m 314 100 l 604 100 l 717 903 l 908 903 l 782 0 l 529 0 l 461 -283 l 354 -283 l 361 0 l 107 0 l 233 903 l 425 903 l 314 100 z "},"Ь":{"ha":768,"x_min":107,"x_max":763,"o":"m 425 903 l 376 557 l 442 557 q 763 333 763 557 q 662 91 763 182 q 369 0 561 0 l 107 0 l 233 903 l 425 903 m 311 90 l 378 90 q 517 156 467 90 q 567 347 567 222 q 532 441 567 413 q 429 469 497 469 l 364 469 l 311 90 z "},"Ъ":{"ha":894,"x_min":132,"x_max":889,"o":"m 132 803 l 147 903 l 551 903 l 503 557 l 568 557 q 889 333 889 557 q 788 91 889 182 q 496 0 688 0 l 233 0 l 346 803 l 132 803 m 438 90 l 504 90 q 643 156 593 90 q 693 347 693 222 q 658 441 693 413 q 556 469 624 469 l 490 469 l 438 90 z "},"Ы":{"ha":1118,"x_min":107,"x_max":1138,"o":"m 425 903 l 376 557 l 442 557 q 763 333 763 557 q 662 91 763 182 q 369 0 561 0 l 107 0 l 233 903 l 425 903 m 1011 0 l 819 0 l 946 903 l 1138 903 l 1011 0 m 311 90 l 378 90 q 517 156 467 90 q 567 347 567 222 q 532 441 567 413 q 429 469 497 469 l 364 469 l 311 90 z "},"Љ":{"ha":1235,"x_min":33,"x_max":1229,"o":"m 494 803 q 336 190 436 393 q 106 -14 236 -14 q 53 -9 72 -14 q 33 -3 33 -4 l 56 119 q 70 115 58 118 q 96 113 82 113 q 266 299 193 113 q 399 903 339 485 l 892 903 l 843 557 l 908 557 q 1229 333 1229 557 q 1128 91 1229 182 q 836 0 1028 0 l 574 0 l 686 803 l 494 803 m 778 90 l 844 90 q 983 156 933 90 q 1033 347 1033 222 q 999 441 1033 413 q 896 469 964 469 l 831 469 l 778 90 z "},"Њ":{"ha":1272,"x_min":107,"x_max":1265,"o":"m 356 411 l 299 0 l 107 0 l 233 903 l 425 903 l 369 508 l 681 508 l 736 903 l 929 903 l 881 557 l 944 557 q 1265 333 1265 557 q 1165 91 1265 182 q 872 0 1064 0 l 610 0 l 667 411 l 356 411 m 815 90 l 881 90 q 1019 156 969 90 q 1069 347 1069 222 q 1035 441 1069 413 q 932 469 1000 469 l 868 469 l 815 90 z "},"Ѕ":{"ha":683,"x_min":61,"x_max":711,"o":"m 681 758 q 649 777 674 763 q 584 806 624 792 q 501 819 544 819 q 405 786 442 819 q 368 693 368 753 q 401 609 368 643 q 500 532 433 575 q 590 465 556 494 q 649 392 625 436 q 674 286 674 347 q 626 124 674 192 q 501 20 579 56 q 331 -15 422 -15 q 183 13 243 -15 q 92 73 124 40 q 61 111 61 106 l 125 192 q 150 160 125 188 q 219 110 175 133 q 322 88 263 88 q 435 126 397 88 q 474 225 474 165 q 443 300 474 269 q 349 371 413 331 q 256 436 292 407 q 195 511 221 465 q 169 621 169 557 q 213 778 169 711 q 333 881 257 844 q 503 917 408 917 q 604 903 558 917 q 681 872 650 889 q 711 853 711 854 l 681 758 z "},"Є":{"ha":814,"x_min":104,"x_max":840,"o":"m 315 394 q 314 329 314 374 q 529 89 314 89 q 645 117 594 89 q 727 180 696 146 q 758 218 758 214 l 808 151 q 770 101 808 144 q 660 22 732 58 q 486 -15 589 -15 q 206 82 308 -15 q 104 351 104 179 q 163 639 104 510 q 331 842 222 768 q 582 917 440 917 q 703 901 646 917 q 800 866 760 885 q 840 846 840 847 l 811 744 q 768 766 801 750 q 685 797 735 782 q 590 813 636 813 q 412 731 479 813 q 324 492 344 650 l 732 492 l 718 394 l 315 394 z "},"Э":{"ha":783,"x_min":39,"x_max":806,"o":"m 106 219 q 133 181 106 215 q 208 119 161 147 q 319 90 256 90 q 490 163 422 90 q 585 403 558 236 l 196 403 l 210 501 l 594 501 q 599 606 599 550 q 548 767 599 719 q 399 814 497 814 q 307 800 353 814 q 231 772 261 786 q 193 753 201 757 l 183 850 q 231 872 193 856 q 324 902 268 888 q 435 917 379 917 q 710 821 615 917 q 806 554 806 725 q 749 259 806 389 q 589 57 693 129 q 347 -15 485 -15 q 176 18 244 -15 q 73 90 107 51 q 39 136 39 129 l 106 219 z "},"І":{"ha":407,"x_min":107,"x_max":425,"o":"m 299 0 l 107 0 l 233 903 l 425 903 l 299 0 z "},"Ї":{"ha":407,"x_min":107,"x_max":567,"o":"m 161 1165 q 229 1189 192 1189 q 289 1165 265 1189 q 308 1108 308 1139 q 268 1021 308 1057 q 201 996 236 996 q 142 1021 164 996 q 122 1078 122 1044 q 133 1124 122 1101 q 161 1165 143 1147 m 419 1165 q 486 1189 450 1189 q 547 1165 521 1189 q 567 1108 567 1139 q 526 1021 567 1057 q 458 996 494 996 q 400 1021 421 996 q 381 1078 381 1044 q 391 1124 381 1101 q 419 1165 401 1147 m 299 0 l 107 0 l 233 903 l 425 903 l 299 0 z "},"Ј":{"ha":556,"x_min":22,"x_max":565,"o":"m 54 121 q 69 109 57 118 q 102 92 81 100 q 150 83 124 83 q 236 129 203 83 q 288 297 269 175 l 372 903 l 565 903 l 479 297 q 385 55 456 125 q 190 -15 315 -15 q 99 -3 136 -15 q 42 24 63 10 q 22 40 22 38 l 54 121 z "},"Ћ":{"ha":965,"x_min":132,"x_max":919,"o":"m 540 804 l 496 494 l 499 494 q 528 516 499 497 q 606 551 557 535 q 718 567 654 567 q 872 520 825 567 q 919 385 919 474 q 915 322 919 356 l 871 0 l 676 0 l 717 285 q 722 361 722 325 q 701 434 722 415 q 628 453 679 453 q 542 435 581 453 q 483 400 504 418 l 426 0 l 233 0 l 347 804 l 132 804 l 147 903 l 768 903 l 754 804 l 540 804 z "},"Ю":{"ha":1282,"x_min":107,"x_max":1303,"o":"m 1303 539 q 1244 252 1303 378 q 1076 56 1186 126 q 817 -15 967 -15 q 557 83 646 -15 q 468 360 468 182 q 469 403 468 389 l 354 403 l 299 0 l 107 0 l 233 903 l 425 903 l 368 500 l 479 500 q 635 803 514 690 q 947 917 757 917 q 1211 816 1119 917 q 1303 539 1303 715 m 1097 583 q 1056 760 1097 699 q 935 822 1015 822 q 795 765 856 822 q 701 595 735 708 q 667 319 667 482 q 708 141 667 203 q 831 79 749 79 q 1026 208 954 79 q 1097 583 1097 338 z "},"Я":{"ha":803,"x_min":50,"x_max":822,"o":"m 503 0 l 551 349 l 449 349 l 247 0 l 50 0 l 289 372 q 190 448 226 397 q 153 576 153 499 q 199 753 153 679 q 322 865 244 826 q 494 903 400 903 l 822 903 l 696 0 l 503 0 m 344 567 q 370 476 344 508 q 439 444 396 444 l 565 444 l 618 811 l 490 811 q 418 782 451 811 q 365 697 385 753 q 344 567 344 642 z "},"Ђ":{"ha":936,"x_min":143,"x_max":931,"o":"m 550 804 l 507 494 l 510 494 q 538 516 510 497 q 615 551 567 535 q 728 567 664 567 q 882 520 833 567 q 931 386 931 474 q 925 322 931 367 l 919 288 q 828 51 896 118 q 643 -15 761 -15 q 578 -7 604 -15 q 539 12 551 1 q 526 24 526 22 l 563 93 q 572 86 564 92 q 591 76 579 81 q 618 71 603 71 q 680 106 653 71 q 722 246 707 142 l 728 285 q 733 360 733 324 q 712 434 733 415 q 638 453 690 453 q 493 400 564 453 l 438 0 l 244 0 l 357 804 l 143 804 l 157 903 l 778 903 l 764 804 l 550 804 z "},"Ѣ":{"ha":858,"x_min":125,"x_max":854,"o":"m 494 750 l 468 556 l 540 556 q 775 502 696 556 q 854 336 854 449 q 757 91 854 182 q 468 0 660 0 l 197 0 l 301 750 l 125 750 l 140 857 l 317 857 l 331 953 l 524 953 l 510 857 l 750 857 l 735 750 l 494 750 m 403 90 l 478 90 q 613 155 568 90 q 658 350 658 219 q 627 440 658 414 q 529 467 596 467 l 456 467 l 403 90 z "},"Ѫ":{"ha":1063,"x_min":22,"x_max":1046,"o":"m 38 106 q 181 457 74 356 q 440 561 288 558 l 272 903 l 1017 903 l 749 561 l 751 561 q 966 489 886 561 q 1046 238 1046 417 q 1036 106 1046 174 l 1021 0 l 851 0 l 867 108 q 878 246 878 193 q 830 417 878 369 q 685 467 782 464 l 618 0 l 425 0 l 492 467 q 357 434 411 464 q 265 327 303 404 q 207 108 228 250 l 192 0 l 22 0 l 38 106 m 635 556 l 825 806 l 526 806 l 635 556 z "},"Ѳ":{"ha":921,"x_min":106,"x_max":940,"o":"m 578 917 q 851 813 761 917 q 940 544 940 708 q 878 251 940 378 q 707 54 815 124 q 465 -15 599 -15 q 200 85 294 -15 q 106 360 106 185 q 161 649 106 522 q 323 846 217 775 q 578 917 429 917 m 568 817 q 318 494 360 817 l 733 494 q 736 585 736 550 q 694 753 736 690 q 568 817 653 817 m 475 83 q 637 161 571 83 q 725 408 703 239 l 311 408 q 308 313 308 347 q 351 144 308 206 q 475 83 394 83 z "},"Ѵ":{"ha":844,"x_min":139,"x_max":975,"o":"m 918 917 q 975 906 949 917 l 949 775 q 915 781 933 781 q 726 572 810 781 l 493 0 l 283 0 l 139 903 l 342 903 l 449 140 l 453 140 l 672 701 q 783 869 718 821 q 918 917 849 917 z "},"Ғ":{"ha":608,"x_min":99,"x_max":719,"o":"m 711 803 l 410 803 l 367 494 l 488 494 l 474 408 l 356 408 l 299 0 l 107 0 l 165 408 l 99 408 l 113 494 l 176 494 l 235 903 l 719 903 l 711 803 z "},"Ҕ":{"ha":794,"x_min":104,"x_max":797,"o":"m 104 0 l 233 903 l 736 903 l 721 803 l 410 803 l 296 0 l 104 0 m 428 -299 q 357 -293 383 -299 q 300 -271 331 -287 l 346 -185 q 413 -200 371 -200 q 473 -169 446 -200 q 525 -49 500 -137 q 574 203 550 39 q 586 353 586 294 q 563 465 586 433 q 488 496 539 496 q 361 454 426 496 l 375 554 q 569 610 490 610 q 692 589 643 610 q 769 513 742 568 q 797 357 797 457 q 785 203 797 293 q 649 -181 747 -64 q 428 -299 551 -299 z "},"Җ":{"ha":1226,"x_min":29,"x_max":1296,"o":"m 1004 558 l 1176 101 l 1257 101 l 1193 -206 l 1096 -206 l 1101 0 l 990 0 l 843 461 l 771 461 l 707 0 l 515 0 l 579 460 l 500 460 l 254 0 l 29 0 l 364 528 l 196 903 l 333 903 l 471 561 l 593 561 l 642 903 l 833 903 l 785 561 l 894 561 l 1158 903 l 1296 903 l 1004 558 z "},"Ҙ":{"ha":710,"x_min":35,"x_max":731,"o":"m 554 467 q 700 293 700 433 q 622 93 700 175 q 407 -10 543 11 l 347 -243 l 243 -243 l 246 -10 q 121 33 168 1 q 54 93 74 64 q 35 129 35 122 l 104 201 q 128 167 104 196 q 199 113 153 138 q 313 88 246 88 q 440 145 393 88 q 488 307 488 203 q 461 391 488 367 q 383 415 435 415 l 249 404 l 264 511 l 407 499 q 461 525 433 500 q 508 598 489 550 q 528 711 528 646 q 407 819 528 819 q 324 806 368 819 q 249 778 281 793 q 210 760 218 764 l 204 854 q 245 872 204 856 q 343 903 286 889 q 458 917 400 917 q 659 863 588 917 q 731 717 731 810 q 680 564 731 625 q 554 467 629 503 z "},"Қ":{"ha":838,"x_min":107,"x_max":906,"o":"m 582 550 l 794 101 l 868 101 l 804 -206 l 707 -206 l 713 0 l 600 0 l 415 406 l 349 364 l 299 0 l 107 0 l 233 903 l 425 903 l 365 483 l 457 544 l 772 903 l 906 903 l 582 550 z "},"Ҝ":{"ha":860,"x_min":65,"x_max":906,"o":"m 906 903 l 582 550 l 843 0 l 600 0 l 415 406 l 410 403 l 388 264 l 329 264 l 344 361 l 303 335 l 257 0 l 65 0 l 192 903 l 383 903 l 319 453 l 365 483 l 390 639 l 449 639 l 431 526 l 457 544 l 772 903 l 906 903 z "},"Ҟ":{"ha":892,"x_min":76,"x_max":939,"o":"m 385 485 l 490 544 l 806 903 l 939 903 l 615 550 l 875 0 l 632 0 l 447 406 l 368 364 l 317 0 l 125 0 l 222 685 l 76 685 l 90 785 l 236 785 l 253 903 l 444 903 l 428 785 l 569 785 l 556 685 l 414 685 l 385 485 z "},"Ҡ":{"ha":1014,"x_min":132,"x_max":1060,"o":"m 1060 903 l 736 550 l 997 0 l 754 0 l 569 406 l 503 364 l 453 0 l 261 0 l 374 803 l 132 803 l 149 903 l 579 903 l 519 483 l 611 544 l 926 903 l 1060 903 z "},"Ң":{"ha":910,"x_min":107,"x_max":932,"o":"m 817 100 l 932 100 l 844 -243 l 740 -243 l 743 0 l 611 0 l 668 411 l 356 411 l 299 0 l 107 0 l 233 903 l 425 903 l 369 508 l 682 508 l 738 903 l 929 903 l 817 100 z "},"Ҧ":{"ha":1278,"x_min":104,"x_max":1281,"o":"m 911 -299 q 840 -293 867 -299 q 783 -271 814 -287 l 829 -185 q 896 -200 854 -200 q 956 -169 929 -200 q 1008 -49 983 -137 q 1057 203 1033 39 q 1069 353 1069 294 q 1046 465 1069 433 q 971 496 1022 496 q 844 454 910 496 l 779 0 l 588 0 l 701 803 l 410 803 l 296 0 l 104 0 l 233 903 l 908 903 l 858 554 q 1053 610 974 610 q 1176 589 1126 610 q 1253 513 1225 568 q 1281 357 1281 457 q 1268 203 1281 293 q 1133 -181 1231 -64 q 911 -299 1035 -299 z "},"Ԥ":{"ha":889,"x_min":107,"x_max":911,"o":"m 796 100 l 911 100 l 824 -243 l 719 -243 l 722 0 l 590 0 l 703 803 l 413 803 l 299 0 l 107 0 l 233 903 l 908 903 l 796 100 z "},"Ҩ":{"ha":1039,"x_min":101,"x_max":1031,"o":"m 989 43 q 892 0 947 15 q 778 -15 838 -15 q 622 17 686 -15 q 542 -8 589 0 q 453 -15 494 -15 q 191 80 281 -15 q 101 342 101 175 q 108 442 101 399 q 258 787 140 668 q 549 917 375 906 l 533 813 q 397 710 449 797 q 319 442 346 622 q 308 307 308 360 q 351 135 308 186 q 472 83 394 83 q 536 90 510 83 q 450 357 450 211 q 456 431 450 397 q 574 703 482 618 q 788 789 667 789 q 1031 538 1031 789 q 1024 444 1031 488 q 947 240 1008 336 q 796 99 885 144 q 860 92 833 92 q 910 98 886 92 q 969 121 933 104 l 989 43 m 653 431 q 646 338 646 379 q 658 221 646 272 q 694 153 671 169 q 772 272 739 192 q 815 429 804 351 q 829 588 829 525 q 816 666 829 642 q 774 690 803 690 q 699 624 726 690 q 653 431 671 558 z "},"Ҫ":{"ha":800,"x_min":106,"x_max":853,"o":"m 599 813 q 391 699 469 813 q 313 336 313 585 q 367 149 313 210 q 521 89 422 89 q 640 117 588 89 q 724 176 692 144 q 757 213 757 208 l 807 146 q 775 106 807 140 q 685 35 743 71 q 544 -11 626 0 l 486 -243 l 382 -243 l 385 -7 q 177 113 249 18 q 106 356 106 207 q 165 645 106 518 q 334 844 225 772 q 589 917 443 917 q 712 900 653 917 q 812 863 771 883 q 853 840 853 842 l 824 739 q 779 762 814 744 q 694 796 744 779 q 599 813 644 813 z "},"Ҭ":{"ha":717,"x_min":132,"x_max":825,"o":"m 389 -243 l 392 0 l 261 0 l 375 803 l 132 803 l 147 903 l 825 903 l 810 803 l 568 803 l 468 100 l 581 100 l 493 -243 l 389 -243 z "},"Ү":{"ha":726,"x_min":117,"x_max":861,"o":"m 475 493 l 728 903 l 861 903 l 514 371 l 464 0 l 271 0 l 319 349 l 117 903 l 332 903 l 474 493 l 475 493 z "},"Ұ":{"ha":726,"x_min":117,"x_max":861,"o":"m 861 903 l 522 383 l 608 383 l 594 297 l 504 297 l 464 0 l 271 0 l 313 297 l 219 297 l 233 383 l 307 383 l 117 903 l 332 903 l 474 493 l 475 493 l 728 903 l 861 903 z "},"Ҳ":{"ha":854,"x_min":8,"x_max":890,"o":"m 667 -243 l 669 0 l 554 0 l 410 344 l 406 344 l 153 0 l 8 0 l 351 439 l 150 903 l 390 903 l 511 579 l 515 579 l 754 903 l 890 903 l 567 486 l 746 100 l 858 100 l 771 -243 l 667 -243 z "},"Ҷ":{"ha":814,"x_min":149,"x_max":835,"o":"m 835 100 l 747 -243 l 643 -243 l 646 0 l 514 0 l 565 369 q 538 352 565 367 q 462 325 510 338 q 350 313 414 313 q 197 367 244 313 q 149 517 149 421 q 153 582 149 549 l 199 903 l 390 903 l 349 606 q 342 528 342 554 q 365 447 342 469 q 436 424 388 424 q 578 458 508 424 l 640 903 l 833 903 l 721 100 l 835 100 z "},"Ҹ":{"ha":814,"x_min":149,"x_max":833,"o":"m 833 903 l 707 0 l 514 0 l 565 369 q 540 355 565 368 q 479 331 515 342 l 457 192 l 399 192 l 419 317 q 350 313 388 313 q 197 367 244 313 q 149 517 149 421 q 153 582 149 549 l 199 903 l 390 903 l 349 606 q 342 528 342 554 q 365 447 342 469 q 436 424 388 424 l 460 567 l 518 567 l 496 431 q 554 447 532 438 q 578 458 576 457 l 640 903 l 833 903 z "},"Һ":{"ha":811,"x_min":107,"x_max":792,"o":"m 426 903 l 375 533 q 403 551 375 536 q 478 578 431 565 q 590 590 526 590 q 744 536 696 590 q 792 386 792 482 q 788 321 792 354 l 742 0 l 550 0 l 592 297 q 599 375 599 349 q 576 457 599 435 q 504 479 554 479 q 363 444 432 479 l 300 0 l 107 0 l 233 903 l 426 903 z "},"Ԧ":{"ha":886,"x_min":104,"x_max":867,"o":"m 678 0 l 547 0 l 590 297 q 597 374 597 346 q 574 456 597 433 q 501 479 551 479 q 419 467 457 479 q 361 444 381 456 l 297 0 l 104 0 l 233 903 l 426 903 l 374 533 q 394 547 374 533 q 470 576 415 561 q 589 590 525 590 q 743 536 694 590 q 792 389 792 482 q 786 321 792 368 l 754 100 l 867 100 l 779 -243 l 675 -243 l 678 0 z "},"Ҽ":{"ha":1046,"x_min":47,"x_max":1072,"o":"m 214 679 q 211 619 211 638 q 229 542 211 569 q 296 506 247 514 q 462 805 340 693 q 754 917 583 917 q 990 826 908 917 q 1072 575 1072 736 q 1065 478 1072 536 l 1060 446 q 1054 408 1058 428 l 492 408 q 486 325 486 347 q 538 144 486 199 q 688 89 589 89 q 810 117 753 89 q 905 180 867 146 q 943 218 943 214 l 993 151 q 948 102 993 146 q 825 22 903 58 q 644 -15 747 -15 q 372 78 468 -15 q 275 342 275 172 q 279 411 275 376 q 103 465 160 418 q 47 608 47 513 q 49 647 47 633 l 214 679 m 871 506 q 879 607 879 563 q 837 768 879 719 q 731 817 794 817 q 592 745 653 817 q 507 506 531 674 l 871 506 z "},"Ҿ":{"ha":1092,"x_min":47,"x_max":1072,"o":"m 544 -6 q 345 108 415 18 q 275 340 275 197 q 279 411 275 374 q 103 465 160 418 q 47 608 47 513 q 49 647 47 633 l 214 679 q 211 619 211 638 q 228 542 211 569 q 294 506 246 514 q 460 805 339 693 q 753 917 582 917 q 990 826 907 917 q 1072 574 1072 736 q 1065 478 1072 533 q 1060 442 1064 468 q 1053 408 1056 417 l 490 408 q 486 328 486 365 q 538 144 486 200 q 688 89 589 89 q 810 117 753 89 q 905 180 867 146 q 943 218 943 214 l 993 151 q 956 110 993 147 q 857 38 919 74 q 711 -10 794 1 l 646 -283 l 539 -283 l 544 -6 m 869 506 q 878 607 878 563 q 835 768 878 719 q 729 817 793 817 q 590 745 651 817 q 506 506 529 674 l 869 506 z "},"Ӏ":{"ha":407,"x_min":107,"x_max":425,"o":"m 299 0 l 107 0 l 233 903 l 425 903 l 299 0 z "},"Ӂ":{"ha":1243,"x_min":29,"x_max":1296,"o":"m 785 561 l 894 561 l 1158 903 l 1296 903 l 1004 558 l 1214 0 l 990 0 l 843 461 l 771 461 l 707 0 l 515 0 l 579 460 l 500 460 l 254 0 l 29 0 l 364 528 l 196 903 l 333 903 l 471 561 l 593 561 l 642 903 l 833 903 l 785 561 m 758 1075 q 829 1094 810 1075 q 849 1139 849 1114 q 847 1151 849 1146 q 846 1157 846 1156 l 849 1174 l 990 1161 q 974 1106 990 1146 q 903 1028 957 1067 q 746 990 849 990 q 590 1036 631 990 q 550 1136 550 1082 q 551 1153 550 1146 q 551 1161 551 1160 l 696 1174 l 693 1157 q 688 1144 692 1154 q 683 1122 683 1133 q 758 1075 683 1075 z "},"Ӄ":{"ha":853,"x_min":104,"x_max":906,"o":"m 546 -242 q 595 -196 574 -226 q 617 -114 617 -165 q 569 83 617 -43 q 411 392 521 210 l 346 350 l 296 0 l 104 0 l 233 903 l 425 903 l 363 471 l 453 531 l 772 903 l 906 903 l 579 536 q 751 202 704 324 q 797 11 797 81 q 794 -28 797 -6 q 744 -165 785 -99 q 601 -299 704 -232 l 546 -242 z "},"Ӆ":{"ha":918,"x_min":33,"x_max":899,"o":"m 690 0 l 574 0 l 688 803 l 496 803 q 337 190 436 393 q 107 -14 238 -14 q 53 -9 74 -14 q 33 -3 33 -4 l 57 119 q 74 115 61 118 q 99 113 86 113 q 268 297 196 113 q 401 903 340 482 l 894 903 l 779 100 l 899 100 l 894 69 l 714 -243 l 611 -243 l 690 0 z "},"Ӈ":{"ha":907,"x_min":104,"x_max":929,"o":"m 504 -299 q 403 -286 442 -299 q 349 -259 365 -274 q 333 -242 333 -244 l 388 -161 q 399 -174 389 -164 q 430 -192 410 -183 q 478 -200 450 -200 q 562 -155 531 -200 q 610 14 593 -110 l 667 411 l 354 411 l 296 0 l 104 0 l 233 903 l 425 903 l 368 508 l 681 508 l 738 903 l 929 903 l 801 14 q 706 -228 778 -158 q 504 -299 633 -299 z "},"Ӊ":{"ha":953,"x_min":104,"x_max":933,"o":"m 646 -243 l 725 0 l 608 0 l 667 411 l 354 411 l 296 0 l 104 0 l 233 903 l 425 903 l 368 508 l 681 508 l 738 903 l 929 903 l 814 100 l 933 100 l 929 69 l 749 -243 l 646 -243 z "},"Ӌ":{"ha":814,"x_min":149,"x_max":835,"o":"m 835 100 l 747 -243 l 643 -243 l 646 0 l 514 0 l 565 369 q 538 352 565 367 q 462 325 510 338 q 350 313 414 313 q 197 367 244 313 q 149 517 149 421 q 153 582 149 549 l 199 903 l 390 903 l 349 606 q 342 528 342 554 q 365 447 342 469 q 436 424 388 424 q 578 458 508 424 l 640 903 l 833 903 l 721 100 l 835 100 z "},"Ӎ":{"ha":1219,"x_min":93,"x_max":1200,"o":"m 913 -243 l 992 0 l 881 0 l 968 683 l 964 683 l 615 0 l 472 0 l 318 683 l 314 683 l 213 0 l 93 0 l 233 903 l 465 903 l 624 238 l 629 238 l 972 903 l 1188 903 l 1081 100 l 1200 100 l 1196 69 l 1015 -243 l 913 -243 z "},"Ӑ":{"ha":844,"x_min":26,"x_max":819,"o":"m 665 903 l 819 0 l 617 0 l 575 253 l 261 253 l 143 0 l 26 0 l 453 903 l 665 903 m 494 765 l 300 340 l 561 340 l 496 765 l 494 765 m 582 1075 q 653 1094 633 1075 q 672 1139 672 1114 q 671 1151 672 1146 q 669 1157 669 1156 l 672 1174 l 814 1161 q 797 1106 814 1146 q 726 1028 781 1067 q 569 990 672 990 q 414 1036 454 990 q 374 1136 374 1082 q 374 1153 374 1146 q 375 1161 375 1160 l 519 1174 l 517 1157 q 511 1144 515 1154 q 507 1122 507 1133 q 582 1075 507 1075 z "},"Ӓ":{"ha":844,"x_min":26,"x_max":819,"o":"m 665 903 l 819 0 l 617 0 l 575 253 l 261 253 l 143 0 l 26 0 l 453 903 l 665 903 m 494 765 l 300 340 l 561 340 l 496 765 l 494 765 m 407 1186 q 475 1210 438 1210 q 535 1186 511 1210 q 554 1129 554 1160 q 514 1042 554 1078 q 447 1017 482 1017 q 388 1042 410 1017 q 368 1099 368 1065 q 378 1145 368 1122 q 407 1186 389 1168 m 665 1186 q 732 1210 696 1210 q 793 1186 767 1210 q 813 1129 813 1160 q 772 1042 813 1078 q 704 1017 740 1017 q 646 1042 667 1017 q 626 1099 626 1065 q 637 1145 626 1122 q 665 1186 647 1168 z "},"Ӗ":{"ha":728,"x_min":107,"x_max":821,"o":"m 668 0 l 107 0 l 233 903 l 775 903 l 761 803 l 411 803 l 369 506 l 679 506 l 664 408 l 357 408 l 314 100 l 682 100 l 668 0 m 589 1075 q 660 1094 640 1075 q 679 1139 679 1114 q 678 1151 679 1146 q 676 1157 676 1156 l 679 1174 l 821 1161 q 804 1106 821 1146 q 733 1028 788 1067 q 576 990 679 990 q 421 1036 461 990 q 381 1136 381 1082 q 381 1153 381 1146 q 382 1161 382 1160 l 526 1174 l 524 1157 q 518 1144 522 1154 q 514 1122 514 1133 q 589 1075 514 1075 z "},"Ә":{"ha":796,"x_min":93,"x_max":821,"o":"m 500 917 q 733 828 646 917 q 821 568 821 739 q 813 464 821 521 q 665 106 779 231 q 389 -19 551 -19 q 168 60 243 -19 q 93 290 93 139 q 100 388 93 329 q 111 444 104 419 q 124 483 118 469 q 131 500 129 497 l 628 500 q 639 633 639 582 q 601 772 639 731 q 475 814 563 814 q 359 783 414 814 q 267 717 304 753 q 229 678 229 682 l 157 740 q 201 793 157 747 q 321 878 244 839 q 500 917 397 917 m 275 383 l 269 342 q 264 258 264 301 q 298 124 264 165 q 389 82 332 82 q 525 148 472 82 q 611 383 578 214 l 275 383 z "},"Ӛ":{"ha":796,"x_min":93,"x_max":821,"o":"m 500 917 q 733 828 646 917 q 821 568 821 739 q 813 464 821 521 q 665 106 779 231 q 389 -19 551 -19 q 168 60 243 -19 q 93 290 93 139 q 100 388 93 329 q 111 444 104 419 q 124 483 118 469 q 131 500 129 497 l 628 500 q 639 633 639 582 q 601 772 639 731 q 475 814 563 814 q 359 783 414 814 q 267 717 304 753 q 229 678 229 682 l 157 740 q 201 793 157 747 q 321 878 244 839 q 500 917 397 917 m 275 383 l 269 342 q 264 258 264 301 q 298 124 264 165 q 389 82 332 82 q 525 148 472 82 q 611 383 578 214 l 275 383 m 351 1186 q 419 1210 382 1210 q 479 1186 456 1210 q 499 1129 499 1160 q 458 1042 499 1078 q 392 1017 426 1017 q 332 1042 354 1017 q 313 1099 313 1065 q 323 1145 313 1122 q 351 1186 333 1168 m 610 1186 q 676 1210 640 1210 q 738 1186 711 1210 q 757 1129 757 1160 q 717 1042 757 1078 q 649 1017 685 1017 q 590 1042 611 1017 q 571 1099 571 1065 q 581 1145 571 1122 q 610 1186 592 1168 z "},"Ӝ":{"ha":1243,"x_min":29,"x_max":1296,"o":"m 785 561 l 894 561 l 1158 903 l 1296 903 l 1004 558 l 1214 0 l 990 0 l 843 461 l 771 461 l 707 0 l 515 0 l 579 460 l 500 460 l 254 0 l 29 0 l 364 528 l 196 903 l 333 903 l 471 561 l 593 561 l 642 903 l 833 903 l 785 561 m 583 1186 q 651 1210 614 1210 q 711 1186 688 1210 q 731 1129 731 1160 q 690 1042 731 1078 q 624 1017 658 1017 q 564 1042 586 1017 q 544 1099 544 1065 q 555 1145 544 1122 q 583 1186 565 1168 m 842 1186 q 908 1210 872 1210 q 969 1186 943 1210 q 989 1129 989 1160 q 949 1042 989 1078 q 881 1017 917 1017 q 822 1042 843 1017 q 803 1099 803 1065 q 813 1145 803 1122 q 842 1186 824 1168 z "},"Ӟ":{"ha":710,"x_min":35,"x_max":731,"o":"m 204 854 q 245 872 204 856 q 343 903 286 889 q 458 917 400 917 q 659 863 588 917 q 731 717 731 810 q 680 564 731 625 q 554 467 629 503 q 700 293 700 433 q 653 134 700 204 q 522 24 607 64 q 322 -15 436 -15 q 150 17 214 -15 q 60 84 86 49 q 35 129 35 119 l 104 201 q 128 167 104 196 q 199 113 153 138 q 313 88 246 88 q 440 145 393 88 q 488 307 488 203 q 461 391 488 367 q 383 415 435 415 l 249 404 l 264 511 l 407 499 q 461 525 433 500 q 508 598 489 550 q 528 711 528 646 q 407 819 528 819 q 324 806 368 819 q 249 778 281 793 q 210 760 218 764 l 204 854 m 322 1186 q 390 1210 353 1210 q 450 1186 426 1210 q 469 1129 469 1160 q 429 1042 469 1078 q 363 1017 397 1017 q 303 1042 325 1017 q 283 1099 283 1065 q 294 1145 283 1122 q 322 1186 304 1168 m 581 1186 q 647 1210 611 1210 q 708 1186 682 1210 q 728 1129 728 1160 q 688 1042 728 1078 q 619 1017 656 1017 q 561 1042 582 1017 q 542 1099 542 1065 q 552 1145 542 1122 q 581 1186 563 1168 z "},"Ӡ":{"ha":760,"x_min":56,"x_max":792,"o":"m 553 536 q 687 464 649 515 q 725 336 725 413 q 721 275 725 307 q 656 128 710 194 q 519 24 603 63 q 336 -15 435 -15 q 165 17 228 -15 q 79 84 103 49 q 56 129 56 119 l 124 201 q 147 167 124 196 q 215 113 169 138 q 326 88 260 88 q 444 137 396 88 q 506 278 493 186 q 510 335 510 310 q 411 460 510 460 l 242 449 l 257 556 l 354 551 l 539 803 l 197 803 l 211 903 l 792 903 l 779 819 l 553 536 z "},"Ӣ":{"ha":939,"x_min":107,"x_max":958,"o":"m 832 0 l 640 0 l 721 583 l 744 683 l 743 683 l 303 31 l 288 0 l 107 0 l 233 903 l 425 903 l 342 304 l 318 214 l 321 214 l 764 872 l 781 903 l 958 903 l 832 0 m 738 1075 l 439 1075 l 450 1156 l 747 1156 l 738 1075 z "},"Ӥ":{"ha":939,"x_min":107,"x_max":958,"o":"m 832 0 l 640 0 l 721 583 l 744 683 l 743 683 l 303 31 l 288 0 l 107 0 l 233 903 l 425 903 l 342 304 l 318 214 l 321 214 l 764 872 l 781 903 l 958 903 l 832 0 m 408 1186 q 476 1210 439 1210 q 536 1186 513 1210 q 556 1129 556 1160 q 515 1042 556 1078 q 449 1017 483 1017 q 389 1042 411 1017 q 369 1099 369 1065 q 380 1145 369 1122 q 408 1186 390 1168 m 667 1186 q 733 1210 697 1210 q 794 1186 768 1210 q 814 1129 814 1160 q 774 1042 814 1078 q 706 1017 742 1017 q 647 1042 668 1017 q 628 1099 628 1065 q 638 1145 628 1122 q 667 1186 649 1168 z "},"Ӧ":{"ha":921,"x_min":106,"x_max":940,"o":"m 940 544 q 878 251 940 378 q 707 54 815 124 q 465 -15 599 -15 q 200 85 294 -15 q 106 360 106 185 q 161 649 106 522 q 323 846 217 775 q 578 917 429 917 q 851 813 761 917 q 940 544 940 708 m 736 585 q 694 753 736 690 q 568 817 653 817 q 308 313 308 817 q 351 144 308 206 q 475 83 394 83 q 665 203 593 83 q 736 585 736 322 m 442 1186 q 510 1210 472 1210 q 569 1186 546 1210 q 589 1129 589 1160 q 549 1042 589 1078 q 482 1017 517 1017 q 422 1042 444 1017 q 403 1099 403 1065 q 413 1145 403 1122 q 442 1186 424 1168 m 700 1186 q 767 1210 731 1210 q 828 1186 801 1210 q 847 1129 847 1160 q 807 1042 847 1078 q 739 1017 775 1017 q 681 1042 701 1017 q 661 1099 661 1065 q 672 1145 661 1122 q 700 1186 682 1168 z "},"Ө":{"ha":921,"x_min":106,"x_max":940,"o":"m 578 917 q 851 813 761 917 q 940 544 940 708 q 878 251 940 378 q 707 54 815 124 q 465 -15 599 -15 q 200 85 294 -15 q 106 360 106 185 q 161 649 106 522 q 323 846 217 775 q 578 917 429 917 m 568 817 q 318 494 360 817 l 733 494 q 736 585 736 550 q 694 753 736 690 q 568 817 653 817 m 475 83 q 637 161 571 83 q 725 408 703 239 l 311 408 q 308 313 308 347 q 351 144 308 206 q 475 83 394 83 z "},"Ӫ":{"ha":921,"x_min":106,"x_max":940,"o":"m 578 917 q 851 813 761 917 q 940 544 940 708 q 878 251 940 378 q 707 54 815 124 q 465 -15 599 -15 q 200 85 294 -15 q 106 360 106 185 q 161 649 106 522 q 323 846 217 775 q 578 917 429 917 m 568 817 q 318 494 360 817 l 733 494 q 736 585 736 550 q 694 753 736 690 q 568 817 653 817 m 475 83 q 637 161 571 83 q 725 408 703 239 l 311 408 q 308 313 308 347 q 351 144 308 206 q 475 83 394 83 m 428 1186 q 496 1210 458 1210 q 556 1186 532 1210 q 575 1129 575 1160 q 535 1042 575 1078 q 468 1017 503 1017 q 408 1042 431 1017 q 389 1099 389 1065 q 399 1145 389 1122 q 428 1186 410 1168 m 686 1186 q 753 1210 717 1210 q 814 1186 788 1210 q 833 1129 833 1160 q 793 1042 833 1078 q 725 1017 761 1017 q 667 1042 688 1017 q 647 1099 647 1065 q 658 1145 647 1122 q 686 1186 668 1168 z "},"Ӭ":{"ha":783,"x_min":39,"x_max":806,"o":"m 106 219 q 133 181 106 215 q 208 119 161 147 q 319 90 256 90 q 490 163 422 90 q 585 403 558 236 l 196 403 l 210 501 l 594 501 q 599 606 599 550 q 548 767 599 719 q 399 814 497 814 q 307 800 353 814 q 231 772 261 786 q 193 753 201 757 l 183 850 q 231 872 193 856 q 324 902 268 888 q 435 917 379 917 q 710 821 615 917 q 806 554 806 725 q 749 259 806 389 q 589 57 693 129 q 347 -15 485 -15 q 176 18 244 -15 q 73 90 107 51 q 39 136 39 129 l 106 219 m 331 1186 q 399 1210 361 1210 q 458 1186 435 1210 q 478 1129 478 1160 q 438 1042 478 1078 q 371 1017 406 1017 q 311 1042 333 1017 q 292 1099 292 1065 q 302 1145 292 1122 q 331 1186 313 1168 m 589 1186 q 656 1210 619 1210 q 717 1186 690 1210 q 736 1129 736 1160 q 696 1042 736 1078 q 628 1017 664 1017 q 569 1042 590 1017 q 550 1099 550 1065 q 560 1145 550 1122 q 589 1186 571 1168 z "},"Ӯ":{"ha":828,"x_min":111,"x_max":925,"o":"m 796 903 l 925 903 l 594 278 q 429 53 513 122 q 244 -15 346 -15 q 174 -8 204 -15 q 129 8 144 0 q 111 19 114 17 l 150 136 q 166 126 153 133 q 203 113 179 119 q 257 107 228 107 q 351 127 310 107 q 433 203 392 147 l 160 903 l 385 903 l 558 400 l 561 400 l 796 903 m 768 1075 l 469 1075 l 481 1156 l 778 1156 l 768 1075 z "},"Ӱ":{"ha":828,"x_min":111,"x_max":925,"o":"m 796 903 l 925 903 l 594 278 q 429 53 513 122 q 244 -15 346 -15 q 174 -8 204 -15 q 129 8 144 0 q 111 19 114 17 l 150 136 q 166 126 153 133 q 203 113 179 119 q 257 107 228 107 q 351 127 310 107 q 433 203 392 147 l 160 903 l 385 903 l 558 400 l 561 400 l 796 903 m 439 1186 q 507 1210 469 1210 q 567 1186 543 1210 q 586 1129 586 1160 q 546 1042 586 1078 q 479 1017 514 1017 q 419 1042 442 1017 q 400 1099 400 1065 q 410 1145 400 1122 q 439 1186 421 1168 m 697 1186 q 764 1210 728 1210 q 825 1186 799 1210 q 844 1129 844 1160 q 804 1042 844 1078 q 736 1017 772 1017 q 678 1042 699 1017 q 658 1099 658 1065 q 669 1145 658 1122 q 697 1186 679 1168 z "},"Ӳ":{"ha":828,"x_min":111,"x_max":925,"o":"m 796 903 l 925 903 l 594 278 q 429 53 513 122 q 244 -15 346 -15 q 174 -8 204 -15 q 129 8 144 0 q 111 19 114 17 l 150 136 q 166 126 153 133 q 203 113 179 119 q 257 107 228 107 q 351 127 310 107 q 433 203 392 147 l 160 903 l 385 903 l 558 400 l 561 400 l 796 903 m 546 1233 l 669 1197 l 508 989 l 443 1021 l 546 1233 m 763 1233 l 886 1197 l 725 989 l 658 1021 l 763 1233 z "},"Ӵ":{"ha":814,"x_min":149,"x_max":833,"o":"m 514 0 l 565 369 q 538 352 565 367 q 462 325 510 338 q 350 313 414 313 q 197 367 244 313 q 149 517 149 421 q 153 582 149 549 l 199 903 l 390 903 l 349 606 q 342 528 342 554 q 365 447 342 469 q 436 424 388 424 q 578 458 508 424 l 640 903 l 833 903 l 707 0 l 514 0 m 367 1186 q 435 1210 397 1210 q 494 1186 471 1210 q 514 1129 514 1160 q 474 1042 514 1078 q 407 1017 442 1017 q 347 1042 369 1017 q 328 1099 328 1065 q 338 1145 328 1122 q 367 1186 349 1168 m 625 1186 q 692 1210 656 1210 q 753 1186 726 1210 q 772 1129 772 1160 q 732 1042 772 1078 q 664 1017 700 1017 q 606 1042 626 1017 q 586 1099 586 1065 q 597 1145 586 1122 q 625 1186 607 1168 z "},"Ӷ":{"ha":608,"x_min":107,"x_max":719,"o":"m 711 803 l 410 803 l 313 100 l 428 100 l 340 -243 l 236 -243 l 239 0 l 107 0 l 235 903 l 719 903 l 711 803 z "},"Ӹ":{"ha":1118,"x_min":107,"x_max":1138,"o":"m 425 903 l 376 557 l 442 557 q 763 333 763 557 q 662 91 763 182 q 369 0 561 0 l 107 0 l 233 903 l 425 903 m 1011 0 l 819 0 l 946 903 l 1138 903 l 1011 0 m 311 90 l 378 90 q 517 156 467 90 q 567 347 567 222 q 532 441 567 413 q 429 469 497 469 l 364 469 l 311 90 m 526 1186 q 594 1210 557 1210 q 654 1186 631 1210 q 674 1129 674 1160 q 633 1042 674 1078 q 567 1017 601 1017 q 507 1042 529 1017 q 488 1099 488 1065 q 498 1145 488 1122 q 526 1186 508 1168 m 785 1186 q 851 1210 815 1210 q 913 1186 886 1210 q 932 1129 932 1160 q 892 1042 932 1078 q 824 1017 860 1017 q 765 1042 786 1017 q 746 1099 746 1065 q 756 1145 746 1122 q 785 1186 767 1168 z "},"Ӻ":{"ha":703,"x_min":75,"x_max":819,"o":"m 199 -250 q 146 -243 164 -250 q 126 -236 128 -236 l 140 -157 q 160 -160 144 -158 q 194 -162 175 -162 q 264 -131 236 -162 q 304 -11 292 -99 l 307 0 l 143 0 l 196 372 l 75 372 l 89 469 l 210 469 l 271 903 l 819 903 l 806 803 l 449 803 l 401 469 l 640 469 l 626 372 l 388 372 l 349 100 l 461 100 l 449 13 q 363 -187 429 -125 q 199 -250 296 -250 z "},"Ӽ":{"ha":761,"x_min":8,"x_max":890,"o":"m 497 -242 q 547 -195 525 -226 q 568 -112 568 -164 q 533 42 568 -61 q 410 344 499 144 l 406 344 l 153 0 l 8 0 l 351 439 l 150 903 l 390 903 l 510 579 l 514 579 l 754 903 l 890 903 l 567 486 q 711 169 674 269 q 749 11 749 69 q 746 -28 749 -3 q 696 -165 736 -99 q 553 -299 656 -232 l 497 -242 z "},"Ӿ":{"ha":806,"x_min":10,"x_max":890,"o":"m 168 511 l 321 511 l 150 903 l 390 903 l 511 579 l 515 579 l 754 903 l 890 903 l 586 511 l 765 511 l 751 417 l 599 417 l 794 0 l 556 0 l 411 344 l 407 344 l 154 0 l 10 0 l 335 417 l 154 417 l 168 511 z "},"Ԑ":{"ha":765,"x_min":113,"x_max":779,"o":"m 396 -15 q 185 40 258 -15 q 113 197 113 96 q 115 240 113 210 q 185 390 129 333 q 319 465 240 446 q 233 532 264 493 q 201 633 201 571 q 204 669 201 644 q 309 848 221 779 q 539 917 397 917 q 651 903 597 917 q 742 872 704 889 q 779 854 779 856 l 749 760 q 712 778 740 764 q 642 806 683 793 q 563 819 601 819 q 456 781 493 819 q 407 660 419 743 q 403 608 403 631 q 424 525 403 550 q 476 499 444 500 l 624 511 l 608 404 l 476 415 q 381 374 418 415 q 332 243 344 333 q 329 201 329 228 q 363 113 329 138 q 461 88 397 88 q 581 113 528 88 q 665 167 633 138 q 696 201 696 197 l 744 129 q 614 32 697 79 q 396 -15 531 -15 z "},"Ԓ":{"ha":872,"x_min":33,"x_max":894,"o":"m 469 -299 q 369 -286 407 -299 q 315 -259 331 -274 q 299 -242 299 -244 l 353 -161 q 365 -174 354 -164 q 395 -192 375 -183 q 443 -200 415 -200 q 527 -155 496 -200 q 575 14 558 -110 l 688 803 l 496 803 q 337 190 436 393 q 107 -14 238 -14 q 53 -9 74 -14 q 33 -3 33 -4 l 57 119 q 74 115 61 118 q 99 113 86 113 q 268 297 196 113 q 401 903 340 482 l 894 903 l 767 14 q 671 -228 743 -158 q 469 -299 599 -299 z "},"Ԛ":{"ha":921,"x_min":106,"x_max":940,"o":"m 940 544 q 894 287 940 401 q 764 98 847 172 q 575 -1 681 24 q 735 -183 635 -183 q 779 -175 757 -183 l 776 -260 q 692 -275 731 -275 q 509 -199 590 -275 q 396 -10 428 -122 q 181 106 256 8 q 106 360 106 203 q 161 649 106 522 q 323 846 217 775 q 578 917 429 917 q 851 813 761 917 q 940 544 940 708 m 736 585 q 694 753 736 690 q 568 817 653 817 q 308 313 308 817 q 351 144 308 206 q 475 83 394 83 q 665 203 593 83 q 736 585 736 322 z "},"Ԝ":{"ha":1213,"x_min":139,"x_max":1325,"o":"m 1325 903 l 963 0 l 799 0 l 703 667 l 699 667 l 419 0 l 253 0 l 139 903 l 343 903 l 414 219 l 417 219 l 697 903 l 851 903 l 947 224 l 950 224 l 1203 903 l 1325 903 z "},"Ҍ":{"ha":785,"x_min":76,"x_max":781,"o":"m 461 557 q 698 502 615 557 q 781 338 781 447 q 776 290 781 315 q 658 76 757 151 q 388 0 560 0 l 125 0 l 222 685 l 76 685 l 90 785 l 236 785 l 253 903 l 444 903 l 428 785 l 581 785 l 567 685 l 414 685 l 396 557 l 461 557 m 396 90 q 521 135 478 90 q 578 285 564 181 q 582 343 582 318 q 550 441 582 413 q 449 469 518 469 l 383 469 l 329 90 l 396 90 z "},"Ҏ":{"ha":738,"x_min":106,"x_max":796,"o":"m 233 903 l 510 903 q 722 842 647 903 q 796 660 796 781 q 792 597 796 631 q 724 426 776 494 q 594 319 672 357 l 643 210 l 556 164 l 500 289 q 426 282 458 282 l 338 282 l 297 0 l 106 0 l 233 903 m 542 443 q 583 589 568 489 q 590 675 590 644 q 563 781 590 750 q 479 813 535 813 l 413 813 l 350 371 l 417 371 q 463 376 444 371 l 411 497 l 499 544 l 542 443 z "},"а":{"ha":753,"x_min":82,"x_max":769,"o":"m 531 0 l 508 61 l 507 61 q 488 38 507 57 q 428 1 469 18 q 325 -15 388 -15 q 149 62 215 -15 q 82 271 82 139 q 127 494 82 394 q 254 652 172 594 q 440 710 336 710 q 531 697 497 710 q 580 670 565 685 q 594 653 594 656 l 600 653 l 633 694 l 769 694 l 672 0 l 531 0 m 385 93 q 463 115 432 93 q 507 156 494 136 l 564 549 q 465 604 536 604 q 326 514 376 604 q 276 243 276 424 q 385 93 276 93 z "},"б":{"ha":731,"x_min":90,"x_max":756,"o":"m 589 861 q 319 753 415 853 q 207 490 222 653 l 218 490 q 263 583 229 532 q 355 672 297 633 q 489 710 413 710 q 678 641 611 710 q 746 439 746 572 q 699 202 746 306 q 567 42 653 99 q 369 -15 482 -15 q 215 29 278 -15 q 121 147 151 74 q 90 308 90 221 q 138 649 90 492 q 291 910 185 806 q 563 1031 397 1014 l 756 1050 l 738 868 l 589 861 m 453 618 q 366 577 406 618 q 303 452 326 536 q 279 246 279 368 q 305 124 279 171 q 379 76 331 76 q 507 171 460 76 q 554 464 554 265 q 530 581 554 544 q 453 618 506 618 z "},"в":{"ha":690,"x_min":81,"x_max":699,"o":"m 332 -15 q 156 -8 232 -15 q 81 0 81 -1 l 178 694 q 282 703 203 697 q 415 710 361 710 q 628 666 558 710 q 699 540 699 622 q 546 356 699 410 q 640 308 601 342 q 679 221 679 275 q 332 -15 679 -15 m 421 386 q 447 394 421 382 q 493 438 472 406 q 514 532 514 471 q 396 628 514 628 q 354 626 371 628 l 319 386 l 421 386 m 275 68 l 329 68 q 450 113 408 68 q 492 235 492 158 q 403 321 492 321 l 311 321 l 275 68 z "}}}
